<?xml version="1.0" encoding="UTF-8" standalone="no"?>
<svg
   xmlns:dc="http://purl.org/dc/elements/1.1/"
   xmlns:cc="http://creativecommons.org/ns#"
   xmlns:rdf="http://www.w3.org/1999/02/22-rdf-syntax-ns#"
   xmlns:svg="http://www.w3.org/2000/svg"
   xmlns="http://www.w3.org/2000/svg"
   xmlns:sodipodi="http://sodipodi.sourceforge.net/DTD/sodipodi-0.dtd"
   xmlns:inkscape="http://www.inkscape.org/namespaces/inkscape"
   version="1.1"
   id="svg2"
   xml:space="preserve"
   width="1365.3333"
   height="1024"
   viewBox="0 0 1365.3333 1024"
   sodipodi:docname="engine.ai"><metadata
     id="metadata8"><rdf:RDF><cc:Work
         rdf:about=""><dc:format>image/svg+xml</dc:format><dc:type
           rdf:resource="http://purl.org/dc/dcmitype/StillImage" /></cc:Work></rdf:RDF></metadata><defs
     id="defs6"><clipPath
       clipPathUnits="userSpaceOnUse"
       id="clipPath18"><path
         d="M 0,768 H 1024 V 0 H 0 Z"
         id="path16" /></clipPath></defs><sodipodi:namedview
     pagecolor="#ffffff"
     bordercolor="#666666"
     borderopacity="1"
     objecttolerance="10"
     gridtolerance="10"
     guidetolerance="10"
     inkscape:pageopacity="0"
     inkscape:pageshadow="2"
     inkscape:window-width="640"
     inkscape:window-height="480"
     id="namedview4" /><g
     id="g10"
     inkscape:groupmode="layer"
     inkscape:label="engine"
     transform="matrix(1.3333333,0,0,-1.3333333,0,1024)"><g
       id="g12"><g
         id="g14"
         clip-path="url(#clipPath18)"><g
           id="g20"
           transform="translate(640.5,160.1504)"><path
             d="M 0,0 C 0,-6.294 -7.934,-10.65 -17.253,-10.65 H -41.155 C -50.476,-10.65 -59,-6.294 -59,0 v 34.175 c 0,6.293 8.524,11.175 17.845,11.175 h 23.902 C -7.934,45.35 0,40.468 0,34.175 Z"
             style="fill:#ffffff;fill-opacity:1;fill-rule:nonzero;stroke:none"
             id="path22" /></g><g
           id="g24"
           transform="translate(640.5,160.1504)"><path
             d="M 0,0 C 0,-6.294 -7.934,-10.65 -17.253,-10.65 H -41.155 C -50.476,-10.65 -59,-6.294 -59,0 v 34.175 c 0,6.293 8.524,11.175 17.845,11.175 h 23.902 C -7.934,45.35 0,40.468 0,34.175 Z"
             style="fill:none;stroke:#1a1a1a;stroke-width:5;stroke-linecap:butt;stroke-linejoin:miter;stroke-miterlimit:10;stroke-dasharray:none;stroke-opacity:1"
             id="path26" /></g><g
           id="g28"
           transform="translate(661.0293,289.6221)"><path
             d="m 0,0 c -2.238,-3.876 -7.193,-5.205 -11.07,-2.968 l -82.471,47.609 c -3.876,2.237 -5.204,7.192 -2.967,11.07 L 5.798,232.935 c 2.237,3.877 7.194,5.204 11.072,2.967 l 82.469,-47.609 c 3.875,-2.237 5.204,-7.193 2.967,-11.07 z"
             style="fill:#ffffff;fill-opacity:1;fill-rule:nonzero;stroke:none"
             id="path30" /></g><g
           id="g32"
           transform="translate(661.0293,289.6221)"><path
             d="m 0,0 c -2.238,-3.876 -7.193,-5.205 -11.07,-2.968 l -82.471,47.609 c -3.876,2.237 -5.204,7.192 -2.967,11.07 L 5.798,232.935 c 2.237,3.877 7.194,5.204 11.072,2.967 l 82.469,-47.609 c 3.875,-2.237 5.204,-7.193 2.967,-11.07 z"
             style="fill:none;stroke:#1a1a1a;stroke-width:5;stroke-linecap:butt;stroke-linejoin:miter;stroke-miterlimit:10;stroke-dasharray:none;stroke-opacity:1"
             id="path34" /></g><g
           id="g36"
           transform="translate(762.9199,429.6538)"><path
             d="m 0,0 c -2.239,-3.876 -7.193,-5.204 -11.07,-2.967 l -114.054,65.841 c -3.877,2.237 -5.206,7.194 -2.967,11.069 l 1.349,2.341 c 2.238,3.876 7.196,5.205 11.071,2.966 L -1.615,13.41 C 2.262,11.173 3.589,6.215 1.352,2.339 Z"
             style="fill:#ffffff;fill-opacity:1;fill-rule:nonzero;stroke:none"
             id="path38" /></g><g
           id="g40"
           transform="translate(762.9199,429.6538)"><path
             d="m 0,0 c -2.239,-3.876 -7.193,-5.204 -11.07,-2.967 l -114.054,65.841 c -3.877,2.237 -5.206,7.194 -2.967,11.069 l 1.349,2.341 c 2.238,3.876 7.196,5.205 11.071,2.966 L -1.615,13.41 C 2.262,11.173 3.589,6.215 1.352,2.339 Z"
             style="fill:none;stroke:#1a1a1a;stroke-width:5;stroke-linecap:butt;stroke-linejoin:miter;stroke-miterlimit:10;stroke-dasharray:none;stroke-opacity:1"
             id="path42" /></g><g
           id="g44"
           transform="translate(748.4023,404.5029)"><path
             d="m 0,0 c -2.237,-3.876 -7.195,-5.205 -11.069,-2.967 l -114.058,65.841 c -3.875,2.237 -5.203,7.194 -2.966,11.07 l 1.35,2.34 c 2.239,3.876 7.194,5.204 11.072,2.967 L -1.616,13.411 C 2.257,11.171 3.588,6.217 1.351,2.34 Z"
             style="fill:#ffffff;fill-opacity:1;fill-rule:nonzero;stroke:none"
             id="path46" /></g><g
           id="g48"
           transform="translate(748.4023,404.5029)"><path
             d="m 0,0 c -2.237,-3.876 -7.195,-5.205 -11.069,-2.967 l -114.058,65.841 c -3.875,2.237 -5.203,7.194 -2.966,11.07 l 1.35,2.34 c 2.239,3.876 7.194,5.204 11.072,2.967 L -1.616,13.411 C 2.257,11.171 3.588,6.217 1.351,2.34 Z"
             style="fill:none;stroke:#1a1a1a;stroke-width:5;stroke-linecap:butt;stroke-linejoin:miter;stroke-miterlimit:10;stroke-dasharray:none;stroke-opacity:1"
             id="path50" /></g><g
           id="g52"
           transform="translate(734.5557,380.5234)"><path
             d="m 0,0 c -2.233,-3.878 -7.192,-5.206 -11.068,-2.968 l -114.054,65.84 c -3.878,2.237 -5.207,7.194 -2.97,11.07 l 1.353,2.341 c 2.237,3.876 7.194,5.204 11.069,2.967 L -1.614,13.409 C 2.261,11.171 3.591,6.215 1.354,2.339 Z"
             style="fill:#ffffff;fill-opacity:1;fill-rule:nonzero;stroke:none"
             id="path54" /></g><g
           id="g56"
           transform="translate(734.5557,380.5234)"><path
             d="m 0,0 c -2.233,-3.878 -7.192,-5.206 -11.068,-2.968 l -114.054,65.84 c -3.878,2.237 -5.207,7.194 -2.97,11.07 l 1.353,2.341 c 2.237,3.876 7.194,5.204 11.069,2.967 L -1.614,13.409 C 2.261,11.171 3.591,6.215 1.354,2.339 Z"
             style="fill:none;stroke:#1a1a1a;stroke-width:5;stroke-linecap:butt;stroke-linejoin:miter;stroke-miterlimit:10;stroke-dasharray:none;stroke-opacity:1"
             id="path58" /></g><g
           id="g60"
           transform="translate(720.0391,355.3711)"><path
             d="m 0,0 c -2.236,-3.875 -7.192,-5.203 -11.069,-2.967 l -114.058,65.842 c -3.874,2.238 -5.202,7.194 -2.965,11.069 l 1.35,2.34 c 2.237,3.876 7.196,5.204 11.07,2.967 L -1.616,13.41 C 2.261,11.174 3.588,6.217 1.351,2.34 Z"
             style="fill:#ffffff;fill-opacity:1;fill-rule:nonzero;stroke:none"
             id="path62" /></g><g
           id="g64"
           transform="translate(720.0391,355.3711)"><path
             d="m 0,0 c -2.236,-3.875 -7.192,-5.203 -11.069,-2.967 l -114.058,65.842 c -3.874,2.238 -5.202,7.194 -2.965,11.069 l 1.35,2.34 c 2.237,3.876 7.196,5.204 11.07,2.967 L -1.616,13.41 C 2.261,11.174 3.588,6.217 1.351,2.34 Z"
             style="fill:none;stroke:#1a1a1a;stroke-width:5;stroke-linecap:butt;stroke-linejoin:miter;stroke-miterlimit:10;stroke-dasharray:none;stroke-opacity:1"
             id="path66" /></g><g
           id="g68"
           transform="translate(706.5352,331.9766)"><path
             d="m 0,0 c -2.237,-3.877 -7.194,-5.207 -11.072,-2.967 l -114.055,65.84 c -3.877,2.236 -5.204,7.194 -2.967,11.07 l 1.351,2.34 c 2.237,3.876 7.194,5.205 11.069,2.967 L -1.618,13.41 C 2.259,11.172 3.588,6.215 1.348,2.339 Z"
             style="fill:#ffffff;fill-opacity:1;fill-rule:nonzero;stroke:none"
             id="path70" /></g><g
           id="g72"
           transform="translate(706.5352,331.9766)"><path
             d="m 0,0 c -2.237,-3.877 -7.194,-5.207 -11.072,-2.967 l -114.055,65.84 c -3.877,2.236 -5.204,7.194 -2.967,11.07 l 1.351,2.34 c 2.237,3.876 7.194,5.205 11.069,2.967 L -1.618,13.41 C 2.259,11.172 3.588,6.215 1.348,2.339 Z"
             style="fill:none;stroke:#1a1a1a;stroke-width:5;stroke-linecap:butt;stroke-linejoin:miter;stroke-miterlimit:10;stroke-dasharray:none;stroke-opacity:1"
             id="path74" /></g><g
           id="g76"
           transform="translate(692.0156,306.8252)"><path
             d="m 0,0 c -2.238,-3.876 -7.193,-5.203 -11.07,-2.967 l -114.056,65.84 c -3.876,2.238 -5.204,7.196 -2.967,11.071 l 1.35,2.34 c 2.239,3.876 7.193,5.205 11.072,2.966 L -1.615,13.409 C 2.26,11.174 3.589,6.216 1.35,2.34 Z"
             style="fill:#ffffff;fill-opacity:1;fill-rule:nonzero;stroke:none"
             id="path78" /></g><g
           id="g80"
           transform="translate(692.0156,306.8252)"><path
             d="m 0,0 c -2.238,-3.876 -7.193,-5.203 -11.07,-2.967 l -114.056,65.84 c -3.876,2.238 -5.204,7.196 -2.967,11.071 l 1.35,2.34 c 2.239,3.876 7.193,5.205 11.072,2.966 L -1.615,13.409 C 2.26,11.174 3.589,6.216 1.35,2.34 Z"
             style="fill:none;stroke:#1a1a1a;stroke-width:5;stroke-linecap:butt;stroke-linejoin:miter;stroke-miterlimit:10;stroke-dasharray:none;stroke-opacity:1"
             id="path82" /></g><g
           id="g84"
           transform="translate(620.9297,313.3672)"><path
             d="m 0,0 c -2.381,-4.123 -7.453,-5.651 -11.329,-3.415 l -2.34,1.351 c -3.876,2.238 -5.088,7.396 -2.71,11.519 l 70.053,121.346 c 2.381,4.124 7.452,5.653 11.329,3.415 l 2.339,-1.351 c 3.875,-2.236 5.091,-7.394 2.709,-11.519 z"
             style="fill:#ffffff;fill-opacity:1;fill-rule:nonzero;stroke:none"
             id="path86" /></g><g
           id="g88"
           transform="translate(620.9297,313.3672)"><path
             d="m 0,0 c -2.381,-4.123 -7.453,-5.651 -11.329,-3.415 l -2.34,1.351 c -3.876,2.238 -5.088,7.396 -2.71,11.519 l 70.053,121.346 c 2.381,4.124 7.452,5.653 11.329,3.415 l 2.339,-1.351 c 3.875,-2.236 5.091,-7.394 2.709,-11.519 z"
             style="fill:none;stroke:#1a1a1a;stroke-width:5;stroke-linecap:butt;stroke-linejoin:miter;stroke-miterlimit:10;stroke-dasharray:none;stroke-opacity:1"
             id="path90" /></g><g
           id="g92"
           transform="translate(700.3477,506.3262)"><path
             d="m 0,0 c -2.237,-3.877 -7.194,-5.206 -11.071,-2.968 l -2.339,1.351 c -3.877,2.238 -5.205,7.195 -2.968,11.07 l 5.742,9.943 c 2.236,3.877 7.192,5.206 11.071,2.968 l 2.336,-1.35 C 6.648,18.776 7.978,13.819 5.74,9.943 Z"
             style="fill:#ffffff;fill-opacity:1;fill-rule:nonzero;stroke:none"
             id="path94" /></g><g
           id="g96"
           transform="translate(700.3477,506.3262)"><path
             d="m 0,0 c -2.237,-3.877 -7.194,-5.206 -11.071,-2.968 l -2.339,1.351 c -3.877,2.238 -5.205,7.195 -2.968,11.07 l 5.742,9.943 c 2.236,3.877 7.192,5.206 11.071,2.968 l 2.336,-1.35 C 6.648,18.776 7.978,13.819 5.74,9.943 Z"
             style="fill:none;stroke:#1a1a1a;stroke-width:5;stroke-linecap:butt;stroke-linejoin:miter;stroke-miterlimit:10;stroke-dasharray:none;stroke-opacity:1"
             id="path98" /></g><g
           id="g100"
           transform="translate(747.1367,479.314)"><path
             d="m 0,0 c -2.237,-3.876 -7.193,-5.204 -11.069,-2.967 l -2.341,1.351 c -3.876,2.237 -5.204,7.194 -2.965,11.07 l 5.74,9.943 c 2.237,3.876 7.193,5.206 11.069,2.967 l 2.339,-1.35 C 6.65,18.778 7.979,13.819 5.74,9.942 Z"
             style="fill:#ffffff;fill-opacity:1;fill-rule:nonzero;stroke:none"
             id="path102" /></g><g
           id="g104"
           transform="translate(747.1367,479.314)"><path
             d="m 0,0 c -2.237,-3.876 -7.193,-5.204 -11.069,-2.967 l -2.341,1.351 c -3.876,2.237 -5.204,7.194 -2.965,11.07 l 5.74,9.943 c 2.237,3.876 7.193,5.206 11.069,2.967 l 2.339,-1.35 C 6.65,18.778 7.979,13.819 5.74,9.942 Z"
             style="fill:none;stroke:#1a1a1a;stroke-width:5;stroke-linecap:butt;stroke-linejoin:miter;stroke-miterlimit:10;stroke-dasharray:none;stroke-opacity:1"
             id="path106" /></g><g
           id="g108"
           transform="translate(667.3662,264.1279)"><path
             d="m 0,0 c -2.237,-3.876 -7.192,-5.204 -11.071,-2.967 l -114.053,65.841 c -3.875,2.238 -5.205,7.193 -2.967,11.07 l 1.35,2.34 c 2.237,3.876 7.195,5.203 11.072,2.967 L -1.612,13.41 C 2.261,11.173 3.589,6.216 1.353,2.339 Z"
             style="fill:#ffffff;fill-opacity:1;fill-rule:nonzero;stroke:none"
             id="path110" /></g><g
           id="g112"
           transform="translate(667.3662,264.1279)"><path
             d="m 0,0 c -2.237,-3.876 -7.192,-5.204 -11.071,-2.967 l -114.053,65.841 c -3.875,2.238 -5.205,7.193 -2.967,11.07 l 1.35,2.34 c 2.237,3.876 7.195,5.203 11.072,2.967 L -1.612,13.41 C 2.261,11.173 3.589,6.216 1.353,2.339 Z"
             style="fill:none;stroke:#1a1a1a;stroke-width:5;stroke-linecap:butt;stroke-linejoin:miter;stroke-miterlimit:10;stroke-dasharray:none;stroke-opacity:1"
             id="path114" /></g><g
           id="g116"
           transform="translate(491.3901,344.0322)"><path
             d="m 0,0 c 2.188,-3.905 0.792,-8.843 -3.115,-11.03 l -83.094,-46.507 c -3.907,-2.186 -8.845,-0.792 -11.03,3.113 l -99.945,178.569 c -2.183,3.905 -0.789,8.844 3.117,11.029 l 83.095,46.509 c 3.906,2.184 8.844,0.79 11.032,-3.114 z"
             style="fill:#ffffff;fill-opacity:1;fill-rule:nonzero;stroke:none"
             id="path118" /></g><g
           id="g120"
           transform="translate(491.3901,344.0322)"><path
             d="m 0,0 c 2.188,-3.905 0.792,-8.843 -3.115,-11.03 l -83.094,-46.507 c -3.907,-2.186 -8.845,-0.792 -11.03,3.113 l -99.945,178.569 c -2.183,3.905 -0.789,8.844 3.117,11.029 l 83.095,46.509 c 3.906,2.184 8.844,0.79 11.032,-3.114 z"
             style="fill:none;stroke:#1a1a1a;stroke-width:5;stroke-linecap:butt;stroke-linejoin:miter;stroke-miterlimit:10;stroke-dasharray:none;stroke-opacity:1"
             id="path122" /></g><g
           id="g124"
           transform="translate(423.1924,503.2178)"><path
             d="m 0,0 c 2.185,-3.905 0.792,-8.844 -3.112,-11.03 l -114.92,-64.319 c -3.906,-2.186 -8.846,-0.792 -11.031,3.113 l -1.319,2.359 c -2.187,3.905 -0.793,8.844 3.112,11.029 L -12.35,5.471 c 3.907,2.186 8.844,0.793 11.031,-3.113 z"
             style="fill:#ffffff;fill-opacity:1;fill-rule:nonzero;stroke:none"
             id="path126" /></g><g
           id="g128"
           transform="translate(423.1924,503.2178)"><path
             d="m 0,0 c 2.185,-3.905 0.792,-8.844 -3.112,-11.03 l -114.92,-64.319 c -3.906,-2.186 -8.846,-0.792 -11.031,3.113 l -1.319,2.359 c -2.187,3.905 -0.793,8.844 3.112,11.029 L -12.35,5.471 c 3.907,2.186 8.844,0.793 11.031,-3.113 z"
             style="fill:none;stroke:#1a1a1a;stroke-width:5;stroke-linecap:butt;stroke-linejoin:miter;stroke-miterlimit:10;stroke-dasharray:none;stroke-opacity:1"
             id="path130" /></g><g
           id="g132"
           transform="translate(437.3755,477.8774)"><path
             d="m 0,0 c 2.186,-3.906 0.792,-8.845 -3.113,-11.031 l -114.92,-64.319 c -3.906,-2.186 -8.845,-0.792 -11.03,3.114 l -1.319,2.357 c -2.187,3.906 -0.793,8.844 3.112,11.031 L -12.35,5.47 c 3.905,2.187 8.845,0.793 11.031,-3.112 z"
             style="fill:#ffffff;fill-opacity:1;fill-rule:nonzero;stroke:none"
             id="path134" /></g><g
           id="g136"
           transform="translate(437.3755,477.8774)"><path
             d="m 0,0 c 2.186,-3.906 0.792,-8.845 -3.113,-11.031 l -114.92,-64.319 c -3.906,-2.186 -8.845,-0.792 -11.03,3.114 l -1.319,2.357 c -2.187,3.906 -0.793,8.844 3.112,11.031 L -12.35,5.47 c 3.905,2.187 8.845,0.793 11.031,-3.112 z"
             style="fill:none;stroke:#1a1a1a;stroke-width:5;stroke-linecap:butt;stroke-linejoin:miter;stroke-miterlimit:10;stroke-dasharray:none;stroke-opacity:1"
             id="path138" /></g><g
           id="g140"
           transform="translate(450.8989,453.7148)"><path
             d="m 0,0 c 2.188,-3.906 0.791,-8.845 -3.113,-11.03 l -114.921,-64.32 c -3.905,-2.185 -8.844,-0.793 -11.029,3.116 l -1.319,2.356 c -2.188,3.905 -0.791,8.843 3.114,11.03 L -12.35,5.47 c 3.906,2.188 8.844,0.793 11.03,-3.114 z"
             style="fill:#ffffff;fill-opacity:1;fill-rule:nonzero;stroke:none"
             id="path142" /></g><g
           id="g144"
           transform="translate(450.8989,453.7148)"><path
             d="m 0,0 c 2.188,-3.906 0.791,-8.845 -3.113,-11.03 l -114.921,-64.32 c -3.905,-2.185 -8.844,-0.793 -11.029,3.116 l -1.319,2.356 c -2.188,3.905 -0.791,8.843 3.114,11.03 L -12.35,5.47 c 3.906,2.188 8.844,0.793 11.03,-3.114 z"
             style="fill:none;stroke:#1a1a1a;stroke-width:5;stroke-linecap:butt;stroke-linejoin:miter;stroke-miterlimit:10;stroke-dasharray:none;stroke-opacity:1"
             id="path146" /></g><g
           id="g148"
           transform="translate(465.084,428.3726)"><path
             d="m 0,0 c 2.185,-3.904 0.791,-8.844 -3.114,-11.03 l -114.922,-64.319 c -3.903,-2.187 -8.844,-0.793 -11.029,3.113 l -1.319,2.359 c -2.184,3.905 -0.791,8.843 3.114,11.03 L -12.353,5.472 c 3.908,2.186 8.844,0.791 11.034,-3.116 z"
             style="fill:#ffffff;fill-opacity:1;fill-rule:nonzero;stroke:none"
             id="path150" /></g><g
           id="g152"
           transform="translate(465.084,428.3726)"><path
             d="m 0,0 c 2.185,-3.904 0.791,-8.844 -3.114,-11.03 l -114.922,-64.319 c -3.903,-2.187 -8.844,-0.793 -11.029,3.113 l -1.319,2.359 c -2.184,3.905 -0.791,8.843 3.114,11.03 L -12.353,5.472 c 3.908,2.186 8.844,0.791 11.034,-3.116 z"
             style="fill:none;stroke:#1a1a1a;stroke-width:5;stroke-linecap:butt;stroke-linejoin:miter;stroke-miterlimit:10;stroke-dasharray:none;stroke-opacity:1"
             id="path154" /></g><g
           id="g156"
           transform="translate(478.2764,404.8003)"><path
             d="m 0,0 c 2.186,-3.906 0.791,-8.845 -3.115,-11.03 l -114.917,-64.319 c -3.907,-2.187 -8.846,-0.793 -11.031,3.113 l -1.321,2.358 c -2.185,3.905 -0.791,8.843 3.114,11.029 L -12.35,5.47 c 3.906,2.187 8.846,0.793 11.032,-3.114 z"
             style="fill:#ffffff;fill-opacity:1;fill-rule:nonzero;stroke:none"
             id="path158" /></g><g
           id="g160"
           transform="translate(478.2764,404.8003)"><path
             d="m 0,0 c 2.186,-3.906 0.791,-8.845 -3.115,-11.03 l -114.917,-64.319 c -3.907,-2.187 -8.846,-0.793 -11.031,3.113 l -1.321,2.358 c -2.185,3.905 -0.791,8.843 3.114,11.029 L -12.35,5.47 c 3.906,2.187 8.846,0.793 11.032,-3.114 z"
             style="fill:none;stroke:#1a1a1a;stroke-width:5;stroke-linecap:butt;stroke-linejoin:miter;stroke-miterlimit:10;stroke-dasharray:none;stroke-opacity:1"
             id="path162" /></g><g
           id="g164"
           transform="translate(492.46,379.459)"><path
             d="m 0,0 c 2.185,-3.905 0.792,-8.845 -3.115,-11.031 l -114.92,-64.32 c -3.905,-2.185 -8.843,-0.792 -11.03,3.114 l -1.32,2.358 c -2.185,3.905 -0.79,8.845 3.115,11.029 L -12.349,5.47 c 3.906,2.187 8.844,0.793 11.029,-3.114 z"
             style="fill:#ffffff;fill-opacity:1;fill-rule:nonzero;stroke:none"
             id="path166" /></g><g
           id="g168"
           transform="translate(492.46,379.459)"><path
             d="m 0,0 c 2.185,-3.905 0.792,-8.845 -3.115,-11.031 l -114.92,-64.32 c -3.905,-2.185 -8.843,-0.792 -11.03,3.114 l -1.32,2.358 c -2.185,3.905 -0.79,8.845 3.115,11.029 L -12.349,5.47 c 3.906,2.187 8.844,0.793 11.029,-3.114 z"
             style="fill:none;stroke:#1a1a1a;stroke-width:5;stroke-linecap:butt;stroke-linejoin:miter;stroke-miterlimit:10;stroke-dasharray:none;stroke-opacity:1"
             id="path170" /></g><g
           id="g172"
           transform="translate(450.4727,321.7256)"><path
             d="m 0,0 c 2.326,-4.155 1.044,-9.296 -2.859,-11.483 l -2.359,-1.319 c -3.904,-2.185 -8.957,-0.589 -11.283,3.568 L -84.932,113.03 c -2.326,4.156 -1.045,9.297 2.861,11.483 l 2.357,1.32 c 3.905,2.186 8.958,0.589 11.283,-3.566 z"
             style="fill:#ffffff;fill-opacity:1;fill-rule:nonzero;stroke:none"
             id="path174" /></g><g
           id="g176"
           transform="translate(450.4727,321.7256)"><path
             d="m 0,0 c 2.326,-4.155 1.044,-9.296 -2.859,-11.483 l -2.359,-1.319 c -3.904,-2.185 -8.957,-0.589 -11.283,3.568 L -84.932,113.03 c -2.326,4.156 -1.045,9.297 2.861,11.483 l 2.357,1.32 c 3.905,2.186 8.958,0.589 11.283,-3.566 z"
             style="fill:none;stroke:#1a1a1a;stroke-width:5;stroke-linecap:butt;stroke-linejoin:miter;stroke-miterlimit:10;stroke-dasharray:none;stroke-opacity:1"
             id="path178" /></g><g
           id="g180"
           transform="translate(325.3022,488.6743)"><path
             d="m 0,0 c 2.186,-3.905 0.791,-8.844 -3.114,-11.03 l -2.357,-1.319 c -3.904,-2.186 -8.845,-0.791 -11.03,3.114 l -5.607,10.019 c -2.187,3.904 -0.793,8.844 3.112,11.029 l 2.36,1.32 c 3.905,2.186 8.844,0.792 11.029,-3.113 z"
             style="fill:#ffffff;fill-opacity:1;fill-rule:nonzero;stroke:none"
             id="path182" /></g><g
           id="g184"
           transform="translate(325.3022,488.6743)"><path
             d="m 0,0 c 2.186,-3.905 0.791,-8.844 -3.114,-11.03 l -2.357,-1.319 c -3.904,-2.186 -8.845,-0.791 -11.03,3.114 l -5.607,10.019 c -2.187,3.904 -0.793,8.844 3.112,11.029 l 2.36,1.32 c 3.905,2.186 8.844,0.792 11.029,-3.113 z"
             style="fill:none;stroke:#1a1a1a;stroke-width:5;stroke-linecap:butt;stroke-linejoin:miter;stroke-miterlimit:10;stroke-dasharray:none;stroke-opacity:1"
             id="path186" /></g><g
           id="g188"
           transform="translate(372.4487,515.0625)"><path
             d="m 0,0 c 2.185,-3.905 0.791,-8.845 -3.115,-11.031 l -2.356,-1.319 c -3.906,-2.186 -8.843,-0.791 -11.03,3.114 l -5.608,10.018 c -2.185,3.906 -0.792,8.845 3.115,11.031 l 2.358,1.319 c 3.905,2.185 8.843,0.792 11.029,-3.113 z"
             style="fill:#ffffff;fill-opacity:1;fill-rule:nonzero;stroke:none"
             id="path190" /></g><g
           id="g192"
           transform="translate(372.4487,515.0625)"><path
             d="m 0,0 c 2.185,-3.905 0.791,-8.845 -3.115,-11.031 l -2.356,-1.319 c -3.906,-2.186 -8.843,-0.791 -11.03,3.114 l -5.608,10.018 c -2.185,3.906 -0.792,8.845 3.115,11.031 l 2.358,1.319 c 3.905,2.185 8.843,0.792 11.029,-3.113 z"
             style="fill:none;stroke:#1a1a1a;stroke-width:5;stroke-linecap:butt;stroke-linejoin:miter;stroke-miterlimit:10;stroke-dasharray:none;stroke-opacity:1"
             id="path194" /></g><g
           id="g196"
           transform="translate(516.5371,336.4375)"><path
             d="m 0,0 c 2.188,-3.906 0.793,-8.844 -3.112,-11.03 l -114.922,-64.319 c -3.903,-2.187 -8.843,-0.792 -11.029,3.113 l -1.319,2.357 c -2.185,3.905 -0.792,8.845 3.114,11.03 L -12.35,5.471 c 3.908,2.186 8.846,0.792 11.032,-3.115 z"
             style="fill:#ffffff;fill-opacity:1;fill-rule:nonzero;stroke:none"
             id="path198" /></g><g
           id="g200"
           transform="translate(516.5371,336.4375)"><path
             d="m 0,0 c 2.188,-3.906 0.793,-8.844 -3.112,-11.03 l -114.922,-64.319 c -3.903,-2.187 -8.843,-0.792 -11.029,3.113 l -1.319,2.357 c -2.185,3.905 -0.792,8.845 3.114,11.03 L -12.35,5.471 c 3.908,2.186 8.846,0.792 11.032,-3.115 z"
             style="fill:none;stroke:#1a1a1a;stroke-width:5;stroke-linecap:butt;stroke-linejoin:miter;stroke-miterlimit:10;stroke-dasharray:none;stroke-opacity:1"
             id="path202" /></g><g
           id="g204"
           transform="translate(645.7646,271.7187)"><path
             d="m 0,0 -113.138,58.393 c -0.388,0.232 -0.792,0.441 -1.209,0.625 l -0.043,0.023 c -4.307,2.225 -9.391,1.416 -12.925,-1.635 L -243.422,1.247 c -5.928,-2.867 -8.472,-9.875 -5.678,-15.65 l 56.053,-115.882 c 2.795,-5.774 9.864,-8.132 15.793,-5.262 l 34.915,16.888 32.287,-26.187 c 4.984,-4.039 12.385,-3.169 16.532,1.949 l 8.908,10.982 13.048,-6.733 c 5.699,-2.942 12.772,-0.583 15.792,5.271 L 4.851,-15.925 C 7.869,-10.07 5.698,-2.943 0,0"
             style="fill:#ffffff;fill-opacity:1;fill-rule:nonzero;stroke:none"
             id="path206" /></g><g
           id="g208"
           transform="translate(645.7646,271.7187)"><path
             d="m 0,0 -113.138,58.393 c -0.388,0.232 -0.792,0.441 -1.209,0.625 l -0.043,0.023 c -4.307,2.225 -9.391,1.416 -12.925,-1.635 L -243.422,1.247 c -5.928,-2.867 -8.472,-9.875 -5.678,-15.65 l 56.053,-115.882 c 2.795,-5.774 9.864,-8.132 15.793,-5.262 l 34.915,16.888 32.287,-26.187 c 4.984,-4.039 12.385,-3.169 16.532,1.949 l 8.908,10.982 13.048,-6.733 c 5.699,-2.942 12.772,-0.583 15.792,5.271 L 4.851,-15.925 C 7.869,-10.07 5.698,-2.943 0,0 Z"
             style="fill:none;stroke:#1a1a1a;stroke-width:5;stroke-linecap:butt;stroke-linejoin:miter;stroke-miterlimit:10;stroke-dasharray:none;stroke-opacity:1"
             id="path210" /></g><g
           id="g212"
           transform="translate(604.9492,435.4492)"><path
             d="m 0,0 c 0,-45.952 -37.25,-83.203 -83.201,-83.203 -45.952,0 -83.205,37.251 -83.205,83.203 0,45.953 37.253,83.203 83.205,83.203 C -37.25,83.203 0,45.953 0,0"
             style="fill:#ffffff;fill-opacity:1;fill-rule:nonzero;stroke:none"
             id="path214" /></g><g
           id="g216"
           transform="translate(604.9492,435.4492)"><path
             d="m 0,0 c 0,-45.952 -37.25,-83.203 -83.201,-83.203 -45.952,0 -83.205,37.251 -83.205,83.203 0,45.953 37.253,83.203 83.205,83.203 C -37.25,83.203 0,45.953 0,0 Z"
             style="fill:none;stroke:#1a1a1a;stroke-width:5;stroke-linecap:butt;stroke-linejoin:miter;stroke-miterlimit:10;stroke-dasharray:none;stroke-opacity:1"
             id="path218" /></g><g
           id="g220"
           transform="translate(581.959,435.0874)"><path
             d="m 0,0 c 0,33.254 -26.957,60.213 -60.211,60.213 -33.255,0 -60.213,-26.959 -60.213,-60.213 0,-33.254 26.958,-60.212 60.213,-60.212 C -26.957,-60.212 0,-33.254 0,0"
             style="fill:#ffffff;fill-opacity:1;fill-rule:nonzero;stroke:none"
             id="path222" /></g><g
           id="g224"
           transform="translate(581.959,435.0874)"><path
             d="m 0,0 c 0,33.254 -26.957,60.213 -60.211,60.213 -33.255,0 -60.213,-26.959 -60.213,-60.213 0,-33.254 26.958,-60.212 60.213,-60.212 C -26.957,-60.212 0,-33.254 0,0 Z"
             style="fill:none;stroke:#1a1a1a;stroke-width:5;stroke-linecap:butt;stroke-linejoin:miter;stroke-miterlimit:10;stroke-dasharray:none;stroke-opacity:1"
             id="path226" /></g><g
           id="g228"
           transform="translate(539.4043,435.0874)"><path
             d="m 0,0 c 0,9.752 -7.905,17.657 -17.656,17.657 -9.752,0 -17.657,-7.905 -17.657,-17.657 0,-9.751 7.905,-17.657 17.657,-17.657 C -7.905,-17.657 0,-9.751 0,0"
             style="fill:#ffffff;fill-opacity:1;fill-rule:nonzero;stroke:none"
             id="path230" /></g><g
           id="g232"
           transform="translate(539.4043,435.0874)"><path
             d="m 0,0 c 0,9.752 -7.905,17.657 -17.656,17.657 -9.752,0 -17.657,-7.905 -17.657,-17.657 0,-9.751 7.905,-17.657 17.657,-17.657 C -7.905,-17.657 0,-9.751 0,0 Z"
             style="fill:none;stroke:#1a1a1a;stroke-width:5;stroke-linecap:butt;stroke-linejoin:miter;stroke-miterlimit:10;stroke-dasharray:none;stroke-opacity:1"
             id="path234" /></g><g
           id="g236"
           transform="translate(470.3193,220.5078)"><path
             d="M 0,0 C 0,37.101 25.5,67.176 56.958,67.176 88.414,67.176 113.915,37.101 113.915,0"
             style="fill:#ffffff;fill-opacity:1;fill-rule:nonzero;stroke:#1a1a1a;stroke-width:5;stroke-linecap:butt;stroke-linejoin:miter;stroke-miterlimit:10;stroke-dasharray:none;stroke-opacity:1"
             id="path238" /></g><g
           id="g240"
           transform="translate(597.5,119.2949)"><path
             d="M 0,0 C 0,-6.613 -6.473,-11.795 -12.527,-11.795 H -129.441 C -135.493,-11.795 -140,-6.613 -140,0 v 93.802 c 0,6.613 4.507,12.403 10.559,12.403 H -12.527 C -6.473,106.205 0,100.415 0,93.802 Z"
             style="fill:#ffffff;fill-opacity:1;fill-rule:nonzero;stroke:none"
             id="path242" /></g><g
           id="g244"
           transform="translate(597.5,119.2949)"><path
             d="M 0,0 C 0,-6.613 -6.473,-11.795 -12.527,-11.795 H -129.441 C -135.493,-11.795 -140,-6.613 -140,0 v 93.802 c 0,6.613 4.507,12.403 10.559,12.403 H -12.527 C -6.473,106.205 0,100.415 0,93.802 Z"
             style="fill:none;stroke:#1a1a1a;stroke-width:5;stroke-linecap:butt;stroke-linejoin:miter;stroke-miterlimit:10;stroke-dasharray:none;stroke-opacity:1"
             id="path246" /></g><g
           id="g248"
           transform="translate(573.6006,205.6865)"><path
             d="m 0,0 c 0,26.535 -21.514,48.047 -48.051,48.047 -26.536,0 -48.048,-21.512 -48.048,-48.047 0,-26.537 21.512,-48.049 48.048,-48.049 C -21.514,-48.049 0,-26.537 0,0"
             style="fill:#ffffff;fill-opacity:1;fill-rule:nonzero;stroke:none"
             id="path250" /></g><g
           id="g252"
           transform="translate(573.6006,205.6865)"><path
             d="m 0,0 c 0,26.535 -21.514,48.047 -48.051,48.047 -26.536,0 -48.048,-21.512 -48.048,-48.047 0,-26.537 21.512,-48.049 48.048,-48.049 C -21.514,-48.049 0,-26.537 0,0 Z"
             style="fill:none;stroke:#1a1a1a;stroke-width:5;stroke-linecap:butt;stroke-linejoin:miter;stroke-miterlimit:10;stroke-dasharray:none;stroke-opacity:1"
             id="path254" /></g><g
           id="g256"
           transform="translate(559.7266,205.6865)"><path
             d="m 0,0 c 0,-18.875 -15.303,-34.176 -34.177,-34.176 -18.873,0 -34.174,15.301 -34.174,34.176 0,18.873 15.301,34.175 34.174,34.175 C -15.303,34.175 0,18.873 0,0"
             style="fill:#ffffff;fill-opacity:1;fill-rule:nonzero;stroke:none"
             id="path258" /></g><g
           id="g260"
           transform="translate(559.7266,205.6865)"><path
             d="m 0,0 c 0,-18.875 -15.303,-34.176 -34.177,-34.176 -18.873,0 -34.174,15.301 -34.174,34.176 0,18.873 15.301,34.175 34.174,34.175 C -15.303,34.175 0,18.873 0,0 Z"
             style="fill:none;stroke:#1a1a1a;stroke-width:5;stroke-linecap:butt;stroke-linejoin:miter;stroke-miterlimit:10;stroke-dasharray:none;stroke-opacity:1"
             id="path262" /></g><g
           id="g264"
           transform="translate(639.4805,186.7969)"><path
             d="m 0,0 c -2.384,-3.79 -7.385,-4.932 -11.175,-2.55 l -20.588,12.934 c -3.79,2.382 -4.929,7.384 -2.55,11.173 l 24.792,39.459 c 2.378,3.791 7.38,4.931 11.172,2.551 L 22.239,50.633 c 3.788,-2.38 4.932,-7.385 2.552,-11.174 z"
             style="fill:#ffffff;fill-opacity:1;fill-rule:nonzero;stroke:none"
             id="path266" /></g><g
           id="g268"
           transform="translate(639.4805,186.7969)"><path
             d="m 0,0 c -2.384,-3.79 -7.385,-4.932 -11.175,-2.55 l -20.588,12.934 c -3.79,2.382 -4.929,7.384 -2.55,11.173 l 24.792,39.459 c 2.378,3.791 7.38,4.931 11.172,2.551 L 22.239,50.633 c 3.788,-2.38 4.932,-7.385 2.552,-11.174 z"
             style="fill:none;stroke:#1a1a1a;stroke-width:5;stroke-linecap:butt;stroke-linejoin:miter;stroke-miterlimit:10;stroke-dasharray:none;stroke-opacity:1"
             id="path270" /></g><g
           id="g272"
           transform="translate(676.8281,247.4258)"><path
             d="m 0,0 c 0,-14.845 -12.035,-26.878 -26.88,-26.878 -14.843,0 -26.877,12.033 -26.877,26.878 0,14.844 12.034,26.878 26.877,26.878 C -12.035,26.878 0,14.844 0,0"
             style="fill:#ffffff;fill-opacity:1;fill-rule:nonzero;stroke:none"
             id="path274" /></g><g
           id="g276"
           transform="translate(676.8281,247.4258)"><path
             d="m 0,0 c 0,-14.845 -12.035,-26.878 -26.88,-26.878 -14.843,0 -26.877,12.033 -26.877,26.878 0,14.844 12.034,26.878 26.877,26.878 C -12.035,26.878 0,14.844 0,0 Z"
             style="fill:none;stroke:#1a1a1a;stroke-width:5;stroke-linecap:butt;stroke-linejoin:miter;stroke-miterlimit:10;stroke-dasharray:none;stroke-opacity:1"
             id="path278" /></g><g
           id="g280"
           transform="translate(637.9277,212.4502)"><path
             d="m 0,0 c -4.021,-6.35 -9.065,-10.558 -11.262,-9.169 l -5.63,3.565 c -2.194,1.391 -0.628,7.8 3.393,14.152 L 8.348,43.042 c 4.019,6.352 9.061,10.373 11.256,8.983 l 5.63,-3.565 c 2.196,-1.391 0.633,-7.614 -3.388,-13.965 z"
             style="fill:#ffffff;fill-opacity:1;fill-rule:nonzero;stroke:none"
             id="path282" /></g><g
           id="g284"
           transform="translate(637.9277,212.4502)"><path
             d="m 0,0 c -4.021,-6.35 -9.065,-10.558 -11.262,-9.169 l -5.63,3.565 c -2.194,1.391 -0.628,7.8 3.393,14.152 L 8.348,43.042 c 4.019,6.352 9.061,10.373 11.256,8.983 l 5.63,-3.565 c 2.196,-1.391 0.633,-7.614 -3.388,-13.965 z"
             style="fill:none;stroke:#1a1a1a;stroke-width:5;stroke-linecap:butt;stroke-linejoin:miter;stroke-miterlimit:10;stroke-dasharray:none;stroke-opacity:1"
             id="path286" /></g><g
           id="g288"
           transform="translate(618.7031,197.3359)"><path
             d="m 0,0 -0.103,0.15 c -1.96,2.86 -5.134,2.348 -7.09,-0.511 l -45.858,-67.475 h -65.719 c -2.768,0 -4.433,-2.256 -4.433,-6.302 v -0.211 c 0,-4.046 1.665,-7.487 4.433,-7.487 h 66.497 c 1.65,0 3.464,0.123 4.753,2.006 L 0,-10.397 C 1.957,-7.536 1.957,-2.858 0,0"
             style="fill:#ffffff;fill-opacity:1;fill-rule:nonzero;stroke:none"
             id="path290" /></g><g
           id="g292"
           transform="translate(618.7031,197.3359)"><path
             d="m 0,0 -0.103,0.15 c -1.96,2.86 -5.134,2.348 -7.09,-0.511 l -45.858,-67.475 h -65.719 c -2.768,0 -4.433,-2.256 -4.433,-6.302 v -0.211 c 0,-4.046 1.665,-7.487 4.433,-7.487 h 66.497 c 1.65,0 3.464,0.123 4.753,2.006 L 0,-10.397 C 1.957,-7.536 1.957,-2.858 0,0 Z"
             style="fill:none;stroke:#1a1a1a;stroke-width:5;stroke-linecap:butt;stroke-linejoin:miter;stroke-miterlimit:10;stroke-dasharray:none;stroke-opacity:1"
             id="path294" /></g><g
           id="g296"
           transform="translate(464.5,208.7744)"><path
             d="M 0,0 C 0,-6.291 -8.877,-12.274 -18.196,-12.274 H -42.102 C -51.42,-12.274 -59,-6.291 -59,0 v 34.178 c 0,6.291 7.58,12.548 16.898,12.548 h 23.906 C -8.877,46.726 0,40.469 0,34.178 Z"
             style="fill:#ffffff;fill-opacity:1;fill-rule:nonzero;stroke:none"
             id="path298" /></g><g
           id="g300"
           transform="translate(464.5,208.7744)"><path
             d="M 0,0 C 0,-6.291 -8.877,-12.274 -18.196,-12.274 H -42.102 C -51.42,-12.274 -59,-6.291 -59,0 v 34.178 c 0,6.291 7.58,12.548 16.898,12.548 h 23.906 C -8.877,46.726 0,40.469 0,34.178 Z"
             style="fill:none;stroke:#1a1a1a;stroke-width:5;stroke-linecap:butt;stroke-linejoin:miter;stroke-miterlimit:10;stroke-dasharray:none;stroke-opacity:1"
             id="path302" /></g><g
           id="g304"
           transform="translate(455.5,157.123)"><path
             d="M 0,0 C 0,-7.516 -3.112,-12.623 -8.328,-12.623 H -21.71 C -26.927,-12.623 -32,-7.516 -32,0 v 40.831 c 0,7.517 5.073,14.546 10.29,14.546 H -8.328 C -3.112,55.377 0,48.348 0,40.831 Z"
             style="fill:#ffffff;fill-opacity:1;fill-rule:nonzero;stroke:none"
             id="path306" /></g><g
           id="g308"
           transform="translate(455.5,157.123)"><path
             d="M 0,0 C 0,-7.516 -3.112,-12.623 -8.328,-12.623 H -21.71 C -26.927,-12.623 -32,-7.516 -32,0 v 40.831 c 0,7.517 5.073,14.546 10.29,14.546 H -8.328 C -3.112,55.377 0,48.348 0,40.831 Z"
             style="fill:none;stroke:#1a1a1a;stroke-width:5;stroke-linecap:butt;stroke-linejoin:miter;stroke-miterlimit:10;stroke-dasharray:none;stroke-opacity:1"
             id="path310" /></g><g
           id="g312"
           transform="translate(469.5,153.4834)"><path
             d="M 0,0 C 0,-9.323 -1.846,-15.983 -6.321,-15.983 H -17.804 C -22.28,-15.983 -26,-9.323 -26,0 v 50.652 c 0,9.325 3.72,17.365 8.196,17.365 H -6.321 C -1.846,68.017 0,59.977 0,50.652 Z"
             style="fill:#ffffff;fill-opacity:1;fill-rule:nonzero;stroke:none"
             id="path314" /></g><g
           id="g316"
           transform="translate(469.5,153.4834)"><path
             d="M 0,0 C 0,-9.323 -1.846,-15.983 -6.321,-15.983 H -17.804 C -22.28,-15.983 -26,-9.323 -26,0 v 50.652 c 0,9.325 3.72,17.365 8.196,17.365 H -6.321 C -1.846,68.017 0,59.977 0,50.652 Z"
             style="fill:none;stroke:#1a1a1a;stroke-width:5;stroke-linecap:butt;stroke-linejoin:miter;stroke-miterlimit:10;stroke-dasharray:none;stroke-opacity:1"
             id="path318" /></g><g
           id="g320"
           transform="translate(448.5034,254.2139)"><path
             d="m 0,0 c 0,-5.394 -4.371,-9.764 -9.764,-9.764 -5.394,0 -9.764,4.37 -9.764,9.764 0,5.393 4.37,9.765 9.764,9.765 C -4.371,9.765 0,5.393 0,0"
             style="fill:#ffffff;fill-opacity:1;fill-rule:nonzero;stroke:none"
             id="path322" /></g><g
           id="g324"
           transform="translate(448.5034,254.2139)"><path
             d="m 0,0 c 0,-5.394 -4.371,-9.764 -9.764,-9.764 -5.394,0 -9.764,4.37 -9.764,9.764 0,5.393 4.37,9.765 9.764,9.765 C -4.371,9.765 0,5.393 0,0 Z"
             style="fill:none;stroke:#1a1a1a;stroke-width:5;stroke-linecap:butt;stroke-linejoin:miter;stroke-miterlimit:10;stroke-dasharray:none;stroke-opacity:1"
             id="path326" /></g><g
           id="g328"
           transform="translate(414.7354,221.1211)"><path
             d="m 0,0 c 0,-5.393 -4.371,-9.764 -9.762,-9.764 -5.394,0 -9.766,4.371 -9.766,9.764 0,5.393 4.372,9.764 9.766,9.764 C -4.371,9.764 0,5.393 0,0"
             style="fill:#ffffff;fill-opacity:1;fill-rule:nonzero;stroke:none"
             id="path330" /></g><g
           id="g332"
           transform="translate(414.7354,221.1211)"><path
             d="m 0,0 c 0,-5.393 -4.371,-9.764 -9.762,-9.764 -5.394,0 -9.766,4.371 -9.766,9.764 0,5.393 4.372,9.764 9.766,9.764 C -4.371,9.764 0,5.393 0,0 Z"
             style="fill:none;stroke:#1a1a1a;stroke-width:5;stroke-linecap:butt;stroke-linejoin:miter;stroke-miterlimit:10;stroke-dasharray:none;stroke-opacity:1"
             id="path334" /></g><g
           id="g336"
           transform="translate(472.8174,190.7295)"><path
             d="m 0,0 c 0,-5.393 -4.373,-9.764 -9.765,-9.764 -5.393,0 -9.765,4.371 -9.765,9.764 0,5.393 4.372,9.766 9.765,9.766 C -4.373,9.766 0,5.393 0,0"
             style="fill:#ffffff;fill-opacity:1;fill-rule:nonzero;stroke:none"
             id="path338" /></g><g
           id="g340"
           transform="translate(472.8174,190.7295)"><path
             d="m 0,0 c 0,-5.393 -4.373,-9.764 -9.765,-9.764 -5.393,0 -9.765,4.371 -9.765,9.764 0,5.393 4.372,9.766 9.765,9.766 C -4.373,9.766 0,5.393 0,0 Z"
             style="fill:none;stroke:#1a1a1a;stroke-width:5;stroke-linecap:butt;stroke-linejoin:miter;stroke-miterlimit:10;stroke-dasharray:none;stroke-opacity:1"
             id="path342" /></g><g
           id="g344"
           transform="translate(600.459,200.1846)"><path
             d="m 0,0 c 0,-5.393 -4.371,-9.764 -9.765,-9.764 -5.392,0 -9.763,4.371 -9.763,9.764 0,5.394 4.371,9.765 9.763,9.765 C -4.371,9.765 0,5.394 0,0"
             style="fill:#ffffff;fill-opacity:1;fill-rule:nonzero;stroke:none"
             id="path346" /></g><g
           id="g348"
           transform="translate(600.459,200.1846)"><path
             d="m 0,0 c 0,-5.393 -4.371,-9.764 -9.765,-9.764 -5.392,0 -9.763,4.371 -9.763,9.764 0,5.394 4.371,9.765 9.763,9.765 C -4.371,9.765 0,5.394 0,0 Z"
             style="fill:none;stroke:#1a1a1a;stroke-width:5;stroke-linecap:butt;stroke-linejoin:miter;stroke-miterlimit:10;stroke-dasharray:none;stroke-opacity:1"
             id="path350" /></g><g
           id="g352"
           transform="translate(467.4131,102.2588)"><path
             d="m 0,0 c 0,-5.393 -4.371,-9.765 -9.765,-9.765 -5.392,0 -9.763,4.372 -9.763,9.765 0,5.393 4.371,9.764 9.763,9.764 C -4.371,9.764 0,5.393 0,0"
             style="fill:#ffffff;fill-opacity:1;fill-rule:nonzero;stroke:none"
             id="path354" /></g><g
           id="g356"
           transform="translate(467.4131,102.2588)"><path
             d="m 0,0 c 0,-5.393 -4.371,-9.765 -9.765,-9.765 -5.392,0 -9.763,4.372 -9.763,9.765 0,5.393 4.371,9.764 9.763,9.764 C -4.371,9.764 0,5.393 0,0 Z"
             style="fill:none;stroke:#1a1a1a;stroke-width:5;stroke-linecap:butt;stroke-linejoin:miter;stroke-miterlimit:10;stroke-dasharray:none;stroke-opacity:1"
             id="path358" /></g></g></g></g></svg>
