<svg height='100px' width='100px'  fill="#000000" xmlns="http://www.w3.org/2000/svg" data-name="Layer 1" viewBox="0 0 64 64" x="0px" y="0px"><title>brake-clutch-fluid-lubricant-oil-car-maintenance-automotive</title><path d="M58.709,21.1,41.975,15.018A3.011,3.011,0,0,1,40,12.2V3a1,1,0,0,0-1-1H27a1,1,0,0,0-1,1V23.12l-4-4.5V13a1,1,0,0,0-1-1H11a1,1,0,0,0-1,1v5.62L3.264,26.2A4.988,4.988,0,0,0,2,29.521V61a1,1,0,0,0,1,1H61a1,1,0,0,0,1-1V25.8A5.014,5.014,0,0,0,58.709,21.1ZM38,10H36V4h2Zm-6,0V4h2v6ZM28,4h2v6H28ZM12,14h8v4H12ZM28,60H4V29.521a3,3,0,0,1,.758-1.993L11.449,20h9.1l6.691,7.528A3,3,0,0,1,28,29.521Zm32,0H30V29.521A4.988,4.988,0,0,0,28.736,26.2L28,25.37V12H38v.2a5.014,5.014,0,0,0,3.291,4.7l16.734,6.085A3.011,3.011,0,0,1,60,25.8Z"></path><path d="M54,27H35a3,3,0,0,0-3,3V52a3,3,0,0,0,3,3H54a3,3,0,0,0,3-3V30A3,3,0,0,0,54,27ZM34,52V30a1,1,0,0,1,1-1H54a1,1,0,0,1,1,1v5.481A12.865,12.865,0,0,0,49,34,13.015,13.015,0,0,0,36,47a12.857,12.857,0,0,0,1.482,6H35A1,1,0,0,1,34,52Zm20,1H39.8A10.9,10.9,0,0,1,38,47,11.013,11.013,0,0,1,49,36a10.893,10.893,0,0,1,6,1.8V52A1,1,0,0,1,54,53Z"></path><path d="M25,31H7a1,1,0,0,0-1,1V56a1,1,0,0,0,1,1H25a1,1,0,0,0,1-1V32A1,1,0,0,0,25,31ZM24,55H8V33H24Z"></path><path d="M49,43a4,4,0,1,0,4,4A4,4,0,0,0,49,43Zm0,6a2,2,0,1,1,2-2A2,2,0,0,1,49,49Z"></path><rect x="10" y="47" width="12" height="2"></rect></svg>