<?xml version="1.0" encoding="UTF-8" standalone="no"?>
<svg
   xmlns:dc="http://purl.org/dc/elements/1.1/"
   xmlns:cc="http://creativecommons.org/ns#"
   xmlns:rdf="http://www.w3.org/1999/02/22-rdf-syntax-ns#"
   xmlns:svg="http://www.w3.org/2000/svg"
   xmlns="http://www.w3.org/2000/svg"
   xmlns:sodipodi="http://sodipodi.sourceforge.net/DTD/sodipodi-0.dtd"
   xmlns:inkscape="http://www.inkscape.org/namespaces/inkscape"
   version="1.1"
   id="svg2"
   xml:space="preserve"
   width="1365.3333"
   height="1024"
   viewBox="0 0 1365.3333 1024"
   sodipodi:docname="truckengine.ai"><metadata
     id="metadata8"><rdf:RDF><cc:Work
         rdf:about=""><dc:format>image/svg+xml</dc:format><dc:type
           rdf:resource="http://purl.org/dc/dcmitype/StillImage" /></cc:Work></rdf:RDF></metadata><defs
     id="defs6"><clipPath
       clipPathUnits="userSpaceOnUse"
       id="clipPath18"><path
         d="M 0,768 H 1024 V 0 H 0 Z"
         id="path16" /></clipPath></defs><sodipodi:namedview
     pagecolor="#ffffff"
     bordercolor="#666666"
     borderopacity="1"
     objecttolerance="10"
     gridtolerance="10"
     guidetolerance="10"
     inkscape:pageopacity="0"
     inkscape:pageshadow="2"
     inkscape:window-width="640"
     inkscape:window-height="480"
     id="namedview4" /><g
     id="g10"
     inkscape:groupmode="layer"
     inkscape:label="truckengine"
     transform="matrix(1.3333333,0,0,-1.3333333,0,1024)"><g
       id="g12"><g
         id="g14"
         clip-path="url(#clipPath18)"><g
           id="g20"
           transform="translate(323.5,137.6934)"><path
             d="M 0,0 C 0,-8.271 -6.127,-15.193 -13.177,-15.193 H -58.11 C -65.16,-15.193 -71,-8.271 -71,0 v 110.213 c 0,8.269 5.84,14.594 12.89,14.594 h 44.933 C -6.127,124.807 0,118.482 0,110.213 Z"
             style="fill:#ffffff;fill-opacity:1;fill-rule:nonzero;stroke:none"
             id="path22" /></g><g
           id="g24"
           transform="translate(323.5,137.6934)"><path
             d="M 0,0 C 0,-8.271 -6.127,-15.193 -13.177,-15.193 H -58.11 C -65.16,-15.193 -71,-8.271 -71,0 v 110.213 c 0,8.269 5.84,14.594 12.89,14.594 h 44.933 C -6.127,124.807 0,118.482 0,110.213 Z"
             style="fill:none;stroke:#1a1a1a;stroke-width:5;stroke-linecap:butt;stroke-linejoin:miter;stroke-miterlimit:10;stroke-dasharray:none;stroke-opacity:1"
             id="path26" /></g><g
           id="g28"
           transform="translate(267.5,159.9541)"><path
             d="M 0,0 C 0,-4.907 0.341,-8.454 0.217,-8.454 H -0.575 C -0.7,-8.454 -1,-4.907 -1,0 v 65.397 c 0,4.907 0.3,9.149 0.425,9.149 H 0.217 C 0.341,74.546 0,70.304 0,65.397 Z"
             style="fill:#ffffff;fill-opacity:1;fill-rule:nonzero;stroke:none"
             id="path30" /></g><g
           id="g32"
           transform="translate(267.5,159.9541)"><path
             d="M 0,0 C 0,-4.907 0.341,-8.454 0.217,-8.454 H -0.575 C -0.7,-8.454 -1,-4.907 -1,0 v 65.397 c 0,4.907 0.3,9.149 0.425,9.149 H 0.217 C 0.341,74.546 0,70.304 0,65.397 Z"
             style="fill:none;stroke:#1a1a1a;stroke-width:5;stroke-linecap:butt;stroke-linejoin:miter;stroke-miterlimit:10;stroke-dasharray:none;stroke-opacity:1"
             id="path34" /></g><g
           id="g36"
           transform="translate(286.5,135.4453)"><path
             d="M 0,0 C 0,-4.907 0.232,-7.945 0.108,-7.945 H -0.683 C -0.807,-7.945 -1,-4.907 -1,0 v 65.396 c 0,4.908 0.193,8.659 0.317,8.659 H 0.108 C 0.232,74.055 0,70.304 0,65.396 Z"
             style="fill:#ffffff;fill-opacity:1;fill-rule:nonzero;stroke:none"
             id="path38" /></g><g
           id="g40"
           transform="translate(286.5,135.4453)"><path
             d="M 0,0 C 0,-4.907 0.232,-7.945 0.108,-7.945 H -0.683 C -0.807,-7.945 -1,-4.907 -1,0 v 65.396 c 0,4.908 0.193,8.659 0.317,8.659 H 0.108 C 0.232,74.055 0,70.304 0,65.396 Z"
             style="fill:none;stroke:#1a1a1a;stroke-width:5;stroke-linecap:butt;stroke-linejoin:miter;stroke-miterlimit:10;stroke-dasharray:none;stroke-opacity:1"
             id="path42" /></g><g
           id="g44"
           transform="translate(306.5,160.9756)"><path
             d="M 0,0 C 0,-4.907 0.146,-8.476 0.022,-8.476 H -0.769 C -0.894,-8.476 -1,-4.907 -1,0 v 65.396 c 0,4.908 0.106,9.128 0.231,9.128 H 0.022 C 0.146,74.524 0,70.304 0,65.396 Z"
             style="fill:#ffffff;fill-opacity:1;fill-rule:nonzero;stroke:none"
             id="path46" /></g><g
           id="g48"
           transform="translate(306.5,160.9756)"><path
             d="M 0,0 C 0,-4.907 0.146,-8.476 0.022,-8.476 H -0.769 C -0.894,-8.476 -1,-4.907 -1,0 v 65.396 c 0,4.908 0.106,9.128 0.231,9.128 H 0.022 C 0.146,74.524 0,70.304 0,65.396 Z"
             style="fill:none;stroke:#1a1a1a;stroke-width:5;stroke-linecap:butt;stroke-linejoin:miter;stroke-miterlimit:10;stroke-dasharray:none;stroke-opacity:1"
             id="path50" /></g><g
           id="g52"
           transform="translate(757.5,133.6084)"><path
             d="M 0,0 C 0,-8.27 -5.599,-15.108 -12.648,-15.108 H -57.582 C -64.631,-15.108 -70,-8.27 -70,0 v 110.213 c 0,8.269 5.369,14.679 12.418,14.679 h 44.934 C -5.599,124.892 0,118.482 0,110.213 Z"
             style="fill:#ffffff;fill-opacity:1;fill-rule:nonzero;stroke:none"
             id="path54" /></g><g
           id="g56"
           transform="translate(757.5,133.6084)"><path
             d="M 0,0 C 0,-8.27 -5.599,-15.108 -12.648,-15.108 H -57.582 C -64.631,-15.108 -70,-8.27 -70,0 v 110.213 c 0,8.269 5.369,14.679 12.418,14.679 h 44.934 C -5.599,124.892 0,118.482 0,110.213 Z"
             style="fill:none;stroke:#1a1a1a;stroke-width:5;stroke-linecap:butt;stroke-linejoin:miter;stroke-miterlimit:10;stroke-dasharray:none;stroke-opacity:1"
             id="path58" /></g><g
           id="g60"
           transform="translate(702.5,155.8691)"><path
             d="m 0,0 c 0,-4.907 -0.132,-8.369 -0.256,-8.369 h -0.79 C -1.172,-8.369 -2,-4.907 -2,0 v 65.396 c 0,4.909 0.828,8.235 0.954,8.235 h 0.79 C -0.132,73.631 0,70.305 0,65.396 Z"
             style="fill:#ffffff;fill-opacity:1;fill-rule:nonzero;stroke:none"
             id="path62" /></g><g
           id="g64"
           transform="translate(702.5,155.8691)"><path
             d="m 0,0 c 0,-4.907 -0.132,-8.369 -0.256,-8.369 h -0.79 C -1.172,-8.369 -2,-4.907 -2,0 v 65.396 c 0,4.909 0.828,8.235 0.954,8.235 h 0.79 C -0.132,73.631 0,70.305 0,65.396 Z"
             style="fill:none;stroke:#1a1a1a;stroke-width:5;stroke-linecap:butt;stroke-linejoin:miter;stroke-miterlimit:10;stroke-dasharray:none;stroke-opacity:1"
             id="path66" /></g><g
           id="g68"
           transform="translate(721.5,131.3604)"><path
             d="M 0,0 C 0,-4.907 -0.239,-8.86 -0.362,-8.86 H -1.154 C -1.279,-8.86 -2,-4.907 -2,0 v 65.396 c 0,4.908 0.721,8.744 0.846,8.744 h 0.792 C -0.239,74.14 0,70.304 0,65.396 Z"
             style="fill:#ffffff;fill-opacity:1;fill-rule:nonzero;stroke:none"
             id="path70" /></g><g
           id="g72"
           transform="translate(721.5,131.3604)"><path
             d="M 0,0 C 0,-4.907 -0.239,-8.86 -0.362,-8.86 H -1.154 C -1.279,-8.86 -2,-4.907 -2,0 v 65.396 c 0,4.908 0.721,8.744 0.846,8.744 h 0.792 C -0.239,74.14 0,70.304 0,65.396 Z"
             style="fill:none;stroke:#1a1a1a;stroke-width:5;stroke-linecap:butt;stroke-linejoin:miter;stroke-miterlimit:10;stroke-dasharray:none;stroke-opacity:1"
             id="path74" /></g><g
           id="g76"
           transform="translate(741.5,156.8906)"><path
             d="M 0,0 C 0,-4.907 -0.325,-8.391 -0.449,-8.391 H -1.24 C -1.365,-8.391 -1,-4.907 -1,0 v 65.397 c 0,4.907 -0.365,9.212 -0.24,9.212 h 0.791 C -0.325,74.609 0,70.304 0,65.397 Z"
             style="fill:#ffffff;fill-opacity:1;fill-rule:nonzero;stroke:none"
             id="path78" /></g><g
           id="g80"
           transform="translate(741.5,156.8906)"><path
             d="M 0,0 C 0,-4.907 -0.325,-8.391 -0.449,-8.391 H -1.24 C -1.365,-8.391 -1,-4.907 -1,0 v 65.397 c 0,4.907 -0.365,9.212 -0.24,9.212 h 0.791 C -0.325,74.609 0,70.304 0,65.397 Z"
             style="fill:none;stroke:#1a1a1a;stroke-width:5;stroke-linecap:butt;stroke-linejoin:miter;stroke-miterlimit:10;stroke-dasharray:none;stroke-opacity:1"
             id="path82" /></g><g
           id="g84"
           transform="translate(312.5,488.5239)"><path
             d="M 0,0 C 0,-4.346 -6.712,-8.024 -14.825,-8.024 H -60.758 C -68.871,-8.024 -76,-4.346 -76,0 v 0.093 c 0,4.345 7.129,7.883 15.242,7.883 h 45.933 C -6.712,7.976 0,4.438 0,0.093 Z"
             style="fill:#ffffff;fill-opacity:1;fill-rule:nonzero;stroke:none"
             id="path86" /></g><g
           id="g88"
           transform="translate(312.5,488.5239)"><path
             d="M 0,0 C 0,-4.346 -6.712,-8.024 -14.825,-8.024 H -60.758 C -68.871,-8.024 -76,-4.346 -76,0 v 0.093 c 0,4.345 7.129,7.883 15.242,7.883 h 45.933 C -6.712,7.976 0,4.438 0,0.093 Z"
             style="fill:none;stroke:#1a1a1a;stroke-width:5;stroke-linecap:butt;stroke-linejoin:miter;stroke-miterlimit:10;stroke-dasharray:none;stroke-opacity:1"
             id="path90" /></g><g
           id="g92"
           transform="translate(317.5,469.1206)"><path
             d="M 0,0 C 0,-4.346 -7.483,-7.621 -16.995,-7.621 H -70.842 C -80.353,-7.621 -88,-4.346 -88,0 v 0.093 c 0,4.345 7.647,7.286 17.158,7.286 h 53.847 C -7.483,7.379 0,4.438 0,0.093 Z"
             style="fill:#ffffff;fill-opacity:1;fill-rule:nonzero;stroke:none"
             id="path94" /></g><g
           id="g96"
           transform="translate(317.5,469.1206)"><path
             d="M 0,0 C 0,-4.346 -7.483,-7.621 -16.995,-7.621 H -70.842 C -80.353,-7.621 -88,-4.346 -88,0 v 0.093 c 0,4.345 7.647,7.286 17.158,7.286 h 53.847 C -7.483,7.379 0,4.438 0,0.093 Z"
             style="fill:none;stroke:#1a1a1a;stroke-width:5;stroke-linecap:butt;stroke-linejoin:miter;stroke-miterlimit:10;stroke-dasharray:none;stroke-opacity:1"
             id="path98" /></g><g
           id="g100"
           transform="translate(706.5,481.8857)"><path
             d="m 0,0 c 0,-4.346 6.224,-8.386 14.053,-8.386 h 44.32 C 66.203,-8.386 72,-4.346 72,0 V 0.093 C 72,4.438 66.203,7.614 58.373,7.614 H 14.053 C 6.224,7.614 0,4.438 0,0.093 Z"
             style="fill:#ffffff;fill-opacity:1;fill-rule:nonzero;stroke:none"
             id="path102" /></g><g
           id="g104"
           transform="translate(706.5,481.8857)"><path
             d="m 0,0 c 0,-4.346 6.224,-8.386 14.053,-8.386 h 44.32 C 66.203,-8.386 72,-4.346 72,0 V 0.093 C 72,4.438 66.203,7.614 58.373,7.614 H 14.053 C 6.224,7.614 0,4.438 0,0.093 Z"
             style="fill:none;stroke:#1a1a1a;stroke-width:5;stroke-linecap:butt;stroke-linejoin:miter;stroke-miterlimit:10;stroke-dasharray:none;stroke-opacity:1"
             id="path106" /></g><g
           id="g108"
           transform="translate(701.5,462.4824)"><path
             d="M 0,0 C 0,-4.346 7.145,-7.982 16.321,-7.982 H 68.279 C 77.457,-7.982 85,-4.346 85,0 V 0.093 C 85,4.438 77.457,8.018 68.279,8.018 H 16.321 C 7.145,8.018 0,4.438 0,0.093 Z"
             style="fill:#ffffff;fill-opacity:1;fill-rule:nonzero;stroke:none"
             id="path110" /></g><g
           id="g112"
           transform="translate(701.5,462.4824)"><path
             d="M 0,0 C 0,-4.346 7.145,-7.982 16.321,-7.982 H 68.279 C 77.457,-7.982 85,-4.346 85,0 V 0.093 C 85,4.438 77.457,8.018 68.279,8.018 H 16.321 C 7.145,8.018 0,4.438 0,0.093 Z"
             style="fill:none;stroke:#1a1a1a;stroke-width:5;stroke-linecap:butt;stroke-linejoin:miter;stroke-miterlimit:10;stroke-dasharray:none;stroke-opacity:1"
             id="path114" /></g><g
           id="g116"
           transform="translate(738.7246,440.5713)"><path
             d="m 0,0 c 0,-1.649 -6.602,-3.071 -14.746,-3.071 h -440.013 c -8.143,0 -14.746,1.422 -14.746,3.071 l 33.62,38.811 c 0,1.648 6.603,3.118 14.746,3.118 h 383.39 c 8.144,0 14.746,-1.47 14.746,-3.118 z"
             style="fill:#ffffff;fill-opacity:1;fill-rule:nonzero;stroke:none"
             id="path118" /></g><g
           id="g120"
           transform="translate(738.7246,440.5713)"><path
             d="m 0,0 c 0,-1.649 -6.602,-3.071 -14.746,-3.071 h -440.013 c -8.143,0 -14.746,1.422 -14.746,3.071 l 33.62,38.811 c 0,1.648 6.603,3.118 14.746,3.118 h 383.39 c 8.144,0 14.746,-1.47 14.746,-3.118 z"
             style="fill:none;stroke:#1a1a1a;stroke-width:5;stroke-linecap:butt;stroke-linejoin:miter;stroke-miterlimit:10;stroke-dasharray:none;stroke-opacity:1"
             id="path122" /></g><g
           id="g124"
           transform="translate(686.1328,272.5)"><path
             d="m 0,0 c 0,-10.998 -4.573,-20 -10.213,-20 h -328.321 c -5.641,0 -10.213,9.002 -10.213,20 0,10.998 4.572,20 10.213,20 H -10.213 C -4.573,20 0,10.998 0,0"
             style="fill:#ffffff;fill-opacity:1;fill-rule:nonzero;stroke:none"
             id="path126" /></g><g
           id="g128"
           transform="translate(686.1328,272.5)"><path
             d="m 0,0 c 0,-10.998 -4.573,-20 -10.213,-20 h -328.321 c -5.641,0 -10.213,9.002 -10.213,20 0,10.998 4.572,20 10.213,20 H -10.213 C -4.573,20 0,10.998 0,0 Z"
             style="fill:none;stroke:#1a1a1a;stroke-width:5;stroke-linecap:butt;stroke-linejoin:miter;stroke-miterlimit:10;stroke-dasharray:none;stroke-opacity:1"
             id="path130" /></g><g
           id="g132"
           transform="translate(754.5,300.584)"><path
             d="m 0,0 c 0,-10.899 -5.151,-20.084 -12.201,-20.084 h -479.972 c -7.05,0 -12.827,9.185 -12.827,20.084 v 119.997 c 0,10.9 5.777,19.919 12.827,19.919 H -12.201 C -5.151,139.916 0,130.897 0,119.997 Z"
             style="fill:#ffffff;fill-opacity:1;fill-rule:nonzero;stroke:none"
             id="path134" /></g><g
           id="g136"
           transform="translate(754.5,300.584)"><path
             d="m 0,0 c 0,-10.899 -5.151,-20.084 -12.201,-20.084 h -479.972 c -7.05,0 -12.827,9.185 -12.827,20.084 v 119.997 c 0,10.9 5.777,19.919 12.827,19.919 H -12.201 C -5.151,139.916 0,130.897 0,119.997 Z"
             style="fill:none;stroke:#1a1a1a;stroke-width:5;stroke-linecap:butt;stroke-linejoin:miter;stroke-miterlimit:10;stroke-dasharray:none;stroke-opacity:1"
             id="path138" /></g><g
           id="g140"
           transform="translate(686.5,390.2651)"><path
             d="m 0,0 c 0,-7.05 -5.715,-12.765 -12.765,-12.765 h -331.47 C -351.285,-12.765 -357,-7.05 -357,0 v 10.47 c 0,7.05 5.715,12.765 12.765,12.765 h 331.47 C -5.715,23.235 0,17.52 0,10.47 Z"
             style="fill:#ffffff;fill-opacity:1;fill-rule:nonzero;stroke:none"
             id="path142" /></g><g
           id="g144"
           transform="translate(686.5,390.2651)"><path
             d="m 0,0 c 0,-7.05 -5.715,-12.765 -12.765,-12.765 h -331.47 C -351.285,-12.765 -357,-7.05 -357,0 v 10.47 c 0,7.05 5.715,12.765 12.765,12.765 h 331.47 C -5.715,23.235 0,17.52 0,10.47 Z"
             style="fill:none;stroke:#1a1a1a;stroke-width:5;stroke-linecap:butt;stroke-linejoin:miter;stroke-miterlimit:10;stroke-dasharray:none;stroke-opacity:1"
             id="path146" /></g><g
           id="g148"
           transform="translate(686.5,351.2646)"><path
             d="m 0,0 c 0,-7.05 -5.715,-12.765 -12.765,-12.765 h -331.47 C -351.285,-12.765 -357,-7.05 -357,0 v 10.471 c 0,7.05 5.715,12.764 12.765,12.764 h 331.47 C -5.715,23.235 0,17.521 0,10.471 Z"
             style="fill:#ffffff;fill-opacity:1;fill-rule:nonzero;stroke:none"
             id="path150" /></g><g
           id="g152"
           transform="translate(686.5,351.2646)"><path
             d="m 0,0 c 0,-7.05 -5.715,-12.765 -12.765,-12.765 h -331.47 C -351.285,-12.765 -357,-7.05 -357,0 v 10.471 c 0,7.05 5.715,12.764 12.765,12.764 h 331.47 C -5.715,23.235 0,17.521 0,10.471 Z"
             style="fill:none;stroke:#1a1a1a;stroke-width:5;stroke-linecap:butt;stroke-linejoin:miter;stroke-miterlimit:10;stroke-dasharray:none;stroke-opacity:1"
             id="path154" /></g><g
           id="g156"
           transform="translate(554.6504,374.5244)"><path
             d="m 0,0 c 0,-11.886 -21.261,-21.521 -47.486,-21.521 -26.227,0 -47.488,9.635 -47.488,21.521 0,11.886 21.261,21.521 47.488,21.521 C -21.261,21.521 0,11.886 0,0"
             style="fill:#ffffff;fill-opacity:1;fill-rule:nonzero;stroke:none"
             id="path158" /></g><g
           id="g160"
           transform="translate(554.6504,374.5244)"><path
             d="m 0,0 c 0,-11.886 -21.261,-21.521 -47.486,-21.521 -26.227,0 -47.488,9.635 -47.488,21.521 0,11.886 21.261,21.521 47.488,21.521 C -21.261,21.521 0,11.886 0,0 Z"
             style="fill:none;stroke:#1a1a1a;stroke-width:5;stroke-linecap:butt;stroke-linejoin:miter;stroke-miterlimit:10;stroke-dasharray:none;stroke-opacity:1"
             id="path162" /></g><g
           id="g164"
           transform="translate(342.2373,339.5)"><path
             d="M 0,0 C -7.05,0 -12.737,4.302 -12.737,9.31 V 66.253 C -12.737,71.261 -7.05,75 0,75 h 13.263 v 3.606 C 13.263,85.656 8.07,91 1.021,91 h -61.273 c -7.05,0 -12.485,-5.344 -12.485,-12.394 V -1.56 c 0,-7.049 5.435,-12.44 12.485,-12.44 H 1.021 c 7.049,0 12.242,5.391 12.242,12.44 l 0,1.56 z"
             style="fill:#ffffff;fill-opacity:1;fill-rule:nonzero;stroke:none"
             id="path166" /></g><g
           id="g168"
           transform="translate(342.2373,339.5)"><path
             d="M 0,0 C -7.05,0 -12.737,4.302 -12.737,9.31 V 66.253 C -12.737,71.261 -7.05,75 0,75 h 13.263 v 3.606 C 13.263,85.656 8.07,91 1.021,91 h -61.273 c -7.05,0 -12.485,-5.344 -12.485,-12.394 V -1.56 c 0,-7.049 5.435,-12.44 12.485,-12.44 H 1.021 c 7.049,0 12.242,5.391 12.242,12.44 l 0,1.56 z"
             style="fill:none;stroke:#1a1a1a;stroke-width:5;stroke-linecap:butt;stroke-linejoin:miter;stroke-miterlimit:10;stroke-dasharray:none;stroke-opacity:1"
             id="path170" /></g><g
           id="g172"
           transform="translate(344.5,254.2666)"><path
             d="M 0,0 C 0,-7.051 -5.716,-12.767 -12.766,-12.767 H -74.234 C -81.285,-12.767 -87,-7.051 -87,0 v 50.467 c 0,7.051 5.715,12.766 12.766,12.766 h 61.468 C -5.716,63.233 0,57.518 0,50.467 Z"
             style="fill:#ffffff;fill-opacity:1;fill-rule:nonzero;stroke:none"
             id="path174" /></g><g
           id="g176"
           transform="translate(344.5,254.2666)"><path
             d="M 0,0 C 0,-7.051 -5.716,-12.767 -12.766,-12.767 H -74.234 C -81.285,-12.767 -87,-7.051 -87,0 v 50.467 c 0,7.051 5.715,12.766 12.766,12.766 h 61.468 C -5.716,63.233 0,57.518 0,50.467 Z"
             style="fill:none;stroke:#1a1a1a;stroke-width:5;stroke-linecap:butt;stroke-linejoin:miter;stroke-miterlimit:10;stroke-dasharray:none;stroke-opacity:1"
             id="path178" /></g><g
           id="g180"
           transform="translate(678.5,301.4971)"><path
             d="m 0,0 c 0,-5.521 -4.476,-9.997 -9.997,-9.997 h -329.006 c -5.521,0 -9.997,4.476 -9.997,9.997 v 0.006 c 0,5.521 4.476,9.997 9.997,9.997 H -9.997 C -4.476,10.003 0,5.527 0,0.006 Z"
             style="fill:#ffffff;fill-opacity:1;fill-rule:nonzero;stroke:none"
             id="path182" /></g><g
           id="g184"
           transform="translate(678.5,301.4971)"><path
             d="m 0,0 c 0,-5.521 -4.476,-9.997 -9.997,-9.997 h -329.006 c -5.521,0 -9.997,4.476 -9.997,9.997 v 0.006 c 0,5.521 4.476,9.997 9.997,9.997 H -9.997 C -4.476,10.003 0,5.527 0,0.006 Z"
             style="fill:none;stroke:#1a1a1a;stroke-width:5;stroke-linecap:butt;stroke-linejoin:miter;stroke-miterlimit:10;stroke-dasharray:none;stroke-opacity:1"
             id="path186" /></g><g
           id="g188"
           transform="translate(677.4512,247.5)"><path
             d="m 0,0 c 0,-2.82 -4.572,-5 -10.212,-5 h -328.321 c -5.641,0 -10.212,2.18 -10.212,5 0,2.82 4.571,5 10.212,5 H -10.212 C -4.572,5 0,2.82 0,0"
             style="fill:#ffffff;fill-opacity:1;fill-rule:nonzero;stroke:none"
             id="path190" /></g><g
           id="g192"
           transform="translate(677.4512,247.5)"><path
             d="m 0,0 c 0,-2.82 -4.572,-5 -10.212,-5 h -328.321 c -5.641,0 -10.212,2.18 -10.212,5 0,2.82 4.571,5 10.212,5 H -10.212 C -4.572,5 0,2.82 0,0 Z"
             style="fill:none;stroke:#1a1a1a;stroke-width:5;stroke-linecap:butt;stroke-linejoin:miter;stroke-miterlimit:10;stroke-dasharray:none;stroke-opacity:1"
             id="path194" /></g><g
           id="g196"
           transform="translate(752.5,254.2666)"><path
             d="m 0,0 c 0,-7.051 -5.715,-12.767 -12.765,-12.767 h -61.47 C -81.285,-12.767 -87,-7.051 -87,0 v 50.467 c 0,7.051 5.715,12.766 12.765,12.766 h 61.47 C -5.715,63.233 0,57.518 0,50.467 Z"
             style="fill:#ffffff;fill-opacity:1;fill-rule:nonzero;stroke:none"
             id="path198" /></g><g
           id="g200"
           transform="translate(752.5,254.2666)"><path
             d="m 0,0 c 0,-7.051 -5.715,-12.767 -12.765,-12.767 h -61.47 C -81.285,-12.767 -87,-7.051 -87,0 v 50.467 c 0,7.051 5.715,12.766 12.765,12.766 h 61.47 C -5.715,63.233 0,57.518 0,50.467 Z"
             style="fill:none;stroke:#1a1a1a;stroke-width:5;stroke-linecap:butt;stroke-linejoin:miter;stroke-miterlimit:10;stroke-dasharray:none;stroke-opacity:1"
             id="path202" /></g><g
           id="g204"
           transform="translate(405.5,274.5)"><path
             d="m 0,0 c 0,-2.762 -2.238,-5 -5,-5 h -23 c -2.762,0 -5,2.238 -5,5 0,2.762 2.238,5 5,5 H -5 C -2.238,5 0,2.762 0,0"
             style="fill:#ffffff;fill-opacity:1;fill-rule:nonzero;stroke:none"
             id="path206" /></g><g
           id="g208"
           transform="translate(405.5,274.5)"><path
             d="m 0,0 c 0,-2.762 -2.238,-5 -5,-5 h -23 c -2.762,0 -5,2.238 -5,5 0,2.762 2.238,5 5,5 H -5 C -2.238,5 0,2.762 0,0 Z"
             style="fill:none;stroke:#1a1a1a;stroke-width:5;stroke-linecap:butt;stroke-linejoin:miter;stroke-miterlimit:10;stroke-dasharray:none;stroke-opacity:1"
             id="path210" /></g><g
           id="g212"
           transform="translate(638.5,274.5)"><path
             d="m 0,0 c 0,-2.762 -2.238,-5 -5,-5 h -23 c -2.762,0 -5,2.238 -5,5 0,2.762 2.238,5 5,5 H -5 C -2.238,5 0,2.762 0,0"
             style="fill:#ffffff;fill-opacity:1;fill-rule:nonzero;stroke:none"
             id="path214" /></g><g
           id="g216"
           transform="translate(638.5,274.5)"><path
             d="m 0,0 c 0,-2.762 -2.238,-5 -5,-5 h -23 c -2.762,0 -5,2.238 -5,5 0,2.762 2.238,5 5,5 H -5 C -2.238,5 0,2.762 0,0 Z"
             style="fill:none;stroke:#1a1a1a;stroke-width:5;stroke-linecap:butt;stroke-linejoin:miter;stroke-miterlimit:10;stroke-dasharray:none;stroke-opacity:1"
             id="path218" /></g><g
           id="g220"
           transform="translate(627.0879,336.5)"><path
             d="M 0,0 C 18.166,0 32.412,0.302 32.412,-0.157 V -3.088 C 32.412,-3.548 18.166,-4 0,-4 h -242.107 c -18.167,0 -33.481,0.452 -33.481,0.912 v 2.931 c 0,0.459 15.314,0.157 33.481,0.157 z"
             style="fill:#ffffff;fill-opacity:1;fill-rule:nonzero;stroke:none"
             id="path222" /></g><g
           id="g224"
           transform="translate(627.0879,336.5)"><path
             d="M 0,0 C 18.166,0 32.412,0.302 32.412,-0.157 V -3.088 C 32.412,-3.548 18.166,-4 0,-4 h -242.107 c -18.167,0 -33.481,0.452 -33.481,0.912 v 2.931 c 0,0.459 15.314,0.157 33.481,0.157 z"
             style="fill:none;stroke:#1a1a1a;stroke-width:5;stroke-linecap:butt;stroke-linejoin:miter;stroke-miterlimit:10;stroke-dasharray:none;stroke-opacity:1"
             id="path226" /></g><g
           id="g228"
           transform="translate(627.0879,326.5)"><path
             d="M 0,0 C 18.166,0 32.412,0.09 32.412,-0.369 V -3.3 C 32.412,-3.76 18.166,-4 0,-4 h -242.107 c -18.167,0 -33.481,0.24 -33.481,0.7 v 2.931 c 0,0.459 15.314,0.369 33.481,0.369 z"
             style="fill:#ffffff;fill-opacity:1;fill-rule:nonzero;stroke:none"
             id="path230" /></g><g
           id="g232"
           transform="translate(627.0879,326.5)"><path
             d="M 0,0 C 18.166,0 32.412,0.09 32.412,-0.369 V -3.3 C 32.412,-3.76 18.166,-4 0,-4 h -242.107 c -18.167,0 -33.481,0.24 -33.481,0.7 v 2.931 c 0,0.459 15.314,0.369 33.481,0.369 z"
             style="fill:none;stroke:#1a1a1a;stroke-width:5;stroke-linecap:butt;stroke-linejoin:miter;stroke-miterlimit:10;stroke-dasharray:none;stroke-opacity:1"
             id="path234" /></g><g
           id="g236"
           transform="translate(627.0879,419.5)"><path
             d="m 0,0 c 18.166,0 32.412,0.021 32.412,-0.439 v -2.93 C 32.412,-3.829 18.166,-5 0,-5 h -242.107 c -18.167,0 -33.481,1.171 -33.481,1.631 v 2.93 c 0,0.46 15.314,0.439 33.481,0.439 z"
             style="fill:#ffffff;fill-opacity:1;fill-rule:nonzero;stroke:none"
             id="path238" /></g><g
           id="g240"
           transform="translate(627.0879,419.5)"><path
             d="m 0,0 c 18.166,0 32.412,0.021 32.412,-0.439 v -2.93 C 32.412,-3.829 18.166,-5 0,-5 h -242.107 c -18.167,0 -33.481,1.171 -33.481,1.631 v 2.93 c 0,0.46 15.314,0.439 33.481,0.439 z"
             style="fill:none;stroke:#1a1a1a;stroke-width:5;stroke-linecap:butt;stroke-linejoin:miter;stroke-miterlimit:10;stroke-dasharray:none;stroke-opacity:1"
             id="path242" /></g><g
           id="g244"
           transform="translate(627.0879,429.5)"><path
             d="m 0,0 c 18.166,0 32.412,0.233 32.412,-0.227 v -2.93 C 32.412,-3.617 18.166,-4 0,-4 h -242.107 c -18.167,0 -33.481,0.383 -33.481,0.843 v 2.93 c 0,0.46 15.314,0.227 33.481,0.227 z"
             style="fill:#ffffff;fill-opacity:1;fill-rule:nonzero;stroke:none"
             id="path246" /></g><g
           id="g248"
           transform="translate(627.0879,429.5)"><path
             d="m 0,0 c 18.166,0 32.412,0.233 32.412,-0.227 v -2.93 C 32.412,-3.617 18.166,-4 0,-4 h -242.107 c -18.167,0 -33.481,0.383 -33.481,0.843 v 2.93 c 0,0.46 15.314,0.227 33.481,0.227 z"
             style="fill:none;stroke:#1a1a1a;stroke-width:5;stroke-linecap:butt;stroke-linejoin:miter;stroke-miterlimit:10;stroke-dasharray:none;stroke-opacity:1"
             id="path250" /></g><g
           id="g252"
           transform="translate(740.5,209.0273)"><path
             d="m 0,0 c 0,-8.327 -7.489,-15.527 -16.772,-15.527 h -437.042 c -9.284,0 -17.186,7.2 -17.186,15.527 v 18.095 c 0,8.327 7.902,15.378 17.186,15.378 H -16.772 C -7.489,33.473 0,26.422 0,18.095 Z"
             style="fill:#ffffff;fill-opacity:1;fill-rule:nonzero;stroke:none"
             id="path254" /></g><g
           id="g256"
           transform="translate(740.5,209.0273)"><path
             d="m 0,0 c 0,-8.327 -7.489,-15.527 -16.772,-15.527 h -437.042 c -9.284,0 -17.186,7.2 -17.186,15.527 v 18.095 c 0,8.327 7.902,15.378 17.186,15.378 H -16.772 C -7.489,33.473 0,26.422 0,18.095 Z"
             style="fill:none;stroke:#1a1a1a;stroke-width:5;stroke-linecap:butt;stroke-linejoin:miter;stroke-miterlimit:10;stroke-dasharray:none;stroke-opacity:1"
             id="path258" /></g><g
           id="g260"
           transform="translate(325.5,280.2646)"><path
             d="m 0,0 c 0,-7.05 -5.715,-12.765 -12.765,-12.765 h -22.47 C -42.285,-12.765 -48,-7.05 -48,0 v 1.471 c 0,7.05 5.715,12.764 12.765,12.764 h 22.47 C -5.715,14.235 0,8.521 0,1.471 Z"
             style="fill:#ffffff;fill-opacity:1;fill-rule:nonzero;stroke:none"
             id="path262" /></g><g
           id="g264"
           transform="translate(325.5,280.2646)"><path
             d="m 0,0 c 0,-7.05 -5.715,-12.765 -12.765,-12.765 h -22.47 C -42.285,-12.765 -48,-7.05 -48,0 v 1.471 c 0,7.05 5.715,12.764 12.765,12.764 h 22.47 C -5.715,14.235 0,8.521 0,1.471 Z"
             style="fill:none;stroke:#1a1a1a;stroke-width:5;stroke-linecap:butt;stroke-linejoin:miter;stroke-miterlimit:10;stroke-dasharray:none;stroke-opacity:1"
             id="path266" /></g><g
           id="g268"
           transform="translate(731.5,280.2646)"><path
             d="m 0,0 c 0,-7.05 -5.715,-12.765 -12.765,-12.765 h -22.47 C -42.285,-12.765 -48,-7.05 -48,0 v 1.471 c 0,7.05 5.715,12.764 12.765,12.764 h 22.47 C -5.715,14.235 0,8.521 0,1.471 Z"
             style="fill:#ffffff;fill-opacity:1;fill-rule:nonzero;stroke:none"
             id="path270" /></g><g
           id="g272"
           transform="translate(731.5,280.2646)"><path
             d="m 0,0 c 0,-7.05 -5.715,-12.765 -12.765,-12.765 h -22.47 C -42.285,-12.765 -48,-7.05 -48,0 v 1.471 c 0,7.05 5.715,12.764 12.765,12.764 h 22.47 C -5.715,14.235 0,8.521 0,1.471 Z"
             style="fill:none;stroke:#1a1a1a;stroke-width:5;stroke-linecap:butt;stroke-linejoin:miter;stroke-miterlimit:10;stroke-dasharray:none;stroke-opacity:1"
             id="path274" /></g><g
           id="g276"
           transform="translate(315.1748,280.2422)"><path
             d="m 0,0 c 0,-7.615 -6.173,-13.787 -13.787,-13.787 -7.614,0 -13.786,6.172 -13.786,13.787 0,7.614 6.172,13.785 13.786,13.785 C -6.173,13.785 0,7.614 0,0"
             style="fill:#ffffff;fill-opacity:1;fill-rule:nonzero;stroke:none"
             id="path278" /></g><g
           id="g280"
           transform="translate(315.1748,280.2422)"><path
             d="m 0,0 c 0,-7.615 -6.173,-13.787 -13.787,-13.787 -7.614,0 -13.786,6.172 -13.786,13.787 0,7.614 6.172,13.785 13.786,13.785 C -6.173,13.785 0,7.614 0,0 Z"
             style="fill:none;stroke:#1a1a1a;stroke-width:5;stroke-linecap:butt;stroke-linejoin:miter;stroke-miterlimit:10;stroke-dasharray:none;stroke-opacity:1"
             id="path282" /></g><g
           id="g284"
           transform="translate(722.1299,280.2422)"><path
             d="m 0,0 c 0,-7.615 -6.172,-13.787 -13.786,-13.787 -7.614,0 -13.787,6.172 -13.787,13.787 0,7.614 6.173,13.785 13.787,13.785 C -6.172,13.785 0,7.614 0,0"
             style="fill:#ffffff;fill-opacity:1;fill-rule:nonzero;stroke:none"
             id="path286" /></g><g
           id="g288"
           transform="translate(722.1299,280.2422)"><path
             d="m 0,0 c 0,-7.615 -6.172,-13.787 -13.786,-13.787 -7.614,0 -13.787,6.172 -13.787,13.787 0,7.614 6.173,13.785 13.787,13.785 C -6.172,13.785 0,7.614 0,0 Z"
             style="fill:none;stroke:#1a1a1a;stroke-width:5;stroke-linecap:butt;stroke-linejoin:miter;stroke-miterlimit:10;stroke-dasharray:none;stroke-opacity:1"
             id="path290" /></g><g
           id="g292"
           transform="translate(372.5,268.1064)"><path
             d="m 0,0 c 0,-4.787 -5.694,-8.606 -11.605,-8.606 h -0.041 C -17.558,-8.606 -22,-4.787 -22,0 v 12.026 c 0,4.786 4.442,8.368 10.354,8.368 h 0.041 C -5.694,20.394 0,16.812 0,12.026 Z"
             style="fill:#ffffff;fill-opacity:1;fill-rule:nonzero;stroke:none"
             id="path294" /></g><g
           id="g296"
           transform="translate(372.5,268.1064)"><path
             d="m 0,0 c 0,-4.787 -5.694,-8.606 -11.605,-8.606 h -0.041 C -17.558,-8.606 -22,-4.787 -22,0 v 12.026 c 0,4.786 4.442,8.368 10.354,8.368 h 0.041 C -5.694,20.394 0,16.812 0,12.026 Z"
             style="fill:none;stroke:#1a1a1a;stroke-width:5;stroke-linecap:butt;stroke-linejoin:miter;stroke-miterlimit:10;stroke-dasharray:none;stroke-opacity:1"
             id="path298" /></g><g
           id="g300"
           transform="translate(363.5459,279.0166)"><path
             d="m 0,0 c 0,-1.813 -1.472,-3.285 -3.286,-3.285 -1.815,0 -3.285,1.472 -3.285,3.285 0,1.815 1.47,3.285 3.285,3.285 C -1.472,3.285 0,1.815 0,0"
             style="fill:#ffffff;fill-opacity:1;fill-rule:nonzero;stroke:none"
             id="path302" /></g><g
           id="g304"
           transform="translate(363.5459,279.0166)"><path
             d="m 0,0 c 0,-1.813 -1.472,-3.285 -3.286,-3.285 -1.815,0 -3.285,1.472 -3.285,3.285 0,1.815 1.47,3.285 3.285,3.285 C -1.472,3.285 0,1.815 0,0 Z"
             style="fill:none;stroke:#1a1a1a;stroke-width:5;stroke-linecap:butt;stroke-linejoin:miter;stroke-miterlimit:10;stroke-dasharray:none;stroke-opacity:1"
             id="path306" /></g><g
           id="g308"
           transform="translate(364.0566,268.0391)"><path
             d="m 0,0 c 0,-1.814 -1.472,-3.286 -3.286,-3.286 -1.815,0 -3.285,1.472 -3.285,3.286 0,1.814 1.47,3.284 3.285,3.284 C -1.472,3.284 0,1.814 0,0"
             style="fill:#ffffff;fill-opacity:1;fill-rule:nonzero;stroke:none"
             id="path310" /></g><g
           id="g312"
           transform="translate(364.0566,268.0391)"><path
             d="m 0,0 c 0,-1.814 -1.472,-3.286 -3.286,-3.286 -1.815,0 -3.285,1.472 -3.285,3.286 0,1.814 1.47,3.284 3.285,3.284 C -1.472,3.284 0,1.814 0,0 Z"
             style="fill:none;stroke:#1a1a1a;stroke-width:5;stroke-linecap:butt;stroke-linejoin:miter;stroke-miterlimit:10;stroke-dasharray:none;stroke-opacity:1"
             id="path314" /></g><g
           id="g316"
           transform="translate(430.5,268.1064)"><path
             d="m 0,0 c 0,-4.787 -4.975,-8.606 -10.885,-8.606 h -0.042 C -16.838,-8.606 -21,-4.787 -21,0 v 12.026 c 0,4.786 4.162,8.368 10.073,8.368 h 0.042 C -4.975,20.394 0,16.812 0,12.026 Z"
             style="fill:#ffffff;fill-opacity:1;fill-rule:nonzero;stroke:none"
             id="path318" /></g><g
           id="g320"
           transform="translate(430.5,268.1064)"><path
             d="m 0,0 c 0,-4.787 -4.975,-8.606 -10.885,-8.606 h -0.042 C -16.838,-8.606 -21,-4.787 -21,0 v 12.026 c 0,4.786 4.162,8.368 10.073,8.368 h 0.042 C -4.975,20.394 0,16.812 0,12.026 Z"
             style="fill:none;stroke:#1a1a1a;stroke-width:5;stroke-linecap:butt;stroke-linejoin:miter;stroke-miterlimit:10;stroke-dasharray:none;stroke-opacity:1"
             id="path322" /></g><g
           id="g324"
           transform="translate(422.2656,279.0166)"><path
             d="m 0,0 c 0,-1.813 -1.471,-3.285 -3.285,-3.285 -1.816,0 -3.286,1.472 -3.286,3.285 0,1.815 1.47,3.285 3.286,3.285 C -1.471,3.285 0,1.815 0,0"
             style="fill:#ffffff;fill-opacity:1;fill-rule:nonzero;stroke:none"
             id="path326" /></g><g
           id="g328"
           transform="translate(422.2656,279.0166)"><path
             d="m 0,0 c 0,-1.813 -1.471,-3.285 -3.285,-3.285 -1.816,0 -3.286,1.472 -3.286,3.285 0,1.815 1.47,3.285 3.286,3.285 C -1.471,3.285 0,1.815 0,0 Z"
             style="fill:none;stroke:#1a1a1a;stroke-width:5;stroke-linecap:butt;stroke-linejoin:miter;stroke-miterlimit:10;stroke-dasharray:none;stroke-opacity:1"
             id="path330" /></g><g
           id="g332"
           transform="translate(422.7764,268.0391)"><path
             d="m 0,0 c 0,-1.814 -1.471,-3.286 -3.286,-3.286 -1.815,0 -3.285,1.472 -3.285,3.286 0,1.814 1.47,3.284 3.285,3.284 C -1.471,3.284 0,1.814 0,0"
             style="fill:#ffffff;fill-opacity:1;fill-rule:nonzero;stroke:none"
             id="path334" /></g><g
           id="g336"
           transform="translate(422.7764,268.0391)"><path
             d="m 0,0 c 0,-1.814 -1.471,-3.286 -3.286,-3.286 -1.815,0 -3.285,1.472 -3.285,3.286 0,1.814 1.47,3.284 3.285,3.284 C -1.471,3.284 0,1.814 0,0 Z"
             style="fill:none;stroke:#1a1a1a;stroke-width:5;stroke-linecap:butt;stroke-linejoin:miter;stroke-miterlimit:10;stroke-dasharray:none;stroke-opacity:1"
             id="path338" /></g><g
           id="g340"
           transform="translate(600.5,268.1064)"><path
             d="m 0,0 c 0,-4.787 -4.432,-8.606 -10.342,-8.606 h -0.042 C -16.294,-8.606 -21,-4.787 -21,0 v 12.026 c 0,4.786 4.706,8.368 10.616,8.368 h 0.042 C -4.432,20.394 0,16.812 0,12.026 Z"
             style="fill:#ffffff;fill-opacity:1;fill-rule:nonzero;stroke:none"
             id="path342" /></g><g
           id="g344"
           transform="translate(600.5,268.1064)"><path
             d="m 0,0 c 0,-4.787 -4.432,-8.606 -10.342,-8.606 h -0.042 C -16.294,-8.606 -21,-4.787 -21,0 v 12.026 c 0,4.786 4.706,8.368 10.616,8.368 h 0.042 C -4.432,20.394 0,16.812 0,12.026 Z"
             style="fill:none;stroke:#1a1a1a;stroke-width:5;stroke-linecap:butt;stroke-linejoin:miter;stroke-miterlimit:10;stroke-dasharray:none;stroke-opacity:1"
             id="path346" /></g><g
           id="g348"
           transform="translate(592.8086,279.0166)"><path
             d="m 0,0 c 0,-1.813 -1.471,-3.285 -3.285,-3.285 -1.815,0 -3.285,1.472 -3.285,3.285 0,1.815 1.47,3.285 3.285,3.285 C -1.471,3.285 0,1.815 0,0"
             style="fill:#ffffff;fill-opacity:1;fill-rule:nonzero;stroke:none"
             id="path350" /></g><g
           id="g352"
           transform="translate(592.8086,279.0166)"><path
             d="m 0,0 c 0,-1.813 -1.471,-3.285 -3.285,-3.285 -1.815,0 -3.285,1.472 -3.285,3.285 0,1.815 1.47,3.285 3.285,3.285 C -1.471,3.285 0,1.815 0,0 Z"
             style="fill:none;stroke:#1a1a1a;stroke-width:5;stroke-linecap:butt;stroke-linejoin:miter;stroke-miterlimit:10;stroke-dasharray:none;stroke-opacity:1"
             id="path354" /></g><g
           id="g356"
           transform="translate(593.3193,268.0391)"><path
             d="m 0,0 c 0,-1.814 -1.471,-3.286 -3.285,-3.286 -1.815,0 -3.285,1.472 -3.285,3.286 0,1.814 1.47,3.284 3.285,3.284 C -1.471,3.284 0,1.814 0,0"
             style="fill:#ffffff;fill-opacity:1;fill-rule:nonzero;stroke:none"
             id="path358" /></g><g
           id="g360"
           transform="translate(593.3193,268.0391)"><path
             d="m 0,0 c 0,-1.814 -1.471,-3.286 -3.285,-3.286 -1.815,0 -3.285,1.472 -3.285,3.286 0,1.814 1.47,3.284 3.285,3.284 C -1.471,3.284 0,1.814 0,0 Z"
             style="fill:none;stroke:#1a1a1a;stroke-width:5;stroke-linecap:butt;stroke-linejoin:miter;stroke-miterlimit:10;stroke-dasharray:none;stroke-opacity:1"
             id="path362" /></g><g
           id="g364"
           transform="translate(661.5,268.1064)"><path
             d="M 0,0 C 0,-4.787 -4.158,-8.606 -10.069,-8.606 H -10.11 C -16.021,-8.606 -21,-4.787 -21,0 v 12.026 c 0,4.786 4.979,8.368 10.89,8.368 h 0.041 C -4.158,20.394 0,16.812 0,12.026 Z"
             style="fill:#ffffff;fill-opacity:1;fill-rule:nonzero;stroke:none"
             id="path366" /></g><g
           id="g368"
           transform="translate(661.5,268.1064)"><path
             d="M 0,0 C 0,-4.787 -4.158,-8.606 -10.069,-8.606 H -10.11 C -16.021,-8.606 -21,-4.787 -21,0 v 12.026 c 0,4.786 4.979,8.368 10.89,8.368 h 0.041 C -4.158,20.394 0,16.812 0,12.026 Z"
             style="fill:none;stroke:#1a1a1a;stroke-width:5;stroke-linecap:butt;stroke-linejoin:miter;stroke-miterlimit:10;stroke-dasharray:none;stroke-opacity:1"
             id="path370" /></g><g
           id="g372"
           transform="translate(654.082,279.0166)"><path
             d="m 0,0 c 0,-1.813 -1.471,-3.285 -3.286,-3.285 -1.814,0 -3.284,1.472 -3.284,3.285 0,1.815 1.47,3.285 3.284,3.285 C -1.471,3.285 0,1.815 0,0"
             style="fill:#ffffff;fill-opacity:1;fill-rule:nonzero;stroke:none"
             id="path374" /></g><g
           id="g376"
           transform="translate(654.082,279.0166)"><path
             d="m 0,0 c 0,-1.813 -1.471,-3.285 -3.286,-3.285 -1.814,0 -3.284,1.472 -3.284,3.285 0,1.815 1.47,3.285 3.284,3.285 C -1.471,3.285 0,1.815 0,0 Z"
             style="fill:none;stroke:#1a1a1a;stroke-width:5;stroke-linecap:butt;stroke-linejoin:miter;stroke-miterlimit:10;stroke-dasharray:none;stroke-opacity:1"
             id="path378" /></g><g
           id="g380"
           transform="translate(654.5928,268.0391)"><path
             d="m 0,0 c 0,-1.814 -1.471,-3.286 -3.285,-3.286 -1.815,0 -3.286,1.472 -3.286,3.286 0,1.814 1.471,3.284 3.286,3.284 C -1.471,3.284 0,1.814 0,0"
             style="fill:#ffffff;fill-opacity:1;fill-rule:nonzero;stroke:none"
             id="path382" /></g><g
           id="g384"
           transform="translate(654.5928,268.0391)"><path
             d="m 0,0 c 0,-1.814 -1.471,-3.286 -3.285,-3.286 -1.815,0 -3.286,1.472 -3.286,3.286 0,1.814 1.471,3.284 3.286,3.284 C -1.471,3.284 0,1.814 0,0 Z"
             style="fill:none;stroke:#1a1a1a;stroke-width:5;stroke-linecap:butt;stroke-linejoin:miter;stroke-miterlimit:10;stroke-dasharray:none;stroke-opacity:1"
             id="path386" /></g><g
           id="g388"
           transform="translate(323.5,376.2656)"><path
             d="m 0,0 c 0,-7.051 -5.715,-12.766 -12.765,-12.766 h -19.47 C -39.285,-12.766 -45,-7.051 -45,0 v 4.469 c 0,7.05 5.715,12.765 12.765,12.765 h 19.47 C -5.715,17.234 0,11.519 0,4.469 Z"
             style="fill:#ffffff;fill-opacity:1;fill-rule:nonzero;stroke:none"
             id="path390" /></g><g
           id="g392"
           transform="translate(323.5,376.2656)"><path
             d="m 0,0 c 0,-7.051 -5.715,-12.766 -12.765,-12.766 h -19.47 C -39.285,-12.766 -45,-7.051 -45,0 v 4.469 c 0,7.05 5.715,12.765 12.765,12.765 h 19.47 C -5.715,17.234 0,11.519 0,4.469 Z"
             style="fill:none;stroke:#1a1a1a;stroke-width:5;stroke-linecap:butt;stroke-linejoin:miter;stroke-miterlimit:10;stroke-dasharray:none;stroke-opacity:1"
             id="path394" /></g><g
           id="g396"
           transform="translate(326.5,348.2764)"><path
             d="M 0,0 C 0,-4.295 -3.481,-7.776 -7.776,-7.776 H -33.224 C -37.519,-7.776 -41,-4.295 -41,0 v 0.447 c 0,4.295 3.481,7.777 7.776,7.777 H -7.776 C -3.481,8.224 0,4.742 0,0.447 Z"
             style="fill:#ffffff;fill-opacity:1;fill-rule:nonzero;stroke:none"
             id="path398" /></g><g
           id="g400"
           transform="translate(326.5,348.2764)"><path
             d="M 0,0 C 0,-4.295 -3.481,-7.776 -7.776,-7.776 H -33.224 C -37.519,-7.776 -41,-4.295 -41,0 v 0.447 c 0,4.295 3.481,7.777 7.776,7.777 H -7.776 C -3.481,8.224 0,4.742 0,0.447 Z"
             style="fill:none;stroke:#1a1a1a;stroke-width:5;stroke-linecap:butt;stroke-linejoin:miter;stroke-miterlimit:10;stroke-dasharray:none;stroke-opacity:1"
             id="path402" /></g><g
           id="g404"
           transform="translate(326.5,409.2754)"><path
             d="M 0,0 C 0,-4.294 -3.481,-7.775 -7.776,-7.775 H -33.224 C -37.519,-7.775 -41,-4.294 -41,0 v 0.449 c 0,4.295 3.481,7.776 7.776,7.776 H -7.776 C -3.481,8.225 0,4.744 0,0.449 Z"
             style="fill:#ffffff;fill-opacity:1;fill-rule:nonzero;stroke:none"
             id="path406" /></g><g
           id="g408"
           transform="translate(326.5,409.2754)"><path
             d="M 0,0 C 0,-4.294 -3.481,-7.775 -7.776,-7.775 H -33.224 C -37.519,-7.775 -41,-4.294 -41,0 v 0.449 c 0,4.295 3.481,7.776 7.776,7.776 H -7.776 C -3.481,8.225 0,4.744 0,0.449 Z"
             style="fill:none;stroke:#1a1a1a;stroke-width:5;stroke-linecap:butt;stroke-linejoin:miter;stroke-miterlimit:10;stroke-dasharray:none;stroke-opacity:1"
             id="path410" /></g><g
           id="g412"
           transform="translate(671.0693,415.5)"><path
             d="M 0,0 C 7.05,0 12.431,-4.277 12.431,-9.285 V -66.229 C 12.431,-71.235 7.05,-76 0,-76 h -13.569 v -2.581 c 0,-7.05 5.498,-12.419 12.548,-12.419 h 61.272 c 7.05,0 13.18,5.369 13.18,12.419 V 1.585 C 73.431,8.635 67.301,15 60.251,15 H -1.021 C -8.071,15 -13.569,8.635 -13.569,1.585 V 0 Z"
             style="fill:#ffffff;fill-opacity:1;fill-rule:nonzero;stroke:none"
             id="path414" /></g><g
           id="g416"
           transform="translate(671.0693,415.5)"><path
             d="M 0,0 C 7.05,0 12.431,-4.277 12.431,-9.285 V -66.229 C 12.431,-71.235 7.05,-76 0,-76 h -13.569 v -2.581 c 0,-7.05 5.498,-12.419 12.548,-12.419 h 61.272 c 7.05,0 13.18,5.369 13.18,12.419 V 1.585 C 73.431,8.635 67.301,15 60.251,15 H -1.021 C -8.071,15 -13.569,8.635 -13.569,1.585 V 0 Z"
             style="fill:none;stroke:#1a1a1a;stroke-width:5;stroke-linecap:butt;stroke-linejoin:miter;stroke-miterlimit:10;stroke-dasharray:none;stroke-opacity:1"
             id="path418" /></g><g
           id="g420"
           transform="translate(734.5,374.2656)"><path
             d="m 0,0 c 0,-7.051 -5.715,-12.766 -12.765,-12.766 h -19.47 C -39.285,-12.766 -45,-7.051 -45,0 v 4.469 c 0,7.05 5.715,12.765 12.765,12.765 h 19.47 C -5.715,17.234 0,11.519 0,4.469 Z"
             style="fill:#ffffff;fill-opacity:1;fill-rule:nonzero;stroke:none"
             id="path422" /></g><g
           id="g424"
           transform="translate(734.5,374.2656)"><path
             d="m 0,0 c 0,-7.051 -5.715,-12.766 -12.765,-12.766 h -19.47 C -39.285,-12.766 -45,-7.051 -45,0 v 4.469 c 0,7.05 5.715,12.765 12.765,12.765 h 19.47 C -5.715,17.234 0,11.519 0,4.469 Z"
             style="fill:none;stroke:#1a1a1a;stroke-width:5;stroke-linecap:butt;stroke-linejoin:miter;stroke-miterlimit:10;stroke-dasharray:none;stroke-opacity:1"
             id="path426" /></g><g
           id="g428"
           transform="translate(728.5,405.2754)"><path
             d="m 0,0 c 0,-4.294 -3.481,-7.775 -7.775,-7.775 h -25.45 C -37.519,-7.775 -41,-4.294 -41,0 v 0.449 c 0,4.295 3.481,7.776 7.775,7.776 h 25.45 C -3.481,8.225 0,4.744 0,0.449 Z"
             style="fill:#ffffff;fill-opacity:1;fill-rule:nonzero;stroke:none"
             id="path430" /></g><g
           id="g432"
           transform="translate(728.5,405.2754)"><path
             d="m 0,0 c 0,-4.294 -3.481,-7.775 -7.775,-7.775 h -25.45 C -37.519,-7.775 -41,-4.294 -41,0 v 0.449 c 0,4.295 3.481,7.776 7.775,7.776 h 25.45 C -3.481,8.225 0,4.744 0,0.449 Z"
             style="fill:none;stroke:#1a1a1a;stroke-width:5;stroke-linecap:butt;stroke-linejoin:miter;stroke-miterlimit:10;stroke-dasharray:none;stroke-opacity:1"
             id="path434" /></g><g
           id="g436"
           transform="translate(728.5,345.2764)"><path
             d="m 0,0 c 0,-4.295 -3.481,-7.776 -7.775,-7.776 h -25.45 C -37.519,-7.776 -41,-4.295 -41,0 v 0.447 c 0,4.295 3.481,7.777 7.775,7.777 h 25.45 C -3.481,8.224 0,4.742 0,0.447 Z"
             style="fill:#ffffff;fill-opacity:1;fill-rule:nonzero;stroke:none"
             id="path438" /></g><g
           id="g440"
           transform="translate(728.5,345.2764)"><path
             d="m 0,0 c 0,-4.295 -3.481,-7.776 -7.775,-7.776 h -25.45 C -37.519,-7.776 -41,-4.295 -41,0 v 0.447 c 0,4.295 3.481,7.777 7.775,7.777 h 25.45 C -3.481,8.224 0,4.742 0,0.447 Z"
             style="fill:none;stroke:#1a1a1a;stroke-width:5;stroke-linecap:butt;stroke-linejoin:miter;stroke-miterlimit:10;stroke-dasharray:none;stroke-opacity:1"
             id="path442" /></g><g
           id="g444"
           transform="translate(448.5,257.9863)"><path
             d="M 0,0 C 0,-3.03 -2.457,-5.486 -5.487,-5.486 H -5.513 C -8.543,-5.486 -11,-3.03 -11,0 v 27.027 c 0,3.031 2.457,5.487 5.487,5.487 h 0.026 C -2.457,32.514 0,30.058 0,27.027 Z"
             style="fill:#ffffff;fill-opacity:1;fill-rule:nonzero;stroke:none"
             id="path446" /></g><g
           id="g448"
           transform="translate(448.5,257.9863)"><path
             d="M 0,0 C 0,-3.03 -2.457,-5.486 -5.487,-5.486 H -5.513 C -8.543,-5.486 -11,-3.03 -11,0 v 27.027 c 0,3.031 2.457,5.487 5.487,5.487 h 0.026 C -2.457,32.514 0,30.058 0,27.027 Z"
             style="fill:none;stroke:#1a1a1a;stroke-width:5;stroke-linecap:butt;stroke-linejoin:miter;stroke-miterlimit:10;stroke-dasharray:none;stroke-opacity:1"
             id="path450" /></g><g
           id="g452"
           transform="translate(575.5,257.9863)"><path
             d="M 0,0 C 0,-3.03 -2.457,-5.486 -5.487,-5.486 H -5.513 C -8.543,-5.486 -11,-3.03 -11,0 v 27.027 c 0,3.031 2.457,5.487 5.487,5.487 h 0.026 C -2.457,32.514 0,30.058 0,27.027 Z"
             style="fill:#ffffff;fill-opacity:1;fill-rule:nonzero;stroke:none"
             id="path454" /></g><g
           id="g456"
           transform="translate(575.5,257.9863)"><path
             d="M 0,0 C 0,-3.03 -2.457,-5.486 -5.487,-5.486 H -5.513 C -8.543,-5.486 -11,-3.03 -11,0 v 27.027 c 0,3.031 2.457,5.487 5.487,5.487 h 0.026 C -2.457,32.514 0,30.058 0,27.027 Z"
             style="fill:none;stroke:#1a1a1a;stroke-width:5;stroke-linecap:butt;stroke-linejoin:miter;stroke-miterlimit:10;stroke-dasharray:none;stroke-opacity:1"
             id="path458" /></g><g
           id="g460"
           transform="translate(551.5,255.5625)"><path
             d="M 0,0 C 0,-8.366 -5.562,-16.062 -12.532,-16.062 H -75.119 C -82.089,-16.062 -88,-8.366 -88,0 v 15.147 c 0,8.367 5.911,14.79 12.881,14.79 h 62.587 C -5.562,29.937 0,23.514 0,15.147 Z"
             style="fill:#ffffff;fill-opacity:1;fill-rule:nonzero;stroke:none"
             id="path462" /></g><g
           id="g464"
           transform="translate(551.5,255.5625)"><path
             d="M 0,0 C 0,-8.366 -5.562,-16.062 -12.532,-16.062 H -75.119 C -82.089,-16.062 -88,-8.366 -88,0 v 15.147 c 0,8.367 5.911,14.79 12.881,14.79 h 62.587 C -5.562,29.937 0,23.514 0,15.147 Z"
             style="fill:none;stroke:#1a1a1a;stroke-width:5;stroke-linecap:butt;stroke-linejoin:miter;stroke-miterlimit:10;stroke-dasharray:none;stroke-opacity:1"
             id="path466" /></g><g
           id="g468"
           transform="translate(252.5,512.7349)"><path
             d="m 0,0 c 0,7.05 -5.715,12.765 -12.765,12.765 h -26.47 C -46.285,12.765 -52,7.05 -52,0 v -43.47 c 0,-7.05 5.715,-12.765 12.765,-12.765 h 26.47 C -5.715,-56.235 0,-50.52 0,-43.47 Z"
             style="fill:#ffffff;fill-opacity:1;fill-rule:nonzero;stroke:none"
             id="path470" /></g><g
           id="g472"
           transform="translate(252.5,512.7349)"><path
             d="m 0,0 c 0,7.05 -5.715,12.765 -12.765,12.765 h -26.47 C -46.285,12.765 -52,7.05 -52,0 v -43.47 c 0,-7.05 5.715,-12.765 12.765,-12.765 h 26.47 C -5.715,-56.235 0,-50.52 0,-43.47 Z"
             style="fill:none;stroke:#1a1a1a;stroke-width:5;stroke-linecap:butt;stroke-linejoin:miter;stroke-miterlimit:10;stroke-dasharray:none;stroke-opacity:1"
             id="path474" /></g><g
           id="g476"
           transform="translate(714.4707,479.8408)"><path
             d="m 0,0 c 0,1.546 -5.751,2.659 -12.846,2.659 h -383.306 c -7.094,0 -12.846,-1.113 -12.846,-2.659 l 29.288,-36.402 c 0,-1.544 5.751,-2.939 12.845,-2.939 h 333.98 c 7.094,0 12.845,1.395 12.845,2.939 z"
             style="fill:#1a1a1a;fill-opacity:1;fill-rule:nonzero;stroke:none"
             id="path478" /></g><g
           id="g480"
           transform="translate(714.4707,479.8408)"><path
             d="m 0,0 c 0,1.546 -5.751,2.659 -12.846,2.659 h -383.306 c -7.094,0 -12.846,-1.113 -12.846,-2.659 l 29.288,-36.402 c 0,-1.544 5.751,-2.939 12.845,-2.939 h 333.98 c 7.094,0 12.845,1.395 12.845,2.939 z"
             style="fill:none;stroke:#1a1a1a;stroke-width:5;stroke-linecap:butt;stroke-linejoin:miter;stroke-miterlimit:10;stroke-dasharray:none;stroke-opacity:1"
             id="path482" /></g><g
           id="g484"
           transform="translate(763.5,505.6753)"><path
             d="M 0,0 C 0,7.05 6.037,12.825 12.84,12.825 H 37.967 C 44.769,12.825 51,7.05 51,0 v -43.402 c 0,-7.049 -6.231,-12.773 -13.033,-12.773 H 12.84 C 6.037,-56.175 0,-50.451 0,-43.402 Z"
             style="fill:#ffffff;fill-opacity:1;fill-rule:nonzero;stroke:none"
             id="path486" /></g><g
           id="g488"
           transform="translate(763.5,505.6753)"><path
             d="M 0,0 C 0,7.05 6.037,12.825 12.84,12.825 H 37.967 C 44.769,12.825 51,7.05 51,0 v -43.402 c 0,-7.049 -6.231,-12.773 -13.033,-12.773 H 12.84 C 6.037,-56.175 0,-50.451 0,-43.402 Z"
             style="fill:none;stroke:#1a1a1a;stroke-width:5;stroke-linecap:butt;stroke-linejoin:miter;stroke-miterlimit:10;stroke-dasharray:none;stroke-opacity:1"
             id="path490" /></g><g
           id="g492"
           transform="translate(718.5557,489.9707)"><path
             d="m 0,0 c 0,-4.583 -5.889,-8.471 -13.15,-8.471 h -392.4 c -7.262,0 -13.149,3.888 -13.149,8.471 l 29.982,107.396 c 0,4.583 5.888,8.133 13.15,8.133 h 341.902 c 7.263,0 13.151,-3.55 13.151,-8.133 z"
             style="fill:#ffffff;fill-opacity:1;fill-rule:nonzero;stroke:none"
             id="path494" /></g><g
           id="g496"
           transform="translate(718.5557,489.9707)"><path
             d="m 0,0 c 0,-4.583 -5.889,-8.471 -13.15,-8.471 h -392.4 c -7.262,0 -13.149,3.888 -13.149,8.471 l 29.982,107.396 c 0,4.583 5.888,8.133 13.15,8.133 h 341.902 c 7.263,0 13.151,-3.55 13.151,-8.133 z"
             style="fill:none;stroke:#1a1a1a;stroke-width:5;stroke-linecap:butt;stroke-linejoin:miter;stroke-miterlimit:10;stroke-dasharray:none;stroke-opacity:1"
             id="path498" /></g><g
           id="g500"
           transform="translate(570.5,473.9219)"><path
             d="M 0,0 C 0,-3.419 -4.539,-5.422 -9.604,-5.422 H -22.592 C -27.656,-5.422 -32,-3.419 -32,0 v 18.571 c 0,3.419 4.344,6.007 9.408,6.007 H -9.604 C -4.539,24.578 0,21.99 0,18.571 Z"
             style="fill:#ffffff;fill-opacity:1;fill-rule:nonzero;stroke:none"
             id="path502" /></g><g
           id="g504"
           transform="translate(570.5,473.9219)"><path
             d="M 0,0 C 0,-3.419 -4.539,-5.422 -9.604,-5.422 H -22.592 C -27.656,-5.422 -32,-3.419 -32,0 v 18.571 c 0,3.419 4.344,6.007 9.408,6.007 H -9.604 C -4.539,24.578 0,21.99 0,18.571 Z"
             style="fill:none;stroke:#1a1a1a;stroke-width:5;stroke-linecap:butt;stroke-linejoin:miter;stroke-miterlimit:10;stroke-dasharray:none;stroke-opacity:1"
             id="path506" /></g><g
           id="g508"
           transform="translate(581.4277,544.2769)"><path
             d="m 0,0 c -1.216,-2.106 -3.909,-2.828 -6.016,-1.612 l -44.814,25.87 c -2.107,1.216 -2.828,3.909 -1.612,6.015 L 3.15,126.577 c 1.216,2.106 3.91,2.827 6.017,1.612 L 53.98,102.318 c 2.106,-1.215 2.829,-3.908 1.613,-6.015 z"
             style="fill:#ffffff;fill-opacity:1;fill-rule:nonzero;stroke:none"
             id="path510" /></g><g
           id="g512"
           transform="translate(581.4277,544.2769)"><path
             d="m 0,0 c -1.216,-2.106 -3.909,-2.828 -6.016,-1.612 l -44.814,25.87 c -2.107,1.216 -2.828,3.909 -1.612,6.015 L 3.15,126.577 c 1.216,2.106 3.91,2.827 6.017,1.612 L 53.98,102.318 c 2.106,-1.215 2.829,-3.908 1.613,-6.015 z"
             style="fill:none;stroke:#1a1a1a;stroke-width:5;stroke-linecap:butt;stroke-linejoin:miter;stroke-miterlimit:10;stroke-dasharray:none;stroke-opacity:1"
             id="path514" /></g><g
           id="g516"
           transform="translate(636.7949,620.3701)"><path
             d="m 0,0 c -1.217,-2.106 -3.909,-2.828 -6.016,-1.612 l -61.976,35.778 c -2.107,1.215 -2.829,3.909 -1.612,6.015 l 0.733,1.272 c 1.216,2.106 3.91,2.828 6.016,1.611 L -0.878,7.287 C 1.229,6.071 1.95,3.377 0.734,1.271 Z"
             style="fill:#ffffff;fill-opacity:1;fill-rule:nonzero;stroke:none"
             id="path518" /></g><g
           id="g520"
           transform="translate(636.7949,620.3701)"><path
             d="m 0,0 c -1.217,-2.106 -3.909,-2.828 -6.016,-1.612 l -61.976,35.778 c -2.107,1.215 -2.829,3.909 -1.612,6.015 l 0.733,1.272 c 1.216,2.106 3.91,2.828 6.016,1.611 L -0.878,7.287 C 1.229,6.071 1.95,3.377 0.734,1.271 Z"
             style="fill:none;stroke:#1a1a1a;stroke-width:5;stroke-linecap:butt;stroke-linejoin:miter;stroke-miterlimit:10;stroke-dasharray:none;stroke-opacity:1"
             id="path522" /></g><g
           id="g524"
           transform="translate(628.9062,606.7031)"><path
             d="m 0,0 c -1.216,-2.106 -3.91,-2.828 -6.016,-1.612 l -61.978,35.778 c -2.106,1.215 -2.827,3.909 -1.611,6.015 l 0.733,1.272 c 1.217,2.106 3.909,2.827 6.017,1.612 L -0.879,7.288 C 1.227,6.071 1.949,3.378 0.733,1.271 Z"
             style="fill:#ffffff;fill-opacity:1;fill-rule:nonzero;stroke:none"
             id="path526" /></g><g
           id="g528"
           transform="translate(628.9062,606.7031)"><path
             d="m 0,0 c -1.216,-2.106 -3.91,-2.828 -6.016,-1.612 l -61.978,35.778 c -2.106,1.215 -2.827,3.909 -1.611,6.015 l 0.733,1.272 c 1.217,2.106 3.909,2.827 6.017,1.612 L -0.879,7.288 C 1.227,6.071 1.949,3.378 0.733,1.271 Z"
             style="fill:none;stroke:#1a1a1a;stroke-width:5;stroke-linecap:butt;stroke-linejoin:miter;stroke-miterlimit:10;stroke-dasharray:none;stroke-opacity:1"
             id="path530" /></g><g
           id="g532"
           transform="translate(621.3818,593.6729)"><path
             d="m 0,0 c -1.214,-2.107 -3.908,-2.829 -6.015,-1.613 l -61.976,35.778 c -2.108,1.215 -2.829,3.909 -1.613,6.015 l 0.734,1.272 c 1.216,2.106 3.909,2.828 6.016,1.612 L -0.877,7.286 C 1.229,6.07 1.951,3.377 0.735,1.271 Z"
             style="fill:#ffffff;fill-opacity:1;fill-rule:nonzero;stroke:none"
             id="path534" /></g><g
           id="g536"
           transform="translate(621.3818,593.6729)"><path
             d="m 0,0 c -1.214,-2.107 -3.908,-2.829 -6.015,-1.613 l -61.976,35.778 c -2.108,1.215 -2.829,3.909 -1.613,6.015 l 0.734,1.272 c 1.216,2.106 3.909,2.828 6.016,1.612 L -0.877,7.286 C 1.229,6.07 1.951,3.377 0.735,1.271 Z"
             style="fill:none;stroke:#1a1a1a;stroke-width:5;stroke-linecap:butt;stroke-linejoin:miter;stroke-miterlimit:10;stroke-dasharray:none;stroke-opacity:1"
             id="path538" /></g><g
           id="g540"
           transform="translate(613.4932,580.0054)"><path
             d="m 0,0 c -1.215,-2.106 -3.908,-2.828 -6.015,-1.612 l -61.978,35.778 c -2.106,1.216 -2.827,3.909 -1.611,6.015 l 0.733,1.271 c 1.216,2.107 3.91,2.828 6.016,1.613 L -0.878,7.287 C 1.229,6.071 1.95,3.378 0.734,1.271 Z"
             style="fill:#ffffff;fill-opacity:1;fill-rule:nonzero;stroke:none"
             id="path542" /></g><g
           id="g544"
           transform="translate(613.4932,580.0054)"><path
             d="m 0,0 c -1.215,-2.106 -3.908,-2.828 -6.015,-1.612 l -61.978,35.778 c -2.106,1.216 -2.827,3.909 -1.611,6.015 l 0.733,1.271 c 1.216,2.107 3.91,2.828 6.016,1.613 L -0.878,7.287 C 1.229,6.071 1.95,3.378 0.734,1.271 Z"
             style="fill:none;stroke:#1a1a1a;stroke-width:5;stroke-linecap:butt;stroke-linejoin:miter;stroke-miterlimit:10;stroke-dasharray:none;stroke-opacity:1"
             id="path546" /></g><g
           id="g548"
           transform="translate(606.1553,567.2925)"><path
             d="m 0,0 c -1.216,-2.107 -3.909,-2.829 -6.017,-1.612 l -61.976,35.777 c -2.108,1.215 -2.828,3.909 -1.612,6.016 l 0.733,1.271 c 1.216,2.106 3.91,2.828 6.016,1.612 L -0.879,7.287 C 1.228,6.071 1.95,3.377 0.732,1.271 Z"
             style="fill:#ffffff;fill-opacity:1;fill-rule:nonzero;stroke:none"
             id="path550" /></g><g
           id="g552"
           transform="translate(606.1553,567.2925)"><path
             d="m 0,0 c -1.216,-2.107 -3.909,-2.829 -6.017,-1.612 l -61.976,35.777 c -2.108,1.215 -2.828,3.909 -1.612,6.016 l 0.733,1.271 c 1.216,2.106 3.91,2.828 6.016,1.612 L -0.879,7.287 C 1.228,6.071 1.95,3.377 0.732,1.271 Z"
             style="fill:none;stroke:#1a1a1a;stroke-width:5;stroke-linecap:butt;stroke-linejoin:miter;stroke-miterlimit:10;stroke-dasharray:none;stroke-opacity:1"
             id="path554" /></g><g
           id="g556"
           transform="translate(598.2656,553.6255)"><path
             d="m 0,0 c -1.217,-2.106 -3.909,-2.828 -6.016,-1.612 l -61.977,35.777 c -2.107,1.216 -2.828,3.91 -1.612,6.016 l 0.733,1.271 c 1.217,2.107 3.909,2.829 6.017,1.612 L -0.878,7.287 C 1.228,6.072 1.95,3.377 0.733,1.271 Z"
             style="fill:#ffffff;fill-opacity:1;fill-rule:nonzero;stroke:none"
             id="path558" /></g><g
           id="g560"
           transform="translate(598.2656,553.6255)"><path
             d="m 0,0 c -1.217,-2.106 -3.909,-2.828 -6.016,-1.612 l -61.977,35.777 c -2.107,1.216 -2.828,3.91 -1.612,6.016 l 0.733,1.271 c 1.217,2.107 3.909,2.829 6.017,1.612 L -0.878,7.287 C 1.228,6.072 1.95,3.377 0.733,1.271 Z"
             style="fill:none;stroke:#1a1a1a;stroke-width:5;stroke-linecap:butt;stroke-linejoin:miter;stroke-miterlimit:10;stroke-dasharray:none;stroke-opacity:1"
             id="path562" /></g><g
           id="g564"
           transform="translate(559.6377,557.1802)"><path
             d="m 0,0 c -1.294,-2.241 -4.05,-3.071 -6.156,-1.856 l -1.272,0.734 c -2.106,1.216 -2.764,4.019 -1.472,6.26 l 38.066,65.939 c 1.294,2.241 4.05,3.072 6.156,1.856 l 1.272,-0.734 c 2.105,-1.216 2.765,-4.018 1.471,-6.26 z"
             style="fill:#ffffff;fill-opacity:1;fill-rule:nonzero;stroke:none"
             id="path566" /></g><g
           id="g568"
           transform="translate(559.6377,557.1802)"><path
             d="m 0,0 c -1.294,-2.241 -4.05,-3.071 -6.156,-1.856 l -1.272,0.734 c -2.106,1.216 -2.764,4.019 -1.472,6.26 l 38.066,65.939 c 1.294,2.241 4.05,3.072 6.156,1.856 l 1.272,-0.734 c 2.105,-1.216 2.765,-4.018 1.471,-6.26 z"
             style="fill:none;stroke:#1a1a1a;stroke-width:5;stroke-linecap:butt;stroke-linejoin:miter;stroke-miterlimit:10;stroke-dasharray:none;stroke-opacity:1"
             id="path570" /></g><g
           id="g572"
           transform="translate(602.793,662.0337)"><path
             d="m 0,0 c -1.216,-2.107 -3.909,-2.829 -6.016,-1.613 l -1.271,0.735 c -2.107,1.215 -2.828,3.909 -1.612,6.015 l 3.12,5.403 c 1.215,2.106 3.908,2.829 6.015,1.612 l 1.27,-0.733 C 3.613,10.203 4.335,7.509 3.119,5.403 Z"
             style="fill:#ffffff;fill-opacity:1;fill-rule:nonzero;stroke:none"
             id="path574" /></g><g
           id="g576"
           transform="translate(602.793,662.0337)"><path
             d="m 0,0 c -1.216,-2.107 -3.909,-2.829 -6.016,-1.613 l -1.271,0.735 c -2.107,1.215 -2.828,3.909 -1.612,6.015 l 3.12,5.403 c 1.215,2.106 3.908,2.829 6.015,1.612 l 1.27,-0.733 C 3.613,10.203 4.335,7.509 3.119,5.403 Z"
             style="fill:none;stroke:#1a1a1a;stroke-width:5;stroke-linecap:butt;stroke-linejoin:miter;stroke-miterlimit:10;stroke-dasharray:none;stroke-opacity:1"
             id="path578" /></g><g
           id="g580"
           transform="translate(628.2187,647.3555)"><path
             d="m 0,0 c -1.216,-2.106 -3.909,-2.828 -6.016,-1.612 l -1.271,0.734 c -2.107,1.215 -2.828,3.909 -1.611,6.015 l 3.119,5.404 c 1.215,2.105 3.908,2.828 6.014,1.612 L 1.507,11.419 C 3.613,10.204 4.335,7.509 3.119,5.403 Z"
             style="fill:#ffffff;fill-opacity:1;fill-rule:nonzero;stroke:none"
             id="path582" /></g><g
           id="g584"
           transform="translate(628.2187,647.3555)"><path
             d="m 0,0 c -1.216,-2.106 -3.909,-2.828 -6.016,-1.612 l -1.271,0.734 c -2.107,1.215 -2.828,3.909 -1.611,6.015 l 3.119,5.404 c 1.215,2.105 3.908,2.828 6.014,1.612 L 1.507,11.419 C 3.613,10.204 4.335,7.509 3.119,5.403 Z"
             style="fill:none;stroke:#1a1a1a;stroke-width:5;stroke-linecap:butt;stroke-linejoin:miter;stroke-miterlimit:10;stroke-dasharray:none;stroke-opacity:1"
             id="path586" /></g><g
           id="g588"
           transform="translate(584.8711,530.4238)"><path
             d="m 0,0 c -1.216,-2.106 -3.908,-2.828 -6.016,-1.613 l -61.976,35.778 c -2.106,1.216 -2.828,3.91 -1.612,6.016 l 0.733,1.271 c 1.216,2.107 3.91,2.828 6.017,1.612 L -0.876,7.287 C 1.229,6.071 1.95,3.377 0.735,1.271 Z"
             style="fill:#ffffff;fill-opacity:1;fill-rule:nonzero;stroke:none"
             id="path590" /></g><g
           id="g592"
           transform="translate(584.8711,530.4238)"><path
             d="m 0,0 c -1.216,-2.106 -3.908,-2.828 -6.016,-1.613 l -61.976,35.778 c -2.106,1.216 -2.828,3.91 -1.612,6.016 l 0.733,1.271 c 1.216,2.107 3.91,2.828 6.017,1.612 L -0.876,7.287 C 1.229,6.071 1.95,3.377 0.735,1.271 Z"
             style="fill:none;stroke:#1a1a1a;stroke-width:5;stroke-linecap:butt;stroke-linejoin:miter;stroke-miterlimit:10;stroke-dasharray:none;stroke-opacity:1"
             id="path594" /></g><g
           id="g596"
           transform="translate(489.2461,573.8437)"><path
             d="m 0,0 c 1.188,-2.122 0.431,-4.806 -1.692,-5.994 l -45.154,-25.272 c -2.123,-1.188 -4.806,-0.43 -5.994,1.692 l -54.309,97.033 c -1.187,2.123 -0.429,4.807 1.693,5.994 l 45.154,25.273 c 2.122,1.187 4.806,0.429 5.994,-1.692 z"
             style="fill:#ffffff;fill-opacity:1;fill-rule:nonzero;stroke:none"
             id="path598" /></g><g
           id="g600"
           transform="translate(489.2461,573.8437)"><path
             d="m 0,0 c 1.188,-2.122 0.431,-4.806 -1.692,-5.994 l -45.154,-25.272 c -2.123,-1.188 -4.806,-0.43 -5.994,1.692 l -54.309,97.033 c -1.187,2.123 -0.429,4.807 1.693,5.994 l 45.154,25.273 c 2.122,1.187 4.806,0.429 5.994,-1.692 z"
             style="fill:none;stroke:#1a1a1a;stroke-width:5;stroke-linecap:butt;stroke-linejoin:miter;stroke-miterlimit:10;stroke-dasharray:none;stroke-opacity:1"
             id="path602" /></g><g
           id="g604"
           transform="translate(452.1875,660.3447)"><path
             d="m 0,0 c 1.187,-2.122 0.431,-4.806 -1.691,-5.994 l -62.448,-34.95 c -2.122,-1.188 -4.806,-0.431 -5.994,1.691 l -0.717,1.282 c -1.188,2.122 -0.43,4.805 1.692,5.993 L -6.711,2.973 c 2.123,1.188 4.806,0.431 5.994,-1.692 z"
             style="fill:#ffffff;fill-opacity:1;fill-rule:nonzero;stroke:none"
             id="path606" /></g><g
           id="g608"
           transform="translate(452.1875,660.3447)"><path
             d="m 0,0 c 1.187,-2.122 0.431,-4.806 -1.691,-5.994 l -62.448,-34.95 c -2.122,-1.188 -4.806,-0.431 -5.994,1.691 l -0.717,1.282 c -1.188,2.122 -0.43,4.805 1.692,5.993 L -6.711,2.973 c 2.123,1.188 4.806,0.431 5.994,-1.692 z"
             style="fill:none;stroke:#1a1a1a;stroke-width:5;stroke-linecap:butt;stroke-linejoin:miter;stroke-miterlimit:10;stroke-dasharray:none;stroke-opacity:1"
             id="path610" /></g><g
           id="g612"
           transform="translate(459.8945,646.5747)"><path
             d="m 0,0 c 1.187,-2.123 0.431,-4.806 -1.691,-5.994 l -62.448,-34.951 c -2.123,-1.188 -4.806,-0.43 -5.994,1.692 l -0.717,1.281 c -1.188,2.122 -0.43,4.805 1.692,5.994 L -6.711,2.973 c 2.122,1.188 4.807,0.43 5.994,-1.692 z"
             style="fill:#ffffff;fill-opacity:1;fill-rule:nonzero;stroke:none"
             id="path614" /></g><g
           id="g616"
           transform="translate(459.8945,646.5747)"><path
             d="m 0,0 c 1.187,-2.123 0.431,-4.806 -1.691,-5.994 l -62.448,-34.951 c -2.123,-1.188 -4.806,-0.43 -5.994,1.692 l -0.717,1.281 c -1.188,2.122 -0.43,4.805 1.692,5.994 L -6.711,2.973 c 2.122,1.188 4.807,0.43 5.994,-1.692 z"
             style="fill:none;stroke:#1a1a1a;stroke-width:5;stroke-linecap:butt;stroke-linejoin:miter;stroke-miterlimit:10;stroke-dasharray:none;stroke-opacity:1"
             id="path618" /></g><g
           id="g620"
           transform="translate(467.2432,633.4448)"><path
             d="M 0,0 C 1.188,-2.123 0.43,-4.806 -1.691,-5.994 L -64.14,-40.945 c -2.122,-1.188 -4.805,-0.43 -5.993,1.693 l -0.717,1.28 c -1.188,2.122 -0.429,4.805 1.693,5.994 L -6.711,2.973 c 2.122,1.188 4.806,0.43 5.994,-1.693 z"
             style="fill:#ffffff;fill-opacity:1;fill-rule:nonzero;stroke:none"
             id="path622" /></g><g
           id="g624"
           transform="translate(467.2432,633.4448)"><path
             d="M 0,0 C 1.188,-2.123 0.43,-4.806 -1.691,-5.994 L -64.14,-40.945 c -2.122,-1.188 -4.805,-0.43 -5.993,1.693 l -0.717,1.28 c -1.188,2.122 -0.429,4.805 1.693,5.994 L -6.711,2.973 c 2.122,1.188 4.806,0.43 5.994,-1.693 z"
             style="fill:none;stroke:#1a1a1a;stroke-width:5;stroke-linecap:butt;stroke-linejoin:miter;stroke-miterlimit:10;stroke-dasharray:none;stroke-opacity:1"
             id="path626" /></g><g
           id="g628"
           transform="translate(474.9512,619.6738)"><path
             d="m 0,0 c 1.187,-2.122 0.43,-4.806 -1.692,-5.994 l -62.449,-34.95 c -2.121,-1.189 -4.805,-0.431 -5.993,1.692 l -0.717,1.281 c -1.186,2.122 -0.429,4.805 1.693,5.993 L -6.712,2.974 c 2.123,1.187 4.806,0.429 5.995,-1.693 z"
             style="fill:#ffffff;fill-opacity:1;fill-rule:nonzero;stroke:none"
             id="path630" /></g><g
           id="g632"
           transform="translate(474.9512,619.6738)"><path
             d="m 0,0 c 1.187,-2.122 0.43,-4.806 -1.692,-5.994 l -62.449,-34.95 c -2.121,-1.189 -4.805,-0.431 -5.993,1.692 l -0.717,1.281 c -1.186,2.122 -0.429,4.805 1.693,5.993 L -6.712,2.974 c 2.123,1.187 4.806,0.429 5.995,-1.693 z"
             style="fill:none;stroke:#1a1a1a;stroke-width:5;stroke-linecap:butt;stroke-linejoin:miter;stroke-miterlimit:10;stroke-dasharray:none;stroke-opacity:1"
             id="path634" /></g><g
           id="g636"
           transform="translate(482.1201,606.8647)"><path
             d="m 0,0 c 1.187,-2.123 0.43,-4.806 -1.692,-5.994 l -62.447,-34.951 c -2.123,-1.188 -4.806,-0.43 -5.994,1.692 l -0.718,1.281 c -1.187,2.122 -0.429,4.806 1.693,5.993 L -6.711,2.973 c 2.122,1.188 4.807,0.43 5.994,-1.692 z"
             style="fill:#ffffff;fill-opacity:1;fill-rule:nonzero;stroke:none"
             id="path638" /></g><g
           id="g640"
           transform="translate(482.1201,606.8647)"><path
             d="m 0,0 c 1.187,-2.123 0.43,-4.806 -1.692,-5.994 l -62.447,-34.951 c -2.123,-1.188 -4.806,-0.43 -5.994,1.692 l -0.718,1.281 c -1.187,2.122 -0.429,4.806 1.693,5.993 L -6.711,2.973 c 2.122,1.188 4.807,0.43 5.994,-1.692 z"
             style="fill:none;stroke:#1a1a1a;stroke-width:5;stroke-linecap:butt;stroke-linejoin:miter;stroke-miterlimit:10;stroke-dasharray:none;stroke-opacity:1"
             id="path642" /></g><g
           id="g644"
           transform="translate(489.8271,593.0942)"><path
             d="M 0,0 C 1.187,-2.122 0.431,-4.806 -1.692,-5.994 L -64.14,-40.945 c -2.122,-1.188 -4.805,-0.43 -5.994,1.692 l -0.717,1.281 c -1.187,2.122 -0.429,4.806 1.693,5.993 L -6.71,2.973 c 2.122,1.188 4.806,0.43 5.993,-1.692 z"
             style="fill:#ffffff;fill-opacity:1;fill-rule:nonzero;stroke:none"
             id="path646" /></g><g
           id="g648"
           transform="translate(489.8271,593.0942)"><path
             d="M 0,0 C 1.187,-2.122 0.431,-4.806 -1.692,-5.994 L -64.14,-40.945 c -2.122,-1.188 -4.805,-0.43 -5.994,1.692 l -0.717,1.281 c -1.187,2.122 -0.429,4.806 1.693,5.993 L -6.71,2.973 c 2.122,1.188 4.806,0.43 5.993,-1.692 z"
             style="fill:none;stroke:#1a1a1a;stroke-width:5;stroke-linecap:butt;stroke-linejoin:miter;stroke-miterlimit:10;stroke-dasharray:none;stroke-opacity:1"
             id="path650" /></g><g
           id="g652"
           transform="translate(467.0117,561.7222)"><path
             d="m 0,0 c 1.264,-2.258 0.567,-5.051 -1.554,-6.24 l -1.282,-0.717 c -2.121,-1.187 -4.867,-0.319 -6.131,1.939 L -46.152,61.42 c -1.264,2.259 -0.568,5.052 1.554,6.24 l 1.282,0.717 c 2.122,1.188 4.867,0.32 6.13,-1.938 z"
             style="fill:#ffffff;fill-opacity:1;fill-rule:nonzero;stroke:none"
             id="path654" /></g><g
           id="g656"
           transform="translate(467.0117,561.7222)"><path
             d="m 0,0 c 1.264,-2.258 0.567,-5.051 -1.554,-6.24 l -1.282,-0.717 c -2.121,-1.187 -4.867,-0.319 -6.131,1.939 L -46.152,61.42 c -1.264,2.259 -0.568,5.052 1.554,6.24 l 1.282,0.717 c 2.122,1.188 4.867,0.32 6.13,-1.938 z"
             style="fill:none;stroke:#1a1a1a;stroke-width:5;stroke-linecap:butt;stroke-linejoin:miter;stroke-miterlimit:10;stroke-dasharray:none;stroke-opacity:1"
             id="path658" /></g><g
           id="g660"
           transform="translate(398.9941,652.4419)"><path
             d="M 0,0 C 1.187,-2.122 0.43,-4.806 -1.692,-5.994 L -2.973,-6.71 c -2.122,-1.188 -4.806,-0.43 -5.994,1.691 l -3.047,5.445 c -1.188,2.121 -0.43,4.806 1.692,5.993 l 1.282,0.717 c 2.122,1.188 4.806,0.431 5.993,-1.692 z"
             style="fill:#ffffff;fill-opacity:1;fill-rule:nonzero;stroke:none"
             id="path662" /></g><g
           id="g664"
           transform="translate(398.9941,652.4419)"><path
             d="M 0,0 C 1.187,-2.122 0.43,-4.806 -1.692,-5.994 L -2.973,-6.71 c -2.122,-1.188 -4.806,-0.43 -5.994,1.691 l -3.047,5.445 c -1.188,2.121 -0.43,4.806 1.692,5.993 l 1.282,0.717 c 2.122,1.188 4.806,0.431 5.993,-1.692 z"
             style="fill:none;stroke:#1a1a1a;stroke-width:5;stroke-linecap:butt;stroke-linejoin:miter;stroke-miterlimit:10;stroke-dasharray:none;stroke-opacity:1"
             id="path666" /></g><g
           id="g668"
           transform="translate(424.6133,666.7812)"><path
             d="m 0,0 c 1.187,-2.122 0.43,-4.806 -1.692,-5.994 l -1.281,-0.717 c -2.123,-1.188 -4.805,-0.43 -5.994,1.692 l -3.047,5.444 c -1.187,2.122 -0.43,4.806 1.693,5.994 l 1.281,0.717 c 2.122,1.187 4.806,0.43 5.993,-1.692 z"
             style="fill:#ffffff;fill-opacity:1;fill-rule:nonzero;stroke:none"
             id="path670" /></g><g
           id="g672"
           transform="translate(424.6133,666.7812)"><path
             d="m 0,0 c 1.187,-2.122 0.43,-4.806 -1.692,-5.994 l -1.281,-0.717 c -2.123,-1.188 -4.805,-0.43 -5.994,1.692 l -3.047,5.444 c -1.187,2.122 -0.43,4.806 1.693,5.994 l 1.281,0.717 c 2.122,1.187 4.806,0.43 5.993,-1.692 z"
             style="fill:none;stroke:#1a1a1a;stroke-width:5;stroke-linecap:butt;stroke-linejoin:miter;stroke-miterlimit:10;stroke-dasharray:none;stroke-opacity:1"
             id="path674" /></g><g
           id="g676"
           transform="translate(502.9111,569.7163)"><path
             d="m 0,0 c 1.188,-2.123 0.431,-4.806 -1.691,-5.994 l -62.449,-34.95 c -2.121,-1.189 -4.805,-0.431 -5.993,1.692 l -0.717,1.28 c -1.187,2.122 -0.43,4.806 1.693,5.994 L -6.711,2.973 c 2.123,1.188 4.807,0.43 5.994,-1.692 z"
             style="fill:#ffffff;fill-opacity:1;fill-rule:nonzero;stroke:none"
             id="path678" /></g><g
           id="g680"
           transform="translate(502.9111,569.7163)"><path
             d="m 0,0 c 1.188,-2.123 0.431,-4.806 -1.691,-5.994 l -62.449,-34.95 c -2.121,-1.189 -4.805,-0.431 -5.993,1.692 l -0.717,1.28 c -1.187,2.122 -0.43,4.806 1.693,5.994 L -6.711,2.973 c 2.123,1.188 4.807,0.43 5.994,-1.692 z"
             style="fill:none;stroke:#1a1a1a;stroke-width:5;stroke-linecap:butt;stroke-linejoin:miter;stroke-miterlimit:10;stroke-dasharray:none;stroke-opacity:1"
             id="path682" /></g><g
           id="g684"
           transform="translate(573.1328,534.5483)"><path
             d="m 0,0 -61.479,31.731 c -0.211,0.125 -0.43,0.24 -0.657,0.339 l -0.023,0.013 c -2.341,1.209 -5.104,0.77 -7.024,-0.888 L -132.275,0.678 c -3.221,-1.558 -4.604,-5.366 -3.085,-8.504 l 30.459,-62.97 c 1.518,-3.138 5.36,-4.419 8.582,-2.86 l 18.972,9.177 17.545,-14.229 c 2.708,-2.195 6.73,-1.723 8.984,1.058 l 4.839,5.967 7.091,-3.658 c 3.097,-1.599 6.941,-0.317 8.581,2.864 L 2.636,-8.653 C 4.276,-5.472 3.097,-1.599 0,0"
             style="fill:#ffffff;fill-opacity:1;fill-rule:nonzero;stroke:none"
             id="path686" /></g><g
           id="g688"
           transform="translate(573.1328,534.5483)"><path
             d="m 0,0 -61.479,31.731 c -0.211,0.125 -0.43,0.24 -0.657,0.339 l -0.023,0.013 c -2.341,1.209 -5.104,0.77 -7.024,-0.888 L -132.275,0.678 c -3.221,-1.558 -4.604,-5.366 -3.085,-8.504 l 30.459,-62.97 c 1.518,-3.138 5.36,-4.419 8.582,-2.86 l 18.972,9.177 17.545,-14.229 c 2.708,-2.195 6.73,-1.723 8.984,1.058 l 4.839,5.967 7.091,-3.658 c 3.097,-1.599 6.941,-0.317 8.581,2.864 L 2.636,-8.653 C 4.276,-5.472 3.097,-1.599 0,0 Z"
             style="fill:none;stroke:#1a1a1a;stroke-width:5;stroke-linecap:butt;stroke-linejoin:miter;stroke-miterlimit:10;stroke-dasharray:none;stroke-opacity:1"
             id="path690" /></g><g
           id="g692"
           transform="translate(550.9541,623.5195)"><path
             d="m 0,0 c 0,-24.97 -20.242,-45.212 -45.212,-45.212 -24.97,0 -45.213,20.242 -45.213,45.212 0,24.971 20.243,45.212 45.213,45.212 C -20.242,45.212 0,24.971 0,0"
             style="fill:#ffffff;fill-opacity:1;fill-rule:nonzero;stroke:none"
             id="path694" /></g><g
           id="g696"
           transform="translate(550.9541,623.5195)"><path
             d="m 0,0 c 0,-24.97 -20.242,-45.212 -45.212,-45.212 -24.97,0 -45.213,20.242 -45.213,45.212 0,24.971 20.243,45.212 45.213,45.212 C -20.242,45.212 0,24.971 0,0 Z"
             style="fill:none;stroke:#1a1a1a;stroke-width:5;stroke-linecap:butt;stroke-linejoin:miter;stroke-miterlimit:10;stroke-dasharray:none;stroke-opacity:1"
             id="path698" /></g><g
           id="g700"
           transform="translate(538.4609,623.3228)"><path
             d="m 0,0 c 0,18.07 -14.648,32.72 -32.719,32.72 -18.07,0 -32.719,-14.65 -32.719,-32.72 0,-18.07 14.649,-32.719 32.719,-32.719 C -14.648,-32.719 0,-18.07 0,0"
             style="fill:#ffffff;fill-opacity:1;fill-rule:nonzero;stroke:none"
             id="path702" /></g><g
           id="g704"
           transform="translate(538.4609,623.3228)"><path
             d="m 0,0 c 0,18.07 -14.648,32.72 -32.719,32.72 -18.07,0 -32.719,-14.65 -32.719,-32.72 0,-18.07 14.649,-32.719 32.719,-32.719 C -14.648,-32.719 0,-18.07 0,0 Z"
             style="fill:none;stroke:#1a1a1a;stroke-width:5;stroke-linecap:butt;stroke-linejoin:miter;stroke-miterlimit:10;stroke-dasharray:none;stroke-opacity:1"
             id="path706" /></g><g
           id="g708"
           transform="translate(515.3369,623.3228)"><path
             d="m 0,0 c 0,5.299 -4.296,9.595 -9.595,9.595 -5.299,0 -9.594,-4.296 -9.594,-9.595 0,-5.299 4.295,-9.595 9.594,-9.595 C -4.296,-9.595 0,-5.299 0,0"
             style="fill:#ffffff;fill-opacity:1;fill-rule:nonzero;stroke:none"
             id="path710" /></g><g
           id="g712"
           transform="translate(515.3369,623.3228)"><path
             d="m 0,0 c 0,5.299 -4.296,9.595 -9.595,9.595 -5.299,0 -9.594,-4.296 -9.594,-9.595 0,-5.299 4.295,-9.595 9.594,-9.595 C -4.296,-9.595 0,-5.299 0,0 Z"
             style="fill:none;stroke:#1a1a1a;stroke-width:5;stroke-linecap:butt;stroke-linejoin:miter;stroke-miterlimit:10;stroke-dasharray:none;stroke-opacity:1"
             id="path714" /></g><g
           id="g716"
           transform="translate(477.7959,506.7207)"><path
             d="M 0,0 C 0,20.16 13.856,36.503 30.951,36.503 48.044,36.503 61.901,20.16 61.901,0"
             style="fill:#ffffff;fill-opacity:1;fill-rule:nonzero;stroke:#1a1a1a;stroke-width:5;stroke-linecap:butt;stroke-linejoin:miter;stroke-miterlimit:10;stroke-dasharray:none;stroke-opacity:1"
             id="path718" /></g><g
           id="g720"
           transform="translate(546.5,451.7217)"><path
             d="M 0,0 C 0,-3.594 -3.111,-6.222 -6.401,-6.222 H -69.932 C -73.221,-6.222 -76,-3.594 -76,0 v 50.972 c 0,3.593 2.779,6.806 6.068,6.806 H -6.401 C -3.111,57.778 0,54.565 0,50.972 Z"
             style="fill:#ffffff;fill-opacity:1;fill-rule:nonzero;stroke:none"
             id="path722" /></g><g
           id="g724"
           transform="translate(546.5,451.7217)"><path
             d="M 0,0 C 0,-3.594 -3.111,-6.222 -6.401,-6.222 H -69.932 C -73.221,-6.222 -76,-3.594 -76,0 v 50.972 c 0,3.593 2.779,6.806 6.068,6.806 H -6.401 C -3.111,57.778 0,54.565 0,50.972 Z"
             style="fill:none;stroke:#1a1a1a;stroke-width:5;stroke-linecap:butt;stroke-linejoin:miter;stroke-miterlimit:10;stroke-dasharray:none;stroke-opacity:1"
             id="path726" /></g><g
           id="g728"
           transform="translate(533.9189,498.6665)"><path
             d="m 0,0 c 0,14.419 -11.69,26.109 -26.11,26.109 -14.42,0 -26.11,-11.69 -26.11,-26.109 0,-14.42 11.69,-26.109 26.11,-26.109 C -11.69,-26.109 0,-14.42 0,0"
             style="fill:#ffffff;fill-opacity:1;fill-rule:nonzero;stroke:none"
             id="path730" /></g><g
           id="g732"
           transform="translate(533.9189,498.6665)"><path
             d="m 0,0 c 0,14.419 -11.69,26.109 -26.11,26.109 -14.42,0 -26.11,-11.69 -26.11,-26.109 0,-14.42 11.69,-26.109 26.11,-26.109 C -11.69,-26.109 0,-14.42 0,0 Z"
             style="fill:none;stroke:#1a1a1a;stroke-width:5;stroke-linecap:butt;stroke-linejoin:miter;stroke-miterlimit:10;stroke-dasharray:none;stroke-opacity:1"
             id="path734" /></g><g
           id="g736"
           transform="translate(526.3799,498.6665)"><path
             d="m 0,0 c 0,-10.257 -8.315,-18.571 -18.571,-18.571 -10.256,0 -18.571,8.314 -18.571,18.571 0,10.256 8.315,18.57 18.571,18.57 C -8.315,18.57 0,10.256 0,0"
             style="fill:#ffffff;fill-opacity:1;fill-rule:nonzero;stroke:none"
             id="path738" /></g><g
           id="g740"
           transform="translate(526.3799,498.6665)"><path
             d="m 0,0 c 0,-10.257 -8.315,-18.571 -18.571,-18.571 -10.256,0 -18.571,8.314 -18.571,18.571 0,10.256 8.315,18.57 18.571,18.57 C -8.315,18.57 0,10.256 0,0 Z"
             style="fill:none;stroke:#1a1a1a;stroke-width:5;stroke-linecap:butt;stroke-linejoin:miter;stroke-miterlimit:10;stroke-dasharray:none;stroke-opacity:1"
             id="path742" /></g><g
           id="g744"
           transform="translate(569.7178,488.4023)"><path
             d="M 0,0 C -1.295,-2.06 -4.013,-2.68 -6.072,-1.386 L -17.26,5.643 c -2.059,1.294 -2.678,4.012 -1.386,6.071 l 13.472,21.442 c 1.293,2.059 4.011,2.679 6.071,1.386 l 11.188,-7.028 c 2.059,-1.294 2.68,-4.013 1.387,-6.072 z"
             style="fill:#ffffff;fill-opacity:1;fill-rule:nonzero;stroke:none"
             id="path746" /></g><g
           id="g748"
           transform="translate(569.7178,488.4023)"><path
             d="M 0,0 C -1.295,-2.06 -4.013,-2.68 -6.072,-1.386 L -17.26,5.643 c -2.059,1.294 -2.678,4.012 -1.386,6.071 l 13.472,21.442 c 1.293,2.059 4.011,2.679 6.071,1.386 l 11.188,-7.028 c 2.059,-1.294 2.68,-4.013 1.387,-6.072 z"
             style="fill:none;stroke:#1a1a1a;stroke-width:5;stroke-linecap:butt;stroke-linejoin:miter;stroke-miterlimit:10;stroke-dasharray:none;stroke-opacity:1"
             id="path750" /></g><g
           id="g752"
           transform="translate(590.0127,521.3477)"><path
             d="m 0,0 c 0,-8.066 -6.54,-14.605 -14.606,-14.605 -8.066,0 -14.605,6.539 -14.605,14.605 0,8.066 6.539,14.605 14.605,14.605 C -6.54,14.605 0,8.066 0,0"
             style="fill:#ffffff;fill-opacity:1;fill-rule:nonzero;stroke:none"
             id="path754" /></g><g
           id="g756"
           transform="translate(590.0127,521.3477)"><path
             d="m 0,0 c 0,-8.066 -6.54,-14.605 -14.606,-14.605 -8.066,0 -14.605,6.539 -14.605,14.605 0,8.066 6.539,14.605 14.605,14.605 C -6.54,14.605 0,8.066 0,0 Z"
             style="fill:none;stroke:#1a1a1a;stroke-width:5;stroke-linecap:butt;stroke-linejoin:miter;stroke-miterlimit:10;stroke-dasharray:none;stroke-opacity:1"
             id="path758" /></g><g
           id="g760"
           transform="translate(568.874,502.3423)"><path
             d="m 0,0 c -2.185,-3.451 -4.926,-5.737 -6.119,-4.983 l -3.06,1.938 c -1.192,0.755 -0.341,4.238 1.844,7.69 L 4.536,23.389 c 2.185,3.451 4.924,5.636 6.117,4.881 l 3.06,-1.937 c 1.192,-0.756 0.344,-4.138 -1.842,-7.589 z"
             style="fill:#ffffff;fill-opacity:1;fill-rule:nonzero;stroke:none"
             id="path762" /></g><g
           id="g764"
           transform="translate(568.874,502.3423)"><path
             d="m 0,0 c -2.185,-3.451 -4.926,-5.737 -6.119,-4.983 l -3.06,1.938 c -1.192,0.755 -0.341,4.238 1.844,7.69 L 4.536,23.389 c 2.185,3.451 4.924,5.636 6.117,4.881 l 3.06,-1.937 c 1.192,-0.756 0.344,-4.138 -1.842,-7.589 z"
             style="fill:none;stroke:#1a1a1a;stroke-width:5;stroke-linecap:butt;stroke-linejoin:miter;stroke-miterlimit:10;stroke-dasharray:none;stroke-opacity:1"
             id="path766" /></g><g
           id="g768"
           transform="translate(558.4277,494.1289)"><path
             d="m 0,0 -0.056,0.082 c -1.065,1.554 -2.79,1.392 -3.853,-0.162 l -24.919,-36.549 h -35.711 c -1.505,0 -2.389,-1.459 -2.389,-3.657 v -0.115 c 0,-2.198 0.884,-4.228 2.389,-4.228 h 36.134 c 0.896,0 1.883,0.147 2.583,1.169 L 0,-5.689 C 1.063,-4.135 1.063,-1.554 0,0"
             style="fill:#ffffff;fill-opacity:1;fill-rule:nonzero;stroke:none"
             id="path770" /></g><g
           id="g772"
           transform="translate(558.4277,494.1289)"><path
             d="m 0,0 -0.056,0.082 c -1.065,1.554 -2.79,1.392 -3.853,-0.162 l -24.919,-36.549 h -35.711 c -1.505,0 -2.389,-1.459 -2.389,-3.657 v -0.115 c 0,-2.198 0.884,-4.228 2.389,-4.228 h 36.134 c 0.896,0 1.883,0.147 2.583,1.169 L 0,-5.689 C 1.063,-4.135 1.063,-1.554 0,0 Z"
             style="fill:none;stroke:#1a1a1a;stroke-width:5;stroke-linecap:butt;stroke-linejoin:miter;stroke-miterlimit:10;stroke-dasharray:none;stroke-opacity:1"
             id="path774" /></g><g
           id="g776"
           transform="translate(474.5,500.3447)"><path
             d="m 0,0 c 0,-3.419 -4.689,-6.845 -9.754,-6.845 h -12.99 C -27.808,-6.845 -32,-3.419 -32,0 v 18.572 c 0,3.419 4.192,6.583 9.256,6.583 h 12.99 C -4.689,25.155 0,21.991 0,18.572 Z"
             style="fill:#ffffff;fill-opacity:1;fill-rule:nonzero;stroke:none"
             id="path778" /></g><g
           id="g780"
           transform="translate(474.5,500.3447)"><path
             d="m 0,0 c 0,-3.419 -4.689,-6.845 -9.754,-6.845 h -12.99 C -27.808,-6.845 -32,-3.419 -32,0 v 18.572 c 0,3.419 4.192,6.583 9.256,6.583 h 12.99 C -4.689,25.155 0,21.991 0,18.572 Z"
             style="fill:none;stroke:#1a1a1a;stroke-width:5;stroke-linecap:butt;stroke-linejoin:miter;stroke-miterlimit:10;stroke-dasharray:none;stroke-opacity:1"
             id="path782" /></g><g
           id="g784"
           transform="translate(469.5,472.2773)"><path
             d="m 0,0 c 0,-4.084 -1.447,-6.777 -4.282,-6.777 h -7.272 C -14.389,-6.777 -17,-4.084 -17,0 v 22.187 c 0,4.085 2.611,8.036 5.446,8.036 h 7.272 C -1.447,30.223 0,26.272 0,22.187 Z"
             style="fill:#ffffff;fill-opacity:1;fill-rule:nonzero;stroke:none"
             id="path786" /></g><g
           id="g788"
           transform="translate(469.5,472.2773)"><path
             d="m 0,0 c 0,-4.084 -1.447,-6.777 -4.282,-6.777 h -7.272 C -14.389,-6.777 -17,-4.084 -17,0 v 22.187 c 0,4.085 2.611,8.036 5.446,8.036 h 7.272 C -1.447,30.223 0,26.272 0,22.187 Z"
             style="fill:none;stroke:#1a1a1a;stroke-width:5;stroke-linecap:butt;stroke-linejoin:miter;stroke-miterlimit:10;stroke-dasharray:none;stroke-opacity:1"
             id="path790" /></g><g
           id="g792"
           transform="translate(477.5,470.2998)"><path
             d="M 0,0 C 0,-5.066 -1.152,-8.8 -3.584,-8.8 H -9.823 C -12.256,-8.8 -14,-5.066 -14,0 v 27.524 c 0,5.067 1.744,9.676 4.177,9.676 h 6.239 C -1.152,37.2 0,32.591 0,27.524 Z"
             style="fill:#ffffff;fill-opacity:1;fill-rule:nonzero;stroke:none"
             id="path794" /></g><g
           id="g796"
           transform="translate(477.5,470.2998)"><path
             d="M 0,0 C 0,-5.066 -1.152,-8.8 -3.584,-8.8 H -9.823 C -12.256,-8.8 -14,-5.066 -14,0 v 27.524 c 0,5.067 1.744,9.676 4.177,9.676 h 6.239 C -1.152,37.2 0,32.591 0,27.524 Z"
             style="fill:none;stroke:#1a1a1a;stroke-width:5;stroke-linecap:butt;stroke-linejoin:miter;stroke-miterlimit:10;stroke-dasharray:none;stroke-opacity:1"
             id="path798" /></g><g
           id="g800"
           transform="translate(465.9414,525.0361)"><path
             d="m 0,0 c 0,-2.931 -2.375,-5.306 -5.306,-5.306 -2.93,0 -5.305,2.375 -5.305,5.306 0,2.931 2.375,5.306 5.305,5.306 C -2.375,5.306 0,2.931 0,0"
             style="fill:#ffffff;fill-opacity:1;fill-rule:nonzero;stroke:none"
             id="path802" /></g><g
           id="g804"
           transform="translate(465.9414,525.0361)"><path
             d="m 0,0 c 0,-2.931 -2.375,-5.306 -5.306,-5.306 -2.93,0 -5.305,2.375 -5.305,5.306 0,2.931 2.375,5.306 5.305,5.306 C -2.375,5.306 0,2.931 0,0 Z"
             style="fill:none;stroke:#1a1a1a;stroke-width:5;stroke-linecap:butt;stroke-linejoin:miter;stroke-miterlimit:10;stroke-dasharray:none;stroke-opacity:1"
             id="path806" /></g><g
           id="g808"
           transform="translate(447.5918,507.0537)"><path
             d="m 0,0 c 0,-2.93 -2.375,-5.306 -5.305,-5.306 -2.93,0 -5.306,2.376 -5.306,5.306 0,2.931 2.376,5.306 5.306,5.306 C -2.375,5.306 0,2.931 0,0"
             style="fill:#ffffff;fill-opacity:1;fill-rule:nonzero;stroke:none"
             id="path810" /></g><g
           id="g812"
           transform="translate(447.5918,507.0537)"><path
             d="m 0,0 c 0,-2.93 -2.375,-5.306 -5.305,-5.306 -2.93,0 -5.306,2.376 -5.306,5.306 0,2.931 2.376,5.306 5.306,5.306 C -2.375,5.306 0,2.931 0,0 Z"
             style="fill:none;stroke:#1a1a1a;stroke-width:5;stroke-linecap:butt;stroke-linejoin:miter;stroke-miterlimit:10;stroke-dasharray:none;stroke-opacity:1"
             id="path814" /></g><g
           id="g816"
           transform="translate(479.1533,490.5391)"><path
             d="m 0,0 c 0,-2.93 -2.376,-5.306 -5.306,-5.306 -2.93,0 -5.306,2.376 -5.306,5.306 0,2.931 2.376,5.307 5.306,5.307 C -2.376,5.307 0,2.931 0,0"
             style="fill:#ffffff;fill-opacity:1;fill-rule:nonzero;stroke:none"
             id="path818" /></g><g
           id="g820"
           transform="translate(479.1533,490.5391)"><path
             d="m 0,0 c 0,-2.93 -2.376,-5.306 -5.306,-5.306 -2.93,0 -5.306,2.376 -5.306,5.306 0,2.931 2.376,5.307 5.306,5.307 C -2.376,5.307 0,2.931 0,0 Z"
             style="fill:none;stroke:#1a1a1a;stroke-width:5;stroke-linecap:butt;stroke-linejoin:miter;stroke-miterlimit:10;stroke-dasharray:none;stroke-opacity:1"
             id="path822" /></g><g
           id="g824"
           transform="translate(548.5137,495.6772)"><path
             d="m 0,0 c 0,-2.931 -2.375,-5.306 -5.306,-5.306 -2.93,0 -5.305,2.375 -5.305,5.306 0,2.931 2.375,5.306 5.305,5.306 C -2.375,5.306 0,2.931 0,0"
             style="fill:#ffffff;fill-opacity:1;fill-rule:nonzero;stroke:none"
             id="path826" /></g><g
           id="g828"
           transform="translate(548.5137,495.6772)"><path
             d="m 0,0 c 0,-2.931 -2.375,-5.306 -5.306,-5.306 -2.93,0 -5.305,2.375 -5.305,5.306 0,2.931 2.375,5.306 5.305,5.306 C -2.375,5.306 0,2.931 0,0 Z"
             style="fill:none;stroke:#1a1a1a;stroke-width:5;stroke-linecap:butt;stroke-linejoin:miter;stroke-miterlimit:10;stroke-dasharray:none;stroke-opacity:1"
             id="path830" /></g><g
           id="g832"
           transform="translate(476.2168,442.4639)"><path
             d="m 0,0 c 0,-2.93 -2.375,-5.306 -5.306,-5.306 -2.93,0 -5.305,2.376 -5.305,5.306 0,2.931 2.375,5.306 5.305,5.306 C -2.375,5.306 0,2.931 0,0"
             style="fill:#ffffff;fill-opacity:1;fill-rule:nonzero;stroke:none"
             id="path834" /></g><g
           id="g836"
           transform="translate(476.2168,442.4639)"><path
             d="m 0,0 c 0,-2.93 -2.375,-5.306 -5.306,-5.306 -2.93,0 -5.305,2.376 -5.305,5.306 0,2.931 2.375,5.306 5.305,5.306 C -2.375,5.306 0,2.931 0,0 Z"
             style="fill:none;stroke:#1a1a1a;stroke-width:5;stroke-linecap:butt;stroke-linejoin:miter;stroke-miterlimit:10;stroke-dasharray:none;stroke-opacity:1"
             id="path838" /></g></g></g></g></svg>
