<svg height='100px' width='100px'  fill="#000000" xmlns="http://www.w3.org/2000/svg" xmlns:xlink="http://www.w3.org/1999/xlink" version="1.1" x="0px" y="0px" viewBox="0 0 164 164" enable-background="new 0 0 164 164" xml:space="preserve"><g><g><path d="M163,82c0-44.7-36.3-81-81-81C37.3,1,1,37.3,1,82c0,10.4,1.9,20.4,5.7,29.9C4,113.7,2,116.6,1.8,120    c-0.4,6.2,4.5,11.1,10.4,11.1h5.4C33,151.4,56.5,163,82,163c25.2,0,48.5-11.4,63.9-31.3c9.1-1.7,16-9.7,16-19.3    c0-3.1-0.7-5.9-2-8.5C162,96.8,163,89.4,163,82z M3.8,120.1c0.3-4.4,4.1-7.9,8.7-7.9h21.4c1.2,0,2.4,0.4,3.3,1.3l3.5,3.2    c2.3,2,5,1.8,5.2,1.8c2.2,0,4.2-1.1,5.6-2.9c1.4-1.9,3.4-3,5.7-3.3V129c-2.3-0.3-4.3-1.4-5.7-3.3c-1.4-1.9-3.4-2.9-5.6-2.9    c-0.4,0.1-2.7-0.4-5.2,1.8l-3.5,3.2c-0.9,0.8-2.1,1.3-3.3,1.3H12.2C7.4,129.1,3.5,125,3.8,120.1z M28.6,140.2h106.9    C121,153.6,102.1,161,82,161C61.9,161,43,153.6,28.6,140.2z M137.5,138.2h-111c-2.2-2.2-4.4-4.6-6.4-7.1h13.8    c1.7,0,3.3-0.6,4.6-1.8l3.5-3.2c1.7-1.5,3.6-1.2,3.8-1.3c1.5,0,3,0.8,4,2.1c2,2.6,5,4.1,8.3,4.1c0.6,0,1-0.4,1-1v-5.7h33.6    l4.9,2.5c0.1,0.1,0.3,0.1,0.5,0.1c0.1,0,0.2,0,0.3,0l8.7-2.6c0.4-0.1,0.7-0.5,0.7-1v-5.5c0-0.4-0.3-0.8-0.7-1l-8.7-2.6    c-0.2-0.1-0.5,0-0.7,0.1l-4.9,2.5H59.2v-5.7c0-0.6-0.4-1-1-1c-3.3,0-6.3,1.5-8.3,4.1c-1,1.3-2.5,2.1-4,2.1c-0.2,0-2.1,0.3-3.8-1.3    l-3.5-3.2c-1.3-1.1-2.9-1.8-4.6-1.8H12.5c-1.4,0-2.8,0.3-4,0.8C4.9,101.8,3,92,3,82C3,38.4,38.4,3,82,3c43.6,0,79,35.4,79,79    c0,6.6-0.8,13.1-2.4,19.4c-3.5-5.2-9.5-8.7-16.3-8.7h-18.7H33.3v-3.2c0-0.6-0.4-1-1-1c-0.6,0-1,0.4-1,1v4.2v9.1c0,0.6,0.4,1,1,1    h90.4v8.6c0,10.8,8.8,19.7,19.7,19.7c0.3,0,0.6,0,0.8,0C141.4,134.2,139.5,136.3,137.5,138.2z M59.2,122.4v-3.5h33.9    c0.2,0,0.3,0,0.5-0.1l4.7-2.4l7.6,2.3v4l-7.6,2.3l-4.7-2.4c-0.1-0.1-0.3-0.1-0.5-0.1H59.2z M33.3,94.7h8v2.4c0,0.6,0.4,1,1,1    c0.6,0,1-0.4,1-1v-2.4h9.9v2.4c0,0.6,0.4,1,1,1c0.6,0,1-0.4,1-1v-2.4h9.9v2.4c0,0.6,0.4,1,1,1c0.6,0,1-0.4,1-1v-2.4H77v2.4    c0,0.6,0.4,1,1,1c0.6,0,1-0.4,1-1v-2.4h9.9v2.4c0,0.6,0.4,1,1,1c0.6,0,1-0.4,1-1v-2.4h9.9v2.4c0,0.6,0.4,1,1,1c0.6,0,1-0.4,1-1    v-2.4h9.9v2.4c0,0.6,0.4,1,1,1c0.6,0,1-0.4,1-1v-2.4h8v7.1H33.3V94.7z M142.3,130.1c-9.7,0-17.7-7.9-17.7-17.7v-9.6v-8.1h17.7    c9.7,0,17.7,7.9,17.7,17.7C160,122.1,152,130.1,142.3,130.1z"></path></g><g><path d="M79.7,146.3c0-0.6-0.4-1-1-1H54.5c-0.6,0-1,0.4-1,1c0,0.6,0.4,1,1,1h24.2C79.2,147.3,79.7,146.8,79.7,146.3z"></path></g><g><path d="M87.6,146.3c0-0.6-0.4-1-1-1h-4c-0.6,0-1,0.4-1,1c0,0.6,0.4,1,1,1h4C87.1,147.3,87.6,146.8,87.6,146.3z"></path></g><g><path d="M90,147.3h2.6c0.6,0,1-0.4,1-1c0-0.6-0.4-1-1-1H90c-0.6,0-1,0.4-1,1C89,146.8,89.4,147.3,90,147.3z"></path></g><g><path d="M109.5,150.2H85.3c-0.6,0-1,0.4-1,1c0,0.6,0.4,1,1,1h24.2c0.6,0,1-0.4,1-1C110.5,150.6,110.1,150.2,109.5,150.2z"></path></g><g><path d="M81.4,150.2h-4c-0.6,0-1,0.4-1,1c0,0.6,0.4,1,1,1h4c0.6,0,1-0.4,1-1C82.4,150.6,82,150.2,81.4,150.2z"></path></g><g><path d="M74,150.2h-2.6c-0.6,0-1,0.4-1,1c0,0.6,0.4,1,1,1H74c0.6,0,1-0.4,1-1C75,150.6,74.6,150.2,74,150.2z"></path></g><g><path d="M153.2,83.1c0-9.8-7.7-17.7-17.3-18.3c-0.4-21.9-13.8-41.2-34.3-49.2c-2.2-0.9-4.5-1.6-6.7-2.1V11c0-0.3-0.2-0.6-0.4-0.8    C86.9,5,77.1,5,69.6,10.1c-0.3,0.2-0.4,0.5-0.4,0.8v2.6c-2.2,0.5-4.5,1.2-6.7,2.1c-20.5,8-33.9,27.2-34.3,49.2    c-9.6,0.5-17.3,8.5-17.3,18.3c0,0.6,0.4,1,1,1h140.3C152.7,84.1,153.2,83.6,153.2,83.1z M62.5,55.1c0-10.8,8.8-19.5,19.5-19.5    c10.8,0,19.5,8.8,19.5,19.5c0,10.8-8.8,19.5-19.5,19.5C71.2,74.6,62.5,65.9,62.5,55.1z M100.8,17.5c19.7,7.7,32.6,26.1,33,47.2    h-32.7c1.5-2.9,2.3-6.2,2.3-9.7c0-7.1-3.4-13.3-8.7-17.2V15.6C96.8,16.1,98.8,16.8,100.8,17.5z M92.8,11.5v25    c-3.2-1.9-6.9-2.9-10.8-2.9c-3.9,0-7.6,1.1-10.8,2.9v-25C77.8,7.2,86.2,7.2,92.8,11.5z M63.2,17.5c2-0.8,4-1.4,6-1.9v22.2    c-5.3,3.9-8.7,10.2-8.7,17.2c0,3.5,0.9,6.8,2.3,9.7H30.2C30.6,43.7,43.5,25.2,63.2,17.5z M12.9,82.1c0.5-8.4,7.4-15.1,15.9-15.3    c0.4,0.2-1.8,0,35.3,0.1c3.8,5.9,10.5,9.7,18,9.7c7.5,0,14.1-3.9,18-9.7c37,0,34.9,0.1,35.3-0.1c8.5,0.2,15.4,6.9,15.9,15.3H12.9z    "></path></g><g><path d="M82,70.4c8.5,0,15.3-6.9,15.3-15.3c0-3-0.8-5.8-2.5-8.3c-2.8-4.4-7.6-7-12.9-7c-8.5,0-15.3,6.9-15.3,15.3    C66.7,63.6,73.5,70.4,82,70.4z M82,41.8c4.6,0,8.7,2.3,11.2,6.1c1.4,2.2,2.1,4.6,2.1,7.2c0,7.4-6,13.3-13.3,13.3    c-7.4,0-13.3-6-13.3-13.3C68.7,47.7,74.6,41.8,82,41.8z"></path></g><g><path d="M142.3,103.1c-5.1,0-9.3,4.2-9.3,9.3c0,5.1,4.2,9.3,9.3,9.3c5.1,0,9.3-4.2,9.3-9.3C151.6,107.3,147.4,103.1,142.3,103.1z     M142.3,119.7c-4,0-7.3-3.3-7.3-7.3c0-4,3.3-7.3,7.3-7.3c4,0,7.3,3.3,7.3,7.3C149.6,116.4,146.3,119.7,142.3,119.7z"></path></g><g><path d="M142.3,108.4c-2.2,0-4,1.8-4,4s1.8,4,4,4c2.2,0,4-1.8,4-4S144.5,108.4,142.3,108.4z M142.3,114.4c-1.1,0-2-0.9-2-2    c0-1.1,0.9-2,2-2c1.1,0,2,0.9,2,2C144.3,113.5,143.4,114.4,142.3,114.4z"></path></g></g></svg>