<svg height='100px' width='100px'  fill="#000000" xmlns="http://www.w3.org/2000/svg" xmlns:xlink="http://www.w3.org/1999/xlink" version="1.1" x="0px" y="0px" viewBox="0 0 164 164" enable-background="new 0 0 164 164" xml:space="preserve"><g><g><path d="M55.9,148.1h23c0.5,0,0.9-0.4,0.9-0.9c0-0.5-0.4-0.9-0.9-0.9h-23c-0.5,0-0.9,0.4-0.9,0.9    C54.9,147.7,55.3,148.1,55.9,148.1z"></path></g><g><path d="M82.5,148.1h3.8c0.5,0,0.9-0.4,0.9-0.9c0-0.5-0.4-0.9-0.9-0.9h-3.8c-0.5,0-0.9,0.4-0.9,0.9    C81.6,147.7,82,148.1,82.5,148.1z"></path></g><g><path d="M89.6,148.1h2.5c0.5,0,0.9-0.4,0.9-0.9c0-0.5-0.4-0.9-0.9-0.9h-2.5c-0.5,0-0.9,0.4-0.9,0.9    C88.6,147.7,89,148.1,89.6,148.1z"></path></g><g><path d="M84.2,151.8c0,0.5,0.4,0.9,0.9,0.9h23c0.5,0,0.9-0.4,0.9-0.9c0-0.5-0.4-0.9-0.9-0.9h-23C84.6,150.8,84.2,151.2,84.2,151.8    z"></path></g><g><path d="M76.7,151.8c0,0.5,0.4,0.9,0.9,0.9h3.8c0.5,0,0.9-0.4,0.9-0.9c0-0.5-0.4-0.9-0.9-0.9h-3.8    C77.2,150.8,76.7,151.2,76.7,151.8z"></path></g><g><path d="M74.4,150.8h-2.5c-0.5,0-0.9,0.4-0.9,0.9c0,0.5,0.4,0.9,0.9,0.9h2.5c0.5,0,0.9-0.4,0.9-0.9    C75.4,151.2,75,150.8,74.4,150.8z"></path></g><g><path d="M150.2,127.1v-5.5c5.7-10.9,8.6-23.1,8.6-35.4c0-12.3-3-24.6-8.6-35.4v-7.5c0-0.4-0.2-0.7-0.6-0.9c-0.4-0.1-0.8-0.1-1,0.2    l-2,2c-13.1-20.3-35-33.3-59-35V3.8c0-1.6-1.3-2.8-2.8-2.8h-5.6c-1.6,0-2.8,1.3-2.8,2.8v5.7C61.3,10.6,47.1,16,35.1,25.3    c-0.1-0.2-6.4-12-6.4-12c-0.3-0.6-1.3-0.6-1.7,0C26.4,14.6,29,9.6,17.7,31c0,0,0,0,0,0c0,0,0,0.1,0,0.1c0,0.1-0.1,0.2-0.1,0.3    c0,0,0,0,0,0v12.8C9.5,56.7,5.2,71.2,5.2,86.2c0,21.4,8.8,40.9,23,54.8c0.1,0.1,0.2,0.2,0.3,0.3C42.3,154.7,61.2,163,82,163    c20.1,0,39-7.7,53.4-21.6h13.8c0.5,0,0.9-0.4,0.9-0.9V127.1C150.2,127.1,150.2,127.1,150.2,127.1    C150.2,127.1,150.2,127.1,150.2,127.1z M150.2,117.3v-1.4c0,0,0,0,0,0c0,0,0,0,0,0c0-25.5,0-30.7,0-60.8    C159.2,74.8,159.2,97.5,150.2,117.3z M145.2,45.9l-34.4,34.4l-5.1-10.5c2.1-1.5,4.1-3.1,6-5c1.5-1.5,1.5-4.1,0-5.6    c-1.5-1.5-4-1.6-5.6,0c-1.2,1.2-2.5,2.4-3.9,3.4L96,50.1c2.2-2.9,3.5-6.5,3.5-10.5c0-9.3-7.3-17-16.6-17.5v-3.8h1.8    c1.6,0,2.8-1.3,2.8-2.8v-4.1C111.1,13.2,132.5,26,145.2,45.9z M114.4,114.1v4.1c0,0.5,0.4,0.9,0.9,0.9c0.5,0,0.9-0.4,0.9-0.9V114    l2.1-9.6c0.5-2.3,0.5-4.7,0.1-7l14.1-14.1v40.4H92.2l18.2-18.2L114.4,114.1z M116.6,104l-1.5,7l-10.7-22.4c0,0,0,0,0,0L88.6,55.8    c2.3-0.9,4.3-2.4,6-4.1l20.7,42.1C116.9,96.9,117.3,100.6,116.6,104z M49,111l-1.5-7c-0.8-3.5-0.3-7.1,1.2-10.3l11.7-23.8l9-18.3    c1.7,1.8,3.7,3.2,6,4.1l-8.5,17.7L49,111z M59.2,68.1c-1.9-1.4-3.8-2.9-5.5-4.6c-0.8-0.8-0.8-2.1,0-2.9c0.8-0.8,2.1-0.8,2.9,0    c1.4,1.4,2.9,2.6,4.4,3.7L59.2,68.1z M82,24c8.6,0,15.6,7,15.6,15.6c0,8.6-7,15.6-15.6,15.6c-8.6,0-15.6-7-15.6-15.6    C66.4,31,73.4,24,82,24z M82,66.1c-2.2,0-4.2,1.1-5.5,2.7c-1.6-0.3-3.2-0.6-4.7-1.1l5.4-11.3c1.5,0.4,3.1,0.7,4.8,0.7    c1.7,0,3.3-0.2,4.8-0.7l5.4,11.3c-1.6,0.5-3.1,0.9-4.7,1.1C86.2,67.2,84.2,66.1,82,66.1z M71,69.4c1.5,0.5,3,0.9,4.5,1.1    c-0.3,0.8-0.5,1.7-0.5,2.6c0,0.5,0.1,1.1,0.2,1.6c-2-0.3-4.1-0.9-6-1.5L71,69.4z M76.9,73.1c0-1,0.3-2,0.9-2.8l0,0    c0.9-1.4,2.5-2.3,4.2-2.3c1.8,0,3.3,0.9,4.2,2.3c0,0,0,0,0,0c0.5,0.8,0.9,1.8,0.9,2.8c0,2.8-2.3,5.1-5.1,5.1S76.9,75.9,76.9,73.1z     M88.5,70.5c1.5-0.3,3-0.7,4.5-1.1l1.8,3.8c-2,0.7-4,1.2-6,1.5c0.1-0.5,0.2-1,0.2-1.6C89,72.2,88.8,71.3,88.5,70.5z M103,64.4    c1.6-1.1,3-2.4,4.4-3.7c0.8-0.8,2.1-0.8,2.9,0c0.8,0.8,0.8,2.1,0,2.9c-1.7,1.7-3.5,3.2-5.5,4.6L103,64.4z M79.2,2.9h5.6    c0.5,0,0.9,0.4,0.9,0.9v6.5c0,0,0,0,0,0c0,0,0,0,0,0v5.2c0,0.5-0.4,0.9-0.9,0.9h-1.8v-1.3c0-0.5-0.4-0.9-0.9-0.9    c-0.5,0-0.9,0.4-0.9,0.9v1.3h-1.8c-0.5,0-0.9-0.4-0.9-0.9v-5.2c0,0,0,0,0,0c0,0,0,0,0,0V3.8C78.3,3.3,78.7,2.9,79.2,2.9z     M36.4,101.3v2.3c0,4.7-3.8,8.4-8.4,8.4c-4.7,0-8.4-3.8-8.4-8.4v-2.3H36.4z M25.8,93.2V32.4h10.6v60.8H25.8z M19.5,95.1    c9.5,0,7.5,0,16.9,0v4.4H19.5V95.1z M19.5,44.5C19.5,44.5,19.5,44.5,19.5,44.5l0-12.1h4.4v60.8h-4.4V44.5z M20.1,30.5l3.5-6.6h8.6    l3.5,6.6C30.2,30.5,26.6,30.5,20.1,30.5z M24.6,22l0.4-0.7l2.9-5.5l3.3,6.2H24.6z M7,86.2c0-13.6,3.6-26.8,10.6-38.4    c0,1.2,0,39.4,0,55.9c0,5.7,4.6,10.3,10.3,10.3c5.7,0,10.3-4.6,10.3-10.3c0-85.6,0-53.8,0-72.2c0,0,0,0,0-0.1c0-0.1,0-0.2,0-0.2    c0,0,0-0.1,0-0.1c0,0,0,0,0,0l0,0l0,0L36,27c11.7-9.1,25.6-14.5,40.4-15.5v4.1c0,1.6,1.3,2.8,2.8,2.8h1.8v3.8    c-9.2,0.5-16.6,8.1-16.6,17.5c0,3.9,1.3,7.6,3.5,10.5l-6.2,12.6c-1.4-1-2.7-2.1-3.9-3.4c-1.5-1.5-4-1.6-5.6,0    c-1.5,1.5-1.5,4.1,0,5.6c1.8,1.8,3.9,3.5,6,5L47,92.9c-1.7,3.5-2.2,7.6-1.4,11.5l2.1,9.6v4.2c0,0.5,0.4,0.9,0.9,0.9    c0.5,0,0.9-0.4,0.9-0.9v-4.1l18.6-38.9l0,0l0.2-0.3c2.5,0.9,5.1,1.5,7.7,1.8c1.2,2,3.4,3.4,6,3.4c2.5,0,4.7-1.3,6-3.4    c2.6-0.4,5.2-1,7.7-1.8l6.7,13.9l-50.7,50.7H29.4C15.6,125.9,7,107,7,86.2z M82,161.1c-19.5,0-37.3-7.5-50.6-19.7H52c0,0,0,0,0,0    h80.6C118.8,154.1,100.9,161.1,82,161.1z M135,139.5C135,139.5,135,139.5,135,139.5l-80.7,0l48.8-48.8l6.3,13.2l-20.2,20.2    c-0.3,0.3-0.4,0.7-0.2,1c0.1,0.4,0.5,0.6,0.9,0.6h43.7c0.5,0,0.9-0.4,0.9-0.9V81.1c0-0.4-0.2-0.7-0.6-0.9c-0.4-0.1-0.8-0.1-1,0.2    L118,95.3c-0.3-0.8-0.6-1.6-1-2.4l-5.3-10.8l36.6-36.6v13.3h-4.2c-0.5,0-0.9,0.4-0.9,0.9c0,0.5,0.4,0.9,0.9,0.9h4.2V70h-4.2    c-0.5,0-0.9,0.4-0.9,0.9c0,0.5,0.4,0.9,0.9,0.9h4.2v9.3h-4.2c-0.5,0-0.9,0.4-0.9,0.9c0,0.5,0.4,0.9,0.9,0.9h4.2v9.3h-4.2    c-0.5,0-0.9,0.4-0.9,0.9c0,0.5,0.4,0.9,0.9,0.9h4.2v9.3h-4.2c-0.5,0-0.9,0.4-0.9,0.9c0,0.5,0.4,0.9,0.9,0.9h4.2v9.3h-4.2    c-0.5,0-0.9,0.4-0.9,0.9c0,0.5,0.4,0.9,0.9,0.9h4.2v9.3h-4.2c-0.5,0-0.9,0.4-0.9,0.9c0,0.5,0.4,0.9,0.9,0.9h4.2v11.4H135z"></path></g><g><path d="M82,46.6c3.9,0,7-3.1,7-7s-3.1-7-7-7c-3.9,0-7,3.1-7,7S78.1,46.6,82,46.6z M82,34.5c2.8,0,5.1,2.3,5.1,5.1    c0,2.8-2.3,5.1-5.1,5.1s-5.1-2.3-5.1-5.1C76.9,36.8,79.2,34.5,82,34.5z"></path></g></g></svg>