<svg height='100px' width='100px'  fill="#000000" xmlns="http://www.w3.org/2000/svg" data-name="Layer 1" viewBox="0 0 64 64" x="0px" y="0px"><title>car-rotor-brake-pad-engine-safety-automotive</title><path d="M32,19A13,13,0,1,0,45,32,13.015,13.015,0,0,0,32,19Zm0,24A11,11,0,1,1,43,32,11.013,11.013,0,0,1,32,43Z"></path><path d="M32,27a5,5,0,1,0,5,5A5.006,5.006,0,0,0,32,27Zm0,8a3,3,0,1,1,3-3A3,3,0,0,1,32,35Z"></path><rect x="31" y="23" width="2" height="2"></rect><rect x="39" y="29" width="2" height="2"></rect><rect x="23" y="29" width="2" height="2"></rect><rect x="26" y="38" width="2" height="2"></rect><rect x="36" y="38" width="2" height="2"></rect><path d="M32,47a15,15,0,0,1,0-30,15.191,15.191,0,0,1,1.876.116l.248-1.984a17,17,0,1,0,0,33.736l-.248-1.984A15.191,15.191,0,0,1,32,47Z"></path><path d="M47.6,6.373a1,1,0,0,0-1.321.253l-.682.91q-.59-.328-1.192-.627c-.074-.043-.152-.074-.229-.11A28,28,0,1,0,56.714,45.138l.961.44a.991.991,0,0,0,.415.091,1,1,0,0,0,.9-.563A30.014,30.014,0,0,0,47.6,6.373Zm-6.995,7.819-1.7-1.7a1,1,0,0,1,.139-1.529l3.291-2.279a1,1,0,0,1,.9-.116l.072.035a.952.952,0,0,1,.227.13l.726.594ZM32,58A26,26,0,1,1,40.581,7.458L37.9,9.313a3,3,0,0,0-.414,4.588l1.907,1.907-.28.373a2.769,2.769,0,0,0,.256,3.6l5.3,5.3a2.762,2.762,0,0,0,2.34.781.739.739,0,0,1,.8.442.731.731,0,0,1-.208.888l-.691.576a2.745,2.745,0,0,0-.977,1.843l-.818,8.176a2.766,2.766,0,0,0,1.208,2.558,3,3,0,0,0,.383,3.772l2.785,2.785a2.937,2.937,0,0,0,3.378.593A25.83,25.83,0,0,1,32,58ZM48.121,41.293l.06-.059,5.955,2.725L52.26,45.548a1,1,0,0,1-1.354-.056l-2.785-2.785a1,1,0,0,1,0-1.414ZM57.6,43.346,47.433,38.692a.76.76,0,0,1-.327-.7l.818-8.177a.751.751,0,0,1,.268-.506l.69-.576a2.756,2.756,0,0,0-2.154-4.846.763.763,0,0,1-.642-.214l-5.3-5.3a.76.76,0,0,1-.07-.989l6.612-8.817c.562.368,1.1.757,1.632,1.158l-4.717,6.29a3.014,3.014,0,0,0,.279,3.922L45.586,21a3,3,0,0,0,2.546.848l1.9-.271a4.193,4.193,0,0,1,4.487,2.659,4.147,4.147,0,0,1-1.833,5.077l-2.176,1.243A3.006,3.006,0,0,0,49,33.161v1.485a2.988,2.988,0,0,0,1.886,2.786l7.785,3.114A27.766,27.766,0,0,1,57.6,43.346ZM59.974,33H53v2h6.841a27.649,27.649,0,0,1-.632,3.607l-7.58-3.032A1,1,0,0,1,51,34.646V33.161a1,1,0,0,1,.5-.869l2.177-1.243A6.163,6.163,0,0,0,49.751,19.6l-1.9.272A1.013,1.013,0,0,1,47,19.586l-1.066-1.067a1,1,0,0,1-.093-1.307l4.666-6.221c.705.618,1.378,1.263,2.012,1.941l-5.16,4.3,1.282,1.536,5.193-4.328A27.826,27.826,0,0,1,60,32C60,32.335,59.986,32.667,59.974,33Z"></path><path d="M39.5,44.994l1,1.731a17.049,17.049,0,0,0,4.249-3.48l-1.5-1.324A15.013,15.013,0,0,1,39.5,44.994Z"></path></svg>