<svg height='100px' width='100px'  fill="#000000" xmlns="http://www.w3.org/2000/svg" data-name="Layer 1" viewBox="0 0 64 64" x="0px" y="0px"><title>tire-wheel-tyre-pressure-maintenance-car-service</title><path d="M32,62A29.842,29.842,0,0,0,58.9,45.3L57.1,44.416a28,28,0,0,1-9.886,11.108l-1.386-2.079-1.664,1.11,1.331,2A27.94,27.94,0,0,1,33,59.965V58H31v1.975A27.819,27.819,0,0,1,18.515,56.53l1.317-1.975-1.664-1.11L16.8,55.5a28.235,28.235,0,0,1-8.3-8.3l2.052-1.368-1.11-1.664L7.47,45.485A27.819,27.819,0,0,1,4.025,33H7V31H4.025A27.819,27.819,0,0,1,7.47,18.515l1.975,1.317,1.11-1.664L8.5,16.8a28.235,28.235,0,0,1,8.3-8.3l1.368,2.052,1.664-1.11L18.515,7.47A27.819,27.819,0,0,1,31,4.025V6h2V4.035A27.94,27.94,0,0,1,45.5,7.449l-1.331,2,1.664,1.11,1.386-2.079A28,28,0,0,1,57.1,19.584L58.9,18.7A30,30,0,1,0,32,62Z"></path><path d="M61,25H52.117a13.988,13.988,0,0,0-24.53.538A1,1,0,0,0,28.474,27H38.586l5,5-5,5H28.474a1,1,0,0,0-.887,1.462A13.988,13.988,0,0,0,52.117,39H61a1,1,0,0,0,1-1V26A1,1,0,0,0,61,25ZM60,37H51.526a1,1,0,0,0-.887.538A11.988,11.988,0,0,1,30.26,39H39a1,1,0,0,0,.707-.293l6-6a1,1,0,0,0,0-1.414l-6-6A1,1,0,0,0,39,25H30.26a11.988,11.988,0,0,1,20.379,1.462,1,1,0,0,0,.887.538H60Z"></path><path d="M35,32a3,3,0,1,0-3,3A3,3,0,0,0,35,32Zm-4,0a1,1,0,1,1,1,1A1,1,0,0,1,31,32Z"></path><path d="M19.926,17.34l5.13,5.13a1,1,0,0,0,1.228.146,10.866,10.866,0,0,1,2.966-1.254,1,1,0,0,0,.75-.968V13.107A19.152,19.152,0,0,1,32,13a18.835,18.835,0,0,1,11.4,3.8l1.2-1.6A21,21,0,1,0,32,53a20.825,20.825,0,0,0,12.6-4.2l-1.2-1.6A18.835,18.835,0,0,1,32,51a19.152,19.152,0,0,1-2-.107V43.606a1,1,0,0,0-.75-.968,10.893,10.893,0,0,1-2.966-1.254,1,1,0,0,0-1.228.146l-5.13,5.13a19.266,19.266,0,0,1-2.586-2.586l5.13-5.13a1,1,0,0,0,.146-1.228,10.893,10.893,0,0,1-1.254-2.966,1,1,0,0,0-.968-.75H13.107a18.745,18.745,0,0,1,0-4h7.287a1,1,0,0,0,.968-.75,10.866,10.866,0,0,1,1.254-2.966,1,1,0,0,0-.146-1.228l-5.13-5.13A19.266,19.266,0,0,1,19.926,17.34ZM28,19.643a12.921,12.921,0,0,0-2.069.874l-4.373-4.373A18.886,18.886,0,0,1,28,13.432Zm-2.069,23.84A12.921,12.921,0,0,0,28,44.357v6.211a18.886,18.886,0,0,1-6.442-2.712ZM19.643,36a12.921,12.921,0,0,0,.874,2.069l-4.373,4.373A18.886,18.886,0,0,1,13.432,36Zm.874-10.069A12.921,12.921,0,0,0,19.643,28H13.432a18.886,18.886,0,0,1,2.712-6.442Z"></path></svg>