<svg height='100px' width='100px'  fill="#000000" xmlns="http://www.w3.org/2000/svg" xmlns:xlink="http://www.w3.org/1999/xlink" version="1.1" x="0px" y="0px" viewBox="0 0 164 164" enable-background="new 0 0 164 164" xml:space="preserve"><g><g><path d="M163,82c0-14-3.6-27.8-10.5-39.8c0-5.1,0-13.2,0-13.6c0-0.5,0.2,0.3-9.2-17.5c-0.3-0.7-1.4-0.7-1.8,0L136,21.7    c-3.6-3.2-7.5-6.1-11.6-8.7v-1.5c0-0.6-0.4-1-1-1h-3.3C108.5,4.3,95.3,1,82,1s-26.5,3.3-38.1,9.5H23.9c-0.6,0-1,0.4-1,1v15.1    C8.8,41.7,1,61.3,1,82c0,44.5,36.3,81,81,81C126.8,163,163,126.5,163,82z M150.5,96.1v2.2c0,4.4-3.6,8-8,8s-8-3.6-8-8v-2.2H150.5z     M140.5,88.1V29.7h10.1v58.4H140.5z M138.5,88.1h-4V29.7h4V88.1z M134.4,90.1c9,0,7.1,0,16.1,0v4h-16.1V90.1z M142.5,13.7l7.4,14    h-10.4h-4.4L142.5,13.7z M135,23.5c-0.8,1.5-2.7,5.1-2.5,4.8c0,0.1-0.1,0.3-0.1,0.3c0,80,0,64.6,0,69.6c0,5.5,4.5,10,10,10    c5.5,0,10-4.5,10-10c0-4.4,0,6.4,0-51.9c5.5,11,8.5,23.2,8.5,35.6c0,22-9,41.9-23.6,56.2h-5.9c5.7-2.9,9.5-8.9,9.5-15.7v0    c0-0.6-0.4-1-1-1h-15.7V15.4C128.2,17.8,131.7,20.5,135,23.5z M123.4,123.5C123.4,123.5,123.4,123.5,123.4,123.5    C123.4,123.5,123.4,123.5,123.4,123.5H139c-0.5,8.2-7.3,14.6-15.6,14.7H48.8c5.4-2.8,9.1-8.3,9.5-14.7H123.4z M82,3    c11.7,0,23.2,2.6,33.7,7.5H80.1C79.6,7.4,76.9,5,73.7,5c-3.3,0-6,2.4-6.4,5.5H48.3C58.8,5.6,70.3,3,82,3z M69.1,11.5    c0-2.5,2-4.5,4.5-4.5c2.5,0,4.5,2,4.5,4.5l0,0l0,0c0,2.5-2,4.5-4.5,4.5C71.2,16.1,69.2,14,69.1,11.5L69.1,11.5L69.1,11.5z     M24.9,12.5h42.3c0.5,3.1,3.2,5.5,6.4,5.5c3.3,0,6-2.4,6.4-5.5h42.3v109H57.3c-0.6,0-1,0.5-1,1c0,8.6-7,15.6-15.6,15.7h-0.1    c-8.6,0-15.6-7-15.6-15.7V12.5z M3,82c0-19.4,7.1-37.9,19.9-52.4v93c0,6.8,3.9,12.7,9.5,15.7h-5.9C12,123.9,3,104,3,82z     M28.7,140.2c38.1,0-39.8,0,106.7,0C121.3,153.1,102.5,161,82,161S42.7,153.1,28.7,140.2z"></path></g><g><path d="M79.7,146.3c0-0.6-0.4-1-1-1H54.5c-0.6,0-1,0.4-1,1c0,0.6,0.4,1,1,1h24.2C79.2,147.3,79.7,146.8,79.7,146.3z"></path></g><g><path d="M87.6,146.3c0-0.6-0.4-1-1-1h-4c-0.6,0-1,0.4-1,1c0,0.6,0.4,1,1,1h4C87.1,147.3,87.6,146.8,87.6,146.3z"></path></g><g><path d="M90,147.3h2.6c0.6,0,1-0.4,1-1c0-0.6-0.4-1-1-1H90c-0.6,0-1,0.4-1,1C89,146.8,89.4,147.3,90,147.3z"></path></g><g><path d="M109.5,150.2H85.3c-0.6,0-1,0.4-1,1c0,0.6,0.4,1,1,1h24.2c0.6,0,1-0.4,1-1C110.5,150.6,110.1,150.2,109.5,150.2z"></path></g><g><path d="M81.4,150.2h-4c-0.6,0-1,0.4-1,1c0,0.6,0.4,1,1,1h4c0.6,0,1-0.4,1-1C82.4,150.6,82,150.2,81.4,150.2z"></path></g><g><path d="M74,150.2h-2.6c-0.6,0-1,0.4-1,1c0,0.6,0.4,1,1,1H74c0.6,0,1-0.4,1-1C75,150.6,74.6,150.2,74,150.2z"></path></g><g><path d="M34.7,107.7h18.4c0.6,0,1-0.4,1-1V88.3c0-0.6-0.4-1-1-1H45v-6h27.7v6h-8.2c-0.6,0-1,0.4-1,1v18.4c0,0.6,0.4,1,1,1h18.4    c0.6,0,1-0.4,1-1V88.3c0-0.6-0.4-1-1-1h-8.2v-6h27.7v6h-8.2c-0.6,0-1,0.4-1,1v18.4c0,0.6,0.4,1,1,1h18.4c0.6,0,1-0.4,1-1V88.3    c0-0.6-0.4-1-1-1h-8.2v-6h8.2c0.6,0,1-0.4,1-1V61.9c0-0.6-0.4-1-1-1H45v-6h8.2c0.6,0,1-0.4,1-1V35.5c0-0.6-0.4-1-1-1H34.7    c-0.6,0-1,0.4-1,1v18.4c0,0.6,0.4,1,1,1H43v6h-8.2c-0.6,0-1,0.4-1,1v18.4c0,0.6,0.4,1,1,1H43v6h-8.2c-0.6,0-1,0.4-1,1v18.4    C33.7,107.2,34.2,107.7,34.7,107.7z M81.9,105.7H65.5V89.3h16.4V105.7z M111.6,105.7H95.2V89.3h16.4V105.7z M35.7,36.5h16.4v16.4    H35.7V36.5z M35.7,62.9h75.9v16.4H35.7V62.9z M35.7,89.3h16.4v16.4H35.7V89.3z"></path></g><g><path d="M59.7,36.5h52.9c0.6,0,1-0.4,1-1s-0.4-1-1-1H59.7c-0.6,0-1,0.4-1,1S59.2,36.5,59.7,36.5z"></path></g><g><path d="M59.7,42.6h52.9c0.6,0,1-0.4,1-1c0-0.6-0.4-1-1-1H59.7c-0.6,0-1,0.4-1,1C58.7,42.2,59.2,42.6,59.7,42.6z"></path></g><g><path d="M59.7,48.8h52.9c0.6,0,1-0.4,1-1s-0.4-1-1-1H59.7c-0.6,0-1,0.4-1,1S59.2,48.8,59.7,48.8z"></path></g><g><path d="M59.7,54.9h33.7c0.6,0,1-0.4,1-1c0-0.6-0.4-1-1-1H59.7c-0.6,0-1,0.4-1,1C58.7,54.5,59.2,54.9,59.7,54.9z"></path></g></g></svg>