<svg height='100px' width='100px'  fill="#000000" xmlns="http://www.w3.org/2000/svg" data-name="Layer 1" viewBox="0 0 64 64" x="0px" y="0px"><title>electric-battery-electricity-power-car-service</title><path d="M61,11H58V7a1,1,0,0,0-1-1H49a1,1,0,0,0-1,1v4H44V7a1,1,0,0,0-1-1H35a1,1,0,0,0-1,1v4H30V7a1,1,0,0,0-1-1H21a1,1,0,0,0-1,1v4H16V7a1,1,0,0,0-1-1H7A1,1,0,0,0,6,7v4H3a1,1,0,0,0-1,1V58a1,1,0,0,0,1,1H61a1,1,0,0,0,1-1V12A1,1,0,0,0,61,11ZM50,8h6v3H50ZM36,8h6v3H36ZM22,8h6v3H22ZM8,8h6v3H8Zm52,5v8H4V13ZM4,57V23H60V57Z"></path><path d="M56,25H8a1,1,0,0,0-1,1V54a1,1,0,0,0,1,1H56a1,1,0,0,0,1-1V26A1,1,0,0,0,56,25ZM55,53H9V27H55Z"></path><path d="M28,43h3.719L30.03,49.757a1,1,0,0,0,1.8.8l8-12A1,1,0,0,0,39,37H35.133l.859-6.876a1,1,0,0,0-1.856-.628l-7,12A1,1,0,0,0,28,43Zm5.4-8.275-.393,3.151A1,1,0,0,0,34,39h3.132L33.37,44.642l.6-2.4A1,1,0,0,0,33,41H29.741Z"></path></svg>