<?xml version="1.0" encoding="utf-8"?>
<!-- Generator: Adobe Illustrator 16.0.0, SVG Export Plug-In . SVG Version: 6.00 Build 0)  -->
<!DOCTYPE svg PUBLIC "-//W3C//DTD SVG 1.1//EN" "http://www.w3.org/Graphics/SVG/1.1/DTD/svg11.dtd">
<svg version="1.1" id="Layer_1" xmlns="http://www.w3.org/2000/svg" xmlns:xlink="http://www.w3.org/1999/xlink" x="0px" y="0px"
	 width="1024px" height="768px" viewBox="0 0 1024 768" enable-background="new 0 0 1024 768" xml:space="preserve">
<path fill="#C69C6D" d="M323.25,466.925c-3.965,12.069-7.703,24.271-10.561,36.715c-2.701,11.757-2.239,23.257-3.859,35.127
	c-0.899,6.596-3.021,13.007-3.893,19.689c-2.355,18.058-3.35,34.389-8.379,52.03c-2.523,8.854-6.781,22.163,1.146,29.263
	c7.629,6.833,21.791,4.162,30.94,4.969c22.197,1.956,43.59,2.095,65.839,2.081c15.198-0.009,30.396-0.029,45.595-0.047
	c2.973-0.004,5.946-0.022,8.918-0.01L539,647.135c26.332,0,52.663,0.01,78.995,0.016c14.561,0.003,29.135-0.277,43.685-0.906
	c16.882-0.73,33.896,0.225,50.652-2.588c-3.086-8.021-3.969-17.361-5.506-25.825c-2.953-16.258-5.803-32.539-8.554-48.84
	c-1.807-10.702-3.837-21.407-5.314-32.173c-1.445-10.541-2.929-21.071-4.733-31.547c-2.114-12.266-1.955-29.896-12.153-38.05
	c-6.942-5.552-15.851-7.882-23.52-11.946c-17.544-9.301-35.284-18.196-52.896-27.351c-29.06-15.104-58.119-30.21-87.179-45.315
	c-2.119-1.102-16.287-10.8-18.477-9.604C494,373.005,323.25,466.924,323.25,466.925z"/>
<path fill="#A67C52" d="M425,150h90c0,0,61.997,0,62,0c1.949,0,7.272,6.388,8.651,7.599c7.326,6.436,14.653,12.87,21.979,19.305
	c17.937,15.758,35.824,31.574,53.896,47.175c5.52,4.765,10.722,9.863,16.178,14.693c2.555,2.262,7.18,4.397,9.166,7.114
	c4.198,5.742,1.122,22.011,1.211,28.877c0.155,12.029,0.601,24.061,1.836,36.032c3.335,32.31,4.202,62.887-1.513,95.032
	c-1.783,10.026-3.101,19.844-3.927,29.99c-1.051,12.887-3.338,22.421-14.031,30.411c-4.799,3.587-9.33,7.48-13.55,11.736
	c-6.491,6.545-11.307,13.909-21.119,14.848c-17.017,1.627-35.146-0.253-52.235-0.481c-23.437-0.313-46.873-0.569-70.31-0.846
	c-24.963-0.294-49.926-0.616-74.889-0.91c-16.139-0.19-32.278-0.382-48.418-0.578c-11.677-0.143-30.108,3.729-40.748-1.761
	c-7.521-3.88-10.807-14.2-15.479-20.786c-6.3-8.879-13.379-17.36-17.949-27.32c-4.905-10.688-4.956-21.841-5.647-33.365
	c-1.232-20.522-3.863-40.664,0.893-60.997c6.885-29.436,3.652-60.079,4.219-90.013c0.289-15.335,11.382-32.223,17.601-45.944
	c7.452-16.441,14.576-33.059,22.253-49.395c14.882-1.404,29.723-4.381,44.504-6.609C407.721,152.579,416.738,150,425,150z"/>
<path fill="#8C6239" d="M464.512,317.419c2.078-0.696,4.166-1.361,6.266-1.992c15.041-4.517,30.672-7.204,46.414-6.726
	c28.223,0.858,55.696,11.999,76.011,31.71c21.556,20.916,33.316,49.689,40.51,78.35c7.963,31.728,13.995,70.273,3.426,102.106
	c-22.435,67.563-94.002-22.484-127.434-29.488c-24.733-5.183-45.019,19.979-62.392,33.451
	c-18.627,14.446-47.527,30.797-67.639,9.535c-22.332-23.609-17.291-66.048-10.418-94.616c7.822-32.517,23.104-62.347,42.439-89.459
	c4.49-6.298,8.377-13.952,14.828-18.449c6.115-4.263,13.896-5.188,20.696-7.955C452.92,321.566,458.676,319.374,464.512,317.419z"/>
<path fill="#754C24" d="M509.923,437.633c0,0,20.514,1.709,32.479-23.077c11.965-24.786,16.238-36.752,16.238-36.752
	s-1.709-17.35-17.094-23.205s-23.932,0-23.932,0s-11.966,1.582-18.803,0c-6.838-1.582-15.385,0-15.385,0
	s-22.223,3.547-22.223,16.367s-4.955,8.438,3.045,23.861S474,412.75,474,412.75l7.5,13
	C481.5,425.75,492.846,439.766,509.923,437.633z"/>
<path fill="#754C24" d="M412,528.861c2.799,5.413,5.173,14.254,10.783,17.583c6.348,3.766,15.807,0.938,22.654,0.6
	c7.099-0.35,11.996,0.896,18.07-3.374c4.179-2.938,8.543-6.051,12.313-9.509c11.093-10.169,19.858-22.584,31.208-32.501
	c12.826,12.617,23.338,28.804,37.904,39.433c12.478,9.104,38.895,14.76,47.788-2.746c8.99-17.698-22.425-31.876-33.656-38.019
	c-17.979-9.832-38.049-23.192-59.41-21.897c-16.945,1.026-32.024,9.229-45.759,18.66C439.844,506.74,425.6,516.629,412,526.896"/>
<path fill="#C69C6D" d="M452.949,236c-23,13-39.974,23-40.974,25c-0.8,1.599-8.614,34.506-11.724,47.648
	c-0.78,3.299-1.257,5.352-1.257,5.352l54.003-29c0,0,43.002-27.554,40.002-34.277S459.687,215,459.687,215S435,218,432,220
	s-26,18-26,18s-23,25-25,26.5S363.417,291,363.417,291L356,320v20l-15,32.903V389l48-87l12-23l-3-10l14-14.277L433,241l13-10
	l13.688,4L470,244l-10.312,19L440,278h-13l0.103-11L452.949,236z"/>
<path fill="#C69C6D" d="M554.307,236c20.688,13,35.955,23,36.854,25c0.72,1.599,7.748,34.506,10.545,47.648
	c0.702,3.299,1.131,5.352,1.131,5.352l-48.573-29c0,0-38.679-27.554-35.98-34.277C520.982,244,548.246,215,548.246,215
	s22.205,3,24.903,5s23.386,18,23.386,18s20.688,25,22.486,26.5s16.061,26.5,16.061,26.5L642,320v20l13,32.903V389l-43.174-87
	l-10.794-23l2.698-10l-12.592-14.277L572.25,241l-11.693-10l-12.312,4l-9.275,9l9.275,19l17.708,15h11.693l-0.092-11L554.307,236z"
	/>
<path fill="#C69C6D" d="M392,215c16-24,22-25,38-26s35,8.303,35,8.303l8,4.66c0,0-4-18.962-7-19.962s-10-9-14-10s-14,2-19.5,0
	s-20.397,5-20.397,5L392,193.32V215z"/>
<path fill="#C69C6D" d="M518,215c16-24,22-25,38-26s35,8.303,35,8.303l8,4.66c0,0-4-18.963-7-19.963s-10-9-14-10s-14,2-19.5,0
	s-20.397,5-20.397,5L518,193.32V215z"/>
<path fill="#8C6239" d="M427.103,155.093c-7.448,8.439-13.169,18.556-19.883,27.587c-4.495,6.047-8.789,10.952-11.856,17.794
	c-5.499,12.26-12.599,23.715-17.649,36.186c-3.827,9.447-8.915,19.045-20.179,11.1c-19.045-13.433-11.182-37.381,0.828-52.034
	c-1.985,10.124-10.614,18.943-16.33,27.176c-3.59,5.172-7.361,10.209-11.433,15.005c-2.184,2.573-11.67,9.846-12.064,12.816
	c1.511-11.408,2.336-22.945,3.664-34.382c1.025-8.838,0.653-13.81,5.48-21.29c9.377-14.532,17.393-30.553,32.971-39.222
	c11.976-6.665,26.365-10.974,40.047-11.748C411.583,143.465,422.231,143.586,427.103,155.093z"/>
<path fill="#8C6239" d="M563.862,160.881c11.617,14.335,27.037,27.292,35.57,43.488c6.129,11.635,14.693,21.923,20.094,33.95
	c4.269,9.503,5.772,17.992,18.952,14.843c8.196-1.959,15.534-7.556,17.695-15.581c1.759-6.533,0.31-14.302-1.615-20.661
	c-0.992-3.277-2.305-6.587-4.266-9.445c-1.12-1.633-7.304-5.821-7.5-6.718c1.705,7.804,10.579,16.163,15.41,22.415
	c5.057,6.545,9.892,14.014,15.859,19.831c4.359,4.25,9.69,7.889,14.469,11.719c0.706-11.724-3.731-23.808-4.642-35.496
	c-0.813-10.452-1.443-12.676-7.856-21.425c-11.857-16.175-21.553-30.57-41.411-38.522c-12.979-5.198-26.914-8.529-40.959-9.138
	C581.464,149.611,570.313,149.262,563.862,160.881z"/>
<polygon fill="#C69C6D" points="341,262 325,285 315.169,313.008 313.181,334.316 309.183,356.022 "/>
<polyline fill="#C69C6D" points="694.183,361.022 655,267 674.704,290 "/>
<polygon fill="#A67C52" points="501,438 501,465.077 484,483.453 501,491 520,491 534.813,483.453 516,469.719 516,438 "/>
<ellipse fill="#333333" cx="562.809" cy="261.75" rx="10.809" ry="11.5"/>
<path fill="#A67C52" d="M667,535c-90,67-76.275,60-103.138,73s-62.565,16-70.714,14S455,600,455,600l-23-15c0,0,46,8,52,12
	s28,10,34,11s54.76-13,59-11S667,535,667,535z"/>
<path fill="#A67C52" d="M316.825,543.918l30.723,13.553l36.752,11.926l20.049-9.059l5.353,11.848c0,0-26.34,9.705-28.251,12.764
	c-1.91,3.057-21.959,12.115-29.397,7.795s-30.756-38.929-30.756-38.929l-2.825-6.253"/>
<path fill="#A67C52" d="M341,227c0.154-0.42,0.307-0.836,0.459-1.247C356.148,186.061,363.263,189,363.263,189
	s12.374,9.915,3.737,12.32"/>
<path fill="#A67C52" d="M664,234c-0.101-0.42-0.2-0.836-0.299-1.247C654.129,193.061,649.493,196,649.493,196
	s-8.063,9.915-2.435,12.32"/>
<path fill="#603813" d="M496.469,383.089c-3.763,6.719-3.445,8.699-9.071,11.464c-5.581,2.741-14.905,2.317-21.144,3.287
	c-2.922,0.455,9.901,8.895,11.126,9.18c5.661,1.315,13.007-0.02,18.872-0.02c2.936,0,9.844-21.447,10.563-24
	c-3.399,0.072-6.837,0.038-10.217-0.142C496.555,382.936,496.512,383.013,496.469,383.089z"/>
<path fill="#603813" d="M522.261,383c4.797,11,4.763,11,4.763,11s21.686,3.771,22.102,3.843c1.902,0.331-7.049,8.903-8.39,9.451
	c-5.255,2.145-12.916-0.297-18.405-0.293c-2.794,0.002-8.542-20.493-9.409-23.978C515.991,382.993,519.156,383,522.261,383z"/>
</svg>
