<?xml version="1.0" encoding="utf-8"?>
<!-- Generator: Adobe Illustrator 16.0.0, SVG Export Plug-In . SVG Version: 6.00 Build 0)  -->
<!DOCTYPE svg PUBLIC "-//W3C//DTD SVG 1.1//EN" "http://www.w3.org/Graphics/SVG/1.1/DTD/svg11.dtd">
<svg version="1.1" id="Layer_1" xmlns="http://www.w3.org/2000/svg" xmlns:xlink="http://www.w3.org/1999/xlink" x="0px" y="0px"
	 width="1024px" height="768px" viewBox="0 0 1024 768" enable-background="new 0 0 1024 768" xml:space="preserve">
<path fill="#333333" d="M357,487c0,0,6-25,7-28s10-28,12-32s13-33,13-33s18-25.53,21-25.265s24-13.087,24-13.087s6,1.353,7-6.647
	s0-57,0-57l7-30h-32c0,0-17-2-20,0s-24,12-24,12l-23,28l-22,19c0,0-8,25.022-9,35.011S312,385,313,390s2.737,22-0.131,25s0,28,0,28
	l-1.275,21L332,501l5,18L357,487z"/>
<path fill="#333333" d="M502,263h24.038H538l16,5l24,24c0,0,32,29,35,34s19,31.011,19,31.011L626,385l6,31c0,0,4,20,0,27s-9,27-9,27
	s-10,26-12,29s-18,27.343-18,27.343L579,534c0,0-12.223-32-11.111-42s-1.111-51,0-55s0.889-32.955,0-32.978S557,386,549,385
	s-29-15.265-29-15.265S502,347,502,343s-2-18,0-24s6-20.277,6-20.277L517,283L502,263z"/>
<path fill="#333333" d="M304,463.048c0,0-21,29.976-23,36.976s-13,36.928-12,40.458s-4,50.437-4,50.437V616h6l13.5,13
	c0,0,19.5,7.781,25.5,11.891S344,647,344,647h27c0,0,10-5,6-16s-6-42-9-50s-12-29-16-33s-16-29-16-29l-14.528-25L304,463.048z"/>
<path fill="#333333" d="M542,579c-5,5-21.924,27-19.962,31s-0.157,23-0.157,23S538,629,542,633s21.444,4,21.444,4H592l20-7
	c0,0-7-29.543-11-33.271S585,579,585,579l-21.556-17.965L542,579z"/>
<path fill="#333333" d="M549,275.976c5-5.976,24-46.03,26-51.503S606,172,606,172l30-7l17,82.75c0,0,1,52.25,0,55.25s-4,27-4,27
	s-19.445,38-18.223,34s-0.223-34,0-41s5.777-48,0-53S613,236.111,613,236.111L601.223,230L579,265.303L567.94,287l9.06,15
	L549,275.976z"/>
<path fill="#333333" d="M411,272.786c-4-16.647-17-52.834-17-52.834s-2.406-29.917-8.203-31.917S356,161.017,351,158.017
	s-14-12.008-14-12.008s-11.056,17.996-13.528,20.996S311,202,311,202v36c0,0,3,26.641,0,31.32S307,291,307,291l-4,12v24l14.594,21
	L338,326.723c0,0-7-15.723-8-23.723s5-48.719,6-55.359S342,209,342,209l15-11l14,11l8.944,23.473L394,264.951L411,272.786z"/>
<path fill="#CCCCCC" d="M405,363l-16,5.735L367,384c0,0-9-4-16-7s-20-20.989-20-20.989L342,329l18-10l19.797,4L395,338l10,14.423
	V363z"/>
<path fill="#CCCCCC" d="M550,367v-13l16-12.705c0,0,6.881-8.295,8.94-8.295s15.06,0,15.06,0l18.223,8.295L616,354.011
	c0,0,5,20.989,0,23.989s-17,17.5-17,17.5s-12.777,7.545-14.889,5.522S569,382,566,382s-15.5-9-15.5-9L550,367z"/>
<path fill="#998675" d="M333,319.723l55-42.748c0,0,9-26.476,8-28.226S374.889,208,374.944,205S364,179,357,179s-24-2-24,3
	s-7,25.766-9,30.883S317.944,246,318.472,253s-5.878,51-5.878,51L333,319.723z"/>
<path fill="#998675" d="M563.444,276L597,211c0,0,16,1.945,19,6.473s18,32.479,18,32.479L639,281l-5,52l-4.223,24L563.444,276z"/>
<path fill="#CCCCCC" d="M448,262h58l15,20l-15.734,49.041L524,368.735l43.804,28.765l7.137,38.5c0,0,7.282,82,9.171,83
	S592,541.939,588,540.47s-11.111,7.554-16.556,6.542s-20.302-8.002-31.873-12.507S512.884,509.608,512,503s-11-67-11-67
	l4.111-70.203l-39.611,2.938L443,404.546L434,463l-19,36.828L403.176,525H345c0,0-7-37.012-6-39.506s29-82.472,29-82.472L410,361
	l22-42L448,262z"/>
<path fill="#999999" d="M309.944,452l-5.972,11.048L371.986,637c0,0,71.014,10,75.014,10s62,0,62,0l61-92c0,0-13.75-9-21.875-5.5
	S524.223,562,509.111,565S479,571,469.5,571s-50.5-4-55.5-6s-42-30.256-42-30.256L336,501l-1-38L309.944,452z"/>
<path fill="#1A1A1A" d="M430,383.396l18.237-19.649c0,0,15.387,2.865,20.516,2.563s10.168,17.223,10.168,17.223l-10.168,21.498
	c0,0-26.247-3.449-31.93-6.294C431.14,395.894,430,383.396,430,383.396z"/>
<path fill="#1A1A1A" d="M484,377l24-8.265L525.881,377L531,397.5c0,0-4,13.5-11,14.5s-25,8.978-28,0s-7-16-7-16L484,377z"/>
<path fill="#B3B3B3" d="M456.5,446.269L425,476c0,0-36.845,30-38.922,31s-14.312,46.47-14.312,46.47s5.371,7.976,10.72,11.867
	s38.079,15.78,45.226,16.479s48.312,0,48.312,0s44.165-12.225,47.438-13.793s18.037-8.012,18.037-8.012s6.5-29.783,5.5-32.897
	s-19.924-36.604-25.962-39.859S481,456,479,455S456.5,446.269,456.5,446.269z"/>
<path fill="#333333" d="M444,474.977l15,28.012c0,0,21-15.994,24-13.994s6-19.767,6-19.767L477,458h-18l-10,0.048L444,474.977z"/>
<path fill="#333333" d="M535,532.988c5,1,31,13.012,31,13.012v9l-15.5,6.035L535,532.988z"/>
<path fill="#333333" d="M356,525.343C361,527,394,519,394,519s9-6.771,11-4.886S403,528,399,533s-12.468,5.939-18.234,7.47
	S356,525.343,356,525.343z"/>
<path fill="#333333" d="M410,496.133c0-3,6-29.066,6-32.066s-4-43.225,0-44.129s11-35.921,11-35.921s30,21.036,34,19.015
	c4-2.023,6.843-13.895,8.921-18.895s0-15.137,0-15.137H461l-20.577,5c0,0-3.577-3,0-5S452,354.022,459,356.011s18-8.989,30,0
	s23,12.724,23,12.724S524,377,519,377s-21,8-24,7s-6,12-6,12s-3,3.045,4,7.022s19,0,19,0s19,0.022,18,0S525,448,524,452s-4,39-4,39
	s7,25,2,23s-11-20-17-29s-12-20-17-23s-12.962-8-17.981-8S456,451,453,453s-10,10-13,14s-13,15-13,15l-12,18L410,496.133z"/>
<path fill="#333333" d="M385,365.32c0,0-2-8.992,0-13.156S389,336,389,336s7.223-5-4.889-5S367,328,362,331s-17,12.641-17,12.641
	l-4,8.523l4,18.84c0,0,4,0.324,11,2.16s4.137,1.164,10.068,0S379,369.303,379,369.303L385,365.32z"/>
<path fill="#333333" d="M565,350.641L576,343c0,0,12-3,15,0s12,16.164,12,16.164s6,8.738,7,8.787s-4,10.654-4,13.352
	s-4,3.648-7,5.673s-6.868-2.024-11.434,0C583,389,591,393,583,389s-7-2.395-11-7.697s-9-11.4-7-13.352s-0.455-8.966-0.455-8.966
	L565,350.641z"/>
<ellipse fill="#1A1A1A" cx="587.391" cy="367.111" rx="11.609" ry="11.639"/>
<ellipse fill="#FFFFFF" cx="591.821" cy="362.667" rx="6.179" ry="6.194"/>
<ellipse fill="#1A1A1A" cx="362.391" cy="353.111" rx="11.609" ry="11.639"/>
<ellipse fill="#FFFFFF" cx="365.821" cy="348.667" rx="6.179" ry="6.194"/>
</svg>
