<?xml version="1.0" encoding="UTF-8" standalone="no"?>
<svg
   xmlns:dc="http://purl.org/dc/elements/1.1/"
   xmlns:cc="http://creativecommons.org/ns#"
   xmlns:rdf="http://www.w3.org/1999/02/22-rdf-syntax-ns#"
   xmlns:svg="http://www.w3.org/2000/svg"
   xmlns="http://www.w3.org/2000/svg"
   xmlns:sodipodi="http://sodipodi.sourceforge.net/DTD/sodipodi-0.dtd"
   xmlns:inkscape="http://www.inkscape.org/namespaces/inkscape"
   version="1.1"
   id="svg2"
   xml:space="preserve"
   width="1365.3333"
   height="1024"
   viewBox="0 0 1365.3333 1024"
   sodipodi:docname="sharpeiavatar.ai"><metadata
     id="metadata8"><rdf:RDF><cc:Work
         rdf:about=""><dc:format>image/svg+xml</dc:format><dc:type
           rdf:resource="http://purl.org/dc/dcmitype/StillImage" /></cc:Work></rdf:RDF></metadata><defs
     id="defs6"><clipPath
       clipPathUnits="userSpaceOnUse"
       id="clipPath18"><path
         d="M 0,768 H 1024 V 0 H 0 Z"
         id="path16" /></clipPath></defs><sodipodi:namedview
     pagecolor="#ffffff"
     bordercolor="#666666"
     borderopacity="1"
     objecttolerance="10"
     gridtolerance="10"
     guidetolerance="10"
     inkscape:pageopacity="0"
     inkscape:pageshadow="2"
     inkscape:window-width="640"
     inkscape:window-height="480"
     id="namedview4" /><g
     id="g10"
     inkscape:groupmode="layer"
     inkscape:label="sharpeiavatar"
     transform="matrix(1.3333333,0,0,-1.3333333,0,1024)"><g
       id="g12"><g
         id="g14"
         clip-path="url(#clipPath18)"><g
           id="g20"
           transform="translate(323.25,301.0752)"><path
             d="m 0,0 c -3.965,-12.069 -7.703,-24.271 -10.561,-36.715 -2.701,-11.757 -2.239,-23.257 -3.859,-35.127 -0.899,-6.596 -3.021,-13.007 -3.892,-19.689 -2.356,-18.058 -3.35,-34.389 -8.379,-52.031 -2.524,-8.853 -6.782,-22.163 1.145,-29.262 7.629,-6.833 21.791,-4.162 30.941,-4.969 22.197,-1.956 43.589,-2.095 65.838,-2.081 15.199,0.009 30.397,0.029 45.595,0.047 2.973,0.004 5.946,0.022 8.918,0.01 l 90.004,-0.393 c 26.332,0 52.663,-0.01 78.995,-0.016 14.561,-0.003 29.135,0.278 43.685,0.907 16.882,0.73 33.895,-0.225 50.652,2.588 -3.086,8.02 -3.969,17.361 -5.506,25.825 -2.953,16.258 -5.803,32.539 -8.554,48.84 -1.806,10.702 -3.836,21.407 -5.314,32.172 -1.445,10.541 -2.929,21.072 -4.733,31.547 -2.115,12.266 -1.955,29.896 -12.154,38.05 -6.942,5.552 -15.85,7.882 -23.519,11.946 -17.544,9.301 -35.284,18.197 -52.897,27.351 -29.059,15.104 -58.119,30.21 -87.178,45.315 -2.12,1.102 -16.288,10.8 -18.477,9.604 C 170.75,93.919 0,0.001 0,0"
             style="fill:#c69c6d;fill-opacity:1;fill-rule:nonzero;stroke:none"
             id="path22" /></g><g
           id="g24"
           transform="translate(425,618)"><path
             d="m 0,0 h 90 62 c 1.949,0 7.272,-6.388 8.651,-7.599 7.327,-6.436 14.654,-12.87 21.979,-19.305 17.936,-15.758 35.824,-31.574 53.896,-47.176 5.52,-4.765 10.722,-9.863 16.178,-14.693 2.555,-2.262 7.18,-4.397 9.166,-7.114 4.198,-5.742 1.122,-22.011 1.211,-28.878 0.155,-12.028 0.601,-24.061 1.836,-36.031 3.335,-32.31 4.202,-62.888 -1.513,-95.032 -1.783,-10.026 -3.1,-19.844 -3.926,-29.99 -1.051,-12.887 -3.338,-22.421 -14.032,-30.411 -4.799,-3.587 -9.33,-7.481 -13.55,-11.737 -6.491,-6.545 -11.306,-13.909 -21.119,-14.847 -17.016,-1.627 -35.145,0.252 -52.235,0.481 -23.437,0.313 -46.873,0.569 -70.31,0.846 -24.962,0.294 -49.925,0.616 -74.888,0.91 -16.139,0.19 -32.279,0.382 -48.418,0.578 -11.677,0.143 -30.109,-3.73 -40.748,1.761 -7.521,3.88 -10.807,14.2 -15.48,20.786 -6.3,8.879 -13.379,17.36 -17.949,27.32 -4.905,10.688 -4.956,21.841 -5.647,33.365 -1.233,20.523 -3.864,40.664 0.892,60.997 6.885,29.436 3.652,60.08 4.219,90.014 0.289,15.335 11.382,32.223 17.6,45.943 7.453,16.442 14.577,33.059 22.253,49.395 14.882,1.404 29.723,4.381 44.504,6.609 C -17.279,-2.579 -8.262,0 0,0"
             style="fill:#a67c52;fill-opacity:1;fill-rule:nonzero;stroke:none"
             id="path26" /></g><g
           id="g28"
           transform="translate(464.5117,450.5806)"><path
             d="m 0,0 c 2.078,0.696 4.166,1.361 6.266,1.992 15.041,4.517 30.672,7.204 46.414,6.725 28.222,-0.858 55.696,-11.999 76.01,-31.71 21.556,-20.916 33.317,-49.689 40.51,-78.349 7.963,-31.728 13.995,-70.274 3.426,-102.107 -22.435,-67.562 -94.002,22.485 -127.434,29.489 -24.733,5.182 -45.018,-19.979 -62.391,-33.452 -18.627,-14.446 -47.528,-30.796 -67.639,-9.535 -22.332,23.61 -17.291,66.048 -10.418,94.616 7.822,32.517 23.105,62.347 42.44,89.46 4.49,6.298 8.377,13.952 14.828,18.449 6.115,4.263 13.895,5.188 20.696,7.955 5.7,2.32 11.456,4.512 17.292,6.467"
             style="fill:#8c6239;fill-opacity:1;fill-rule:nonzero;stroke:none"
             id="path30" /></g><g
           id="g32"
           transform="translate(509.9229,330.3672)"><path
             d="m 0,0 c 0,0 20.514,-1.709 32.479,23.077 11.965,24.786 16.239,36.752 16.239,36.752 0,0 -1.709,17.35 -17.094,23.205 -15.385,5.855 -23.932,0 -23.932,0 0,0 -11.965,-1.581 -18.802,0 -6.838,1.582 -15.385,0 -15.385,0 0,0 -22.223,-3.547 -22.223,-16.367 0,-12.82 -4.955,-8.438 3.045,-23.861 8,-15.423 9.75,-17.923 9.75,-17.923 l 7.5,-13 c 0,0 11.346,-14.016 28.423,-11.883"
             style="fill:#754c24;fill-opacity:1;fill-rule:nonzero;stroke:none"
             id="path34" /></g><g
           id="g36"
           transform="translate(412,239.1387)"><path
             d="m 0,0 c 2.799,-5.413 5.173,-14.254 10.783,-17.583 6.348,-3.766 15.807,-0.938 22.655,-0.6 7.098,0.35 11.996,-0.895 18.07,3.374 4.179,2.938 8.543,6.051 12.313,9.509 11.093,10.169 19.859,22.584 31.208,32.501 12.826,-12.617 23.338,-28.804 37.905,-39.432 12.477,-9.105 38.894,-14.76 47.788,2.746 8.99,17.698 -22.425,31.876 -33.657,38.018 -17.979,9.832 -38.048,23.193 -59.41,21.898 C 70.71,49.404 55.631,41.201 41.896,31.771 27.844,22.121 13.6,12.232 0,1.965"
             style="fill:#754c24;fill-opacity:1;fill-rule:nonzero;stroke:none"
             id="path38" /></g><g
           id="g40"
           transform="translate(452.9487,532)"><path
             d="m 0,0 c -23,-13 -39.974,-23 -40.974,-25 -0.8,-1.599 -8.614,-34.506 -11.724,-47.648 -0.78,-3.299 -1.257,-5.352 -1.257,-5.352 l 54.003,29 c 0,0 43.002,27.554 40.002,34.277 C 37.05,-8 6.738,21 6.738,21 c 0,0 -24.687,-3 -27.687,-5 -3,-2 -26,-18 -26,-18 0,0 -23,-25 -25,-26.5 -2,-1.5 -17.582,-26.5 -17.582,-26.5 l -7.418,-29 v -20 l -15,-32.903 V -153 l 48,87 12,23 -3,10 14,14.277 21,13.723 13,10 L 6.739,1 17.051,-8 6.739,-27 -12.949,-42 h -13 l 0.103,11 z"
             style="fill:#c69c6d;fill-opacity:1;fill-rule:nonzero;stroke:none"
             id="path42" /></g><g
           id="g44"
           transform="translate(554.3066,532)"><path
             d="m 0,0 c 20.687,-13 35.955,-23 36.854,-25 0.72,-1.599 7.749,-34.506 10.545,-47.648 C 48.102,-75.947 48.53,-78 48.53,-78 l -48.573,29 c 0,0 -38.679,27.554 -35.98,34.277 C -33.324,-8 -6.061,21 -6.061,21 c 0,0 22.206,-3 24.904,-5 2.698,-2 23.386,-18 23.386,-18 0,0 20.687,-25 22.486,-26.5 1.799,-1.5 16.06,-26.5 16.06,-26.5 l 6.918,-29 v -20 l 13,-32.903 V -153 L 57.52,-66 46.726,-43 49.424,-33 36.832,-18.723 17.943,-5 6.25,5 -6.062,1 -15.337,-8 -6.062,-27 11.646,-42 H 23.34 l -0.092,11 z"
             style="fill:#c69c6d;fill-opacity:1;fill-rule:nonzero;stroke:none"
             id="path46" /></g><g
           id="g48"
           transform="translate(392,553)"><path
             d="m 0,0 c 16,24 22,25 38,26 16,1 35,-8.303 35,-8.303 l 8,-4.659 C 81,13.038 77,32 74,33 71,34 64,42 60,43 56,44 46,41 40.5,43 35,45 20.103,38 20.103,38 L 0,21.68 Z"
             style="fill:#c69c6d;fill-opacity:1;fill-rule:nonzero;stroke:none"
             id="path50" /></g><g
           id="g52"
           transform="translate(518,553)"><path
             d="m 0,0 c 16,24 22,25 38,26 16,1 35,-8.303 35,-8.303 l 8,-4.66 C 81,13.037 77,32 74,33 71,34 64,42 60,43 56,44 46,41 40.5,43 35,45 20.103,38 20.103,38 L 0,21.68 Z"
             style="fill:#c69c6d;fill-opacity:1;fill-rule:nonzero;stroke:none"
             id="path54" /></g><g
           id="g56"
           transform="translate(427.1025,612.9067)"><path
             d="m 0,0 c -7.448,-8.439 -13.169,-18.556 -19.883,-27.587 -4.494,-6.048 -8.788,-10.953 -11.856,-17.794 -5.499,-12.261 -12.599,-23.715 -17.65,-36.186 -3.826,-9.447 -8.914,-19.045 -20.178,-11.1 -19.045,13.433 -11.182,37.381 0.828,52.034 -1.985,-10.123 -10.615,-18.943 -16.33,-27.176 -3.59,-5.171 -7.361,-10.209 -11.432,-15.005 -2.185,-2.573 -11.67,-9.846 -12.064,-12.816 1.511,11.408 2.336,22.945 3.663,34.382 1.026,8.839 0.653,13.81 5.481,21.29 9.377,14.532 17.393,30.553 32.97,39.222 11.976,6.665 26.366,10.974 40.048,11.748 C -15.519,11.628 -4.872,11.507 0,0"
             style="fill:#8c6239;fill-opacity:1;fill-rule:nonzero;stroke:none"
             id="path58" /></g><g
           id="g60"
           transform="translate(563.8623,607.1191)"><path
             d="m 0,0 c 11.617,-14.335 27.037,-27.292 35.57,-43.488 6.129,-11.635 14.694,-21.923 20.094,-33.95 4.269,-9.503 5.773,-17.992 18.952,-14.843 8.197,1.959 15.534,7.556 17.696,15.581 1.758,6.533 0.309,14.302 -1.616,20.661 -0.992,3.277 -2.304,6.587 -4.265,9.445 -1.12,1.633 -7.304,5.821 -7.5,6.718 1.705,-7.804 10.579,-16.163 15.41,-22.416 5.056,-6.545 9.891,-14.013 15.859,-19.831 4.36,-4.25 9.691,-7.888 14.469,-11.719 0.706,11.724 -3.731,23.808 -4.642,35.496 -0.813,10.452 -1.443,12.676 -7.856,21.426 C 100.313,-20.745 90.618,-6.35 70.76,1.602 57.78,6.8 43.846,10.131 29.801,10.74 17.602,11.27 6.45,11.619 0,0"
             style="fill:#8c6239;fill-opacity:1;fill-rule:nonzero;stroke:none"
             id="path62" /></g><g
           id="g64"
           transform="translate(341,506)"><path
             d="m 0,0 -16,-23 -9.831,-28.008 -1.988,-21.308 -3.998,-21.706 z"
             style="fill:#c69c6d;fill-opacity:1;fill-rule:nonzero;stroke:none"
             id="path66" /></g><g
           id="g68"
           transform="translate(694.1826,406.9775)"><path
             d="m 0,0 -39.183,94.022 19.704,-23"
             style="fill:#c69c6d;fill-opacity:1;fill-rule:nonzero;stroke:none"
             id="path70" /></g><g
           id="g72"
           transform="translate(501,330)"><path
             d="M 0,0 V -27.077 L -17,-45.453 0,-53 H 19 L 33.813,-45.453 15,-31.719 V 0 Z"
             style="fill:#a67c52;fill-opacity:1;fill-rule:nonzero;stroke:none"
             id="path74" /></g><g
           id="g76"
           transform="translate(445,503.8887)"><path
             d="m 0,0 c 0,-6.428 -5.198,-11.639 -11.609,-11.639 -6.412,0 -11.609,5.211 -11.609,11.639 0,6.428 5.197,11.639 11.609,11.639 C -5.198,11.639 0,6.428 0,0"
             style="fill:#333333;fill-opacity:1;fill-rule:nonzero;stroke:none"
             id="path78" /></g><g
           id="g80"
           transform="translate(573.6172,506.25)"><path
             d="m 0,0 c 0,-6.352 -4.839,-11.5 -10.809,-11.5 -5.969,0 -10.808,5.148 -10.808,11.5 0,6.351 4.839,11.5 10.808,11.5 C -4.839,11.5 0,6.351 0,0"
             style="fill:#333333;fill-opacity:1;fill-rule:nonzero;stroke:none"
             id="path82" /></g><g
           id="g84"
           transform="translate(667,233)"><path
             d="M 0,0 C -90,-67 -76.275,-60 -103.138,-73 -130,-86 -165.703,-89 -173.852,-87 -182,-85 -212,-65 -212,-65 l -23,15 c 0,0 46,-8 52,-12 6,-4 28,-10 34,-11 6,-1 54.76,13 59,11 4.24,-2 90,62 90,62"
             style="fill:#a67c52;fill-opacity:1;fill-rule:nonzero;stroke:none"
             id="path86" /></g><g
           id="g88"
           transform="translate(316.8252,224.082)"><path
             d="m 0,0 30.723,-13.553 36.752,-11.926 20.048,9.059 5.353,-11.848 c 0,0 -26.34,-9.705 -28.251,-12.763 -1.91,-3.057 -21.959,-12.115 -29.397,-7.795 -7.439,4.32 -30.756,38.929 -30.756,38.929 l -2.826,6.252"
             style="fill:#a67c52;fill-opacity:1;fill-rule:nonzero;stroke:none"
             id="path90" /></g><g
           id="g92"
           transform="translate(341,541)"><path
             d="M 0,0 C 0.154,0.42 0.307,0.836 0.459,1.247 15.148,40.939 22.263,38 22.263,38 c 0,0 12.374,-9.915 3.737,-12.32"
             style="fill:#a67c52;fill-opacity:1;fill-rule:nonzero;stroke:none"
             id="path94" /></g><g
           id="g96"
           transform="translate(664,534)"><path
             d="M 0,0 C -0.101,0.42 -0.2,0.836 -0.299,1.247 -9.871,40.939 -14.507,38 -14.507,38 c 0,0 -8.062,-9.915 -2.434,-12.32"
             style="fill:#a67c52;fill-opacity:1;fill-rule:nonzero;stroke:none"
             id="path98" /></g><g
           id="g100"
           transform="translate(496.4687,384.9111)"><path
             d="m 0,0 c -3.763,-6.719 -3.445,-8.699 -9.071,-11.464 -5.581,-2.741 -14.905,-2.317 -21.144,-3.287 -2.922,-0.455 9.901,-8.895 11.127,-9.18 5.66,-1.315 13.006,0.02 18.872,0.02 2.935,0 9.844,21.447 10.563,24 C 6.948,0.017 3.51,0.051 0.13,0.231 0.086,0.153 0.043,0.076 0,0"
             style="fill:#603813;fill-opacity:1;fill-rule:nonzero;stroke:none"
             id="path102" /></g><g
           id="g104"
           transform="translate(522.2607,385)"><path
             d="m 0,0 c 4.797,-11 4.763,-11 4.763,-11 0,0 21.685,-3.771 22.101,-3.843 1.903,-0.331 -7.049,-8.903 -8.389,-9.451 C 13.22,-26.438 5.559,-23.997 0.069,-24.001 -2.725,-24.003 -8.473,-3.508 -9.34,-0.023 -6.27,0.007 -3.104,0 0,0"
             style="fill:#603813;fill-opacity:1;fill-rule:nonzero;stroke:none"
             id="path106" /></g></g></g></g></svg>
